<?xml version="1.0" standalone="no"?>
<!DOCTYPE svg PUBLIC "-//W3C//DTD SVG 1.1//EN" "http://www.w3.org/Graphics/SVG/1.1/DTD/svg11.dtd" >
<svg xmlns="http://www.w3.org/2000/svg" xmlns:xlink="http://www.w3.org/1999/xlink" version="1.1">
<metadata>
Created by FontForge 20160405 at Mon Mar 26 00:56:48 2018
 By www-data
Copyright (c) 2011, Denis Masharov &#60;denis.masharov@gmail.com&#62;, Marck Fogel, with Reserved Font Names "Marck Script".
</metadata>
<defs>
<font id="MarckScript-Regular" horiz-adv-x="351" >
  <font-face 
    font-family="Marck Script"
    font-weight="400"
    font-stretch="normal"
    units-per-em="1000"
    panose-1="2 0 0 0 0 0 0 0 0 0"
    ascent="800"
    descent="-200"
    x-height="366"
    cap-height="638"
    bbox="-136 -385 1212 864"
    underline-thickness="75"
    underline-position="-224"
    unicode-range="U+000D-2265"
  />
<missing-glyph horiz-adv-x="480" 
 />
    <glyph glyph-name=".notdef" horiz-adv-x="480" 
 />
    <glyph glyph-name=".null" horiz-adv-x="0" 
 />
    <glyph glyph-name="nonmarkingreturn" horiz-adv-x="333" 
 />
    <glyph glyph-name="NULL" horiz-adv-x="10" 
 />
    <glyph glyph-name="NULL" horiz-adv-x="10" 
 />
    <glyph glyph-name="CR" unicode="&#xd;" horiz-adv-x="480" 
 />
    <glyph glyph-name="space" unicode=" " horiz-adv-x="480" 
 />
    <glyph glyph-name="exclam" unicode="!" horiz-adv-x="257" 
d="M235 642l47 -29q-143 -244 -225 -477h-56q62 247 234 506zM64 14q13 13 13 31.5t-13 31t-31.5 12.5t-31 -12.5t-12.5 -31t12.5 -31.5t31 -13t31.5 13z" />
    <glyph glyph-name="quotedbl" unicode="&#x22;" horiz-adv-x="20" 
d="M94 612l-82 -124h-32l58 151zM188 610l-80 -122h-34l58 147z" />
    <glyph glyph-name="numbersign" unicode="#" horiz-adv-x="575" 
d="M42 241l134 -1q7 24 34 119h-145l10 48h151q31 98 73 218l45 -19q-22 -59 -68 -198q85 2 126 5q42 128 73 217l45 -18q-26 -68 -66 -196q19 0 39.5 1.5t43.5 3t34 2.5l-10 -46q-73 -8 -123 -10l-37 -123q91 4 135 7l-9 -48q-23 -2 -139 -7q-31 -109 -45 -186l-49 -12
q13 80 44 194h-126q-33 -123 -46 -186l-49 -13q18 94 46 199q-57 0 -131 2zM226 240l126 2q34 115 36 122q-86 -4 -127 -4z" />
    <glyph glyph-name="dollar" unicode="$" horiz-adv-x="485" 
d="M113 -50l12 54q-65 0 -98.5 23.5t-33.5 59.5q0 52 58.5 98t147.5 49q16 40 19 54q-46 14 -70.5 35.5t-24.5 59.5q0 70 78 140t156 87q18 36 30 56l29 -10l-17 -38q41 0 66.5 -16.5t25.5 -50.5q0 -56 -66.5 -105t-129.5 -49l-10 -27q-6 -17 -9 -24q62 -11 91.5 -41
t29.5 -72q0 -76 -76.5 -153t-157.5 -77l-16 -58zM136 40l53 164q-51 -7 -82 -34.5t-31 -60t16 -51t44 -18.5zM226 209l-54 -169q56 0 106.5 53t50.5 105q0 62 -78 82q-9 -22 -15 -43q20 0 27 -1l-5 -27h-32zM249 431l25 -3l60 137q-60 -7 -99 -46t-39 -90t48 -71l15 39
q-12 1 -21 7zM368 564l-58 -135q45 3 75.5 29.5t30.5 59.5q0 44 -48 46z" />
    <glyph glyph-name="percent" unicode="%" horiz-adv-x="542" 
d="M240.5 151.5q36.5 32.5 78 32.5t62 -17.5t20.5 -52t-37.5 -68t-86.5 -33.5q-73 0 -73 62q0 44 36.5 76.5zM254 83q0 -42 40 -42q20 0 38.5 22.5t18.5 47.5q0 49 -36 49q-24 0 -42.5 -24t-18.5 -53zM273 372q-39 -34 -79 -34q-77 0 -77 60q0 43 37 76t78 33t60.5 -16
t19.5 -42q0 -43 -39 -77zM266 444q0 42 -41 42q-21 0 -39.5 -24.5t-18.5 -60.5t36 -36q25 0 44 24.5t19 54.5zM539 507l27 -21l-18 -14q-340 -265 -516 -469l-37 32q22 33 123.5 134t229 207.5t191.5 130.5z" />
    <glyph glyph-name="ampersand" unicode="&#x26;" horiz-adv-x="510" 
d="M483 110l27 -17q-13 -43 -43.5 -68.5t-66.5 -25.5t-82 46q-53 -46 -139 -46t-133 41t-47 100.5t49 105t138 67.5q-19 54 -19 88q0 53 42.5 88.5t99.5 35.5t90.5 -25.5t33.5 -66.5q0 -87 -169 -130q49 -120 84 -172q23 33 53 123h32q-4 -29 -22.5 -74.5t-39.5 -74.5
q34 -43 59 -43q34 0 53 48zM353 477.5q-17 16.5 -46.5 16.5t-50.5 -23.5t-21 -52.5t17 -84q118 31 118 99q0 28 -17 44.5zM118.5 87q30.5 -36 92.5 -36t88 23q-53 81 -104 209q-46 -10 -76.5 -43t-30.5 -75t30.5 -78z" />
    <glyph glyph-name="quotesingle" unicode="'" horiz-adv-x="53" 
d="M95 610l-80 -122h-34l58 147z" />
    <glyph glyph-name="parenleft" unicode="(" horiz-adv-x="248" 
d="M263 676l40 -24q-124 -170 -179 -363.5t-55 -424.5h-44q-3 42 -3 86q0 209 63 402.5t178 323.5z" />
    <glyph glyph-name="parenright" unicode=")" horiz-adv-x="213" 
d="M-8 -136l-40 24q124 170 179 363.5t55 424.5h44q3 -42 3 -86q0 -209 -63 -402.5t-178 -323.5z" />
    <glyph glyph-name="asterisk" unicode="*" horiz-adv-x="208" 
d="M129 563l50 40l20 -30l-51 -34l60 10v-37l-64 -4l49 -42l-26 -25l-49 45v-63h-36v63l-42 -38l-26 27l40 30l-52 -9l-1 35q13 2 33.5 3.5t27.5 2.5l-44 34l24 38q8 -6 24 -21.5t25 -22.5q5 54 7 65l43 -10z" />
    <glyph glyph-name="plus" unicode="+" horiz-adv-x="261" 
d="M145 133h-47q2 69 4 95l-93 -11l-12 54q39 8 109 13q8 80 14 112l54 -12l-11 -91h97v-47l-104 -12z" />
    <glyph glyph-name="comma" unicode="," horiz-adv-x="134" 
d="M11.5 63.5q13.5 12.5 33 12.5t30.5 -11.5t11 -30.5q0 -44 -76 -99l-22 32q40 32 41 34q-31 10 -31 32q0 18 13.5 30.5z" />
    <glyph glyph-name="hyphen" unicode="-" horiz-adv-x="203" 
d="M206 293v-47l-207 -29l-12 54q86 17 219 22z" />
    <glyph glyph-name="period" unicode="." horiz-adv-x="131" 
d="M-1 35q0 17 12 29t29 12t29 -12t12 -29t-12 -29t-29 -12t-29 12t-12 29z" />
    <glyph glyph-name="slash" unicode="/" horiz-adv-x="408" 
d="M500 721l39 -21q-161 -214 -278.5 -402.5t-238.5 -423.5l-44 13q120 234 239.5 425t282.5 409z" />
    <glyph glyph-name="zero" unicode="0" horiz-adv-x="452" 
d="M417.5 460q33.5 -32 33.5 -92.5t-51 -147.5t-132.5 -151.5t-155.5 -64.5q-121 0 -121 135q0 79 50.5 161.5t130 137t156.5 54.5q56 0 89.5 -32zM340.5 227q30.5 67 30.5 117.5t-23 77t-63 26.5q-70 0 -139.5 -90.5t-69.5 -181.5q0 -49 23 -80.5t67.5 -31.5t94 48t80 115z
" />
    <glyph glyph-name="one" unicode="1" horiz-adv-x="218" 
d="M231 473q-3 -17 -41 -87q-120 -216 -127 -368l-64 -10q-6 16 -6 53q0 89 116 325q-38 -15 -62 -15t-45 8l22 51q12 -3 24 -3q32 0 65 20t51 45t31 25t25.5 -9t12.5 -20t-2 -15z" />
    <glyph glyph-name="two" unicode="2" horiz-adv-x="413" 
d="M213 454.5q69 37.5 115.5 37.5t73.5 -25t27 -71t-37 -83.5t-148 -94t-206 -138.5q137 21 255 21q27 0 43 -2v-63q-22 -4 -29.5 -3.5t-24.5 -0.5t-66 -3.5t-100.5 -7.5t-70 -7.5t-22.5 -2.5q-16 0 -28 20.5t-12 39.5q8 31 79.5 90t183.5 117q33 17 61 44t28 51
q0 46 -49 46q-65 0 -167 -84l-17 33q42 49 111 86.5z" />
    <glyph glyph-name="three" unicode="3" horiz-adv-x="407" 
d="M427 404q0 -49 -52.5 -88t-105.5 -55q41 -24 62.5 -45t21.5 -48q0 -66 -74 -115.5t-159 -49.5q-41 0 -81.5 13t-56.5 31l45 42q14 -14 37.5 -25t40.5 -11q59 0 107.5 30.5t48.5 73.5q0 26 -24 46t-64 31q-23 7 -23 23q0 22 90 43q33 8 61 26.5t28 41t-15.5 35t-38.5 12.5
t-70.5 -24.5t-98.5 -63.5l-16 33q42 50 114.5 88t116.5 38t75 -24.5t31 -57.5z" />
    <glyph glyph-name="four" unicode="4" horiz-adv-x="386" 
d="M159 40q0 53 29 128q-63 -5 -102.5 -13t-42.5 -8q-23 0 -35.5 17t-12.5 31.5t1 18.5q6 32 84 103.5t164 129.5t113 58q17 0 27.5 -11t10.5 -28.5t-19 -48t-32.5 -56.5t-22.5 -46q-18 -41 -29 -71q34 2 57 2t39 -2q-13 -65 -17 -68l-108 -2q-26 -47 -42 -157l-58 -9
q-4 13 -4 32zM213 237q23 62 94 194q-60 -31 -140 -101t-109 -116q102 18 155 23z" />
    <glyph glyph-name="five" unicode="5" horiz-adv-x="384" 
d="M433 422q-13 1 -60.5 1t-80 -4t-81.5 -17q-58 -85 -71 -120q27 3 48 3q68 0 116 -33t48 -82q0 -69 -72 -118t-164.5 -49t-129.5 48l42 38q12 -14 41 -25t53 -11q56 0 98 32t42 78q0 32 -37 53t-96 21t-59 36q0 16 28.5 65t32 56t11 18t10.5 14.5t10 11.5t12 12
q15 8 35 14q79 19 181 19h47z" />
    <glyph glyph-name="six" unicode="6" horiz-adv-x="401" 
d="M299 328q39 0 64.5 -23.5t25.5 -61.5q0 -81 -91.5 -159.5t-170.5 -78.5q-61 0 -95 32t-34 93q0 103 60 191t143 133.5t160 46.5l5 -40q-123 -28 -172 -69q-57 -50 -96 -138q98 74 201 74zM168 60q51 0 96.5 44.5t45.5 94.5q0 28 -20.5 44t-52.5 16t-88.5 -21.5
t-61.5 -48.5q-3 -15 -3 -28q0 -44 24.5 -72.5t59.5 -28.5z" />
    <glyph glyph-name="seven" unicode="7" horiz-adv-x="311" 
d="M372 486q18 -14 18 -34t-33 -45t-65.5 -53.5t-71 -70.5t-67.5 -83q-68 -98 -74 -191l-73 -7q2 77 64 198q30 61 85 123t125 106q-100 -1 -254 -41l-12 64q23 10 132.5 27t162 17t63.5 -10z" />
    <glyph glyph-name="eight" unicode="8" horiz-adv-x="436" 
d="M188 293q-45 39 -45 75q0 50 52 86.5t117.5 36.5t102 -25.5t36.5 -66.5q0 -69 -117 -105q57 -23 57 -76q0 -82 -88 -145.5t-174 -63.5q-62 0 -98.5 32t-36.5 86t53.5 100t140.5 66zM283 322q35 10 56 32.5t21 51.5q0 40 -53 40q-32 0 -53 -16.5t-21 -42.5q0 -42 50 -65z
M230 266q-63 -14 -105.5 -49t-42.5 -71.5t27 -60.5t70.5 -24t84.5 40.5t41 85.5q0 27 -18.5 49.5t-56.5 29.5z" />
    <glyph glyph-name="nine" unicode="9" horiz-adv-x="365" 
d="M113 184q-39 0 -64.5 23.5t-25.5 61.5q0 54 44 108.5t104.5 87.5t110.5 33q132 0 132 -116q0 -77 -38 -149t-96.5 -121t-128 -78t-132.5 -29h-9l-5 40q144 33 202 77q27 20 57 55t50 81q-98 -74 -201 -74zM262 450q-53 0 -106.5 -44t-53.5 -93q0 -28 20.5 -44t52.5 -16
q55 0 106.5 37t51.5 90q0 31 -20.5 50.5t-50.5 19.5z" />
    <glyph glyph-name="colon" unicode=":" horiz-adv-x="116" 
d="M16 211q0 17 11.5 28.5t28 11.5t28 -11.5t11.5 -28t-11.5 -28t-28.5 -11.5t-28 11t-11 28zM-18 39q0 17 11.5 28.5t28 11.5t28 -11.5t11.5 -28t-11.5 -28t-28.5 -11.5t-28 11t-11 28z" />
    <glyph glyph-name="semicolon" unicode=";" horiz-adv-x="116" 
d="M16 211q0 17 11.5 28.5t28 11.5t28 -11.5t11.5 -28t-11.5 -28t-28.5 -11.5t-28 11t-11 28zM33 76q19 0 32 -11.5t13 -30.5q0 -44 -76 -99l-22 32q40 32 41 34q-28 9 -28 30.5t10.5 33t29.5 11.5z" />
    <glyph glyph-name="less" unicode="&#x3c;" horiz-adv-x="248" 
d="M232 53q-21 7 -174 169l-50 54q195 171 219 183l23 -27q-144 -129 -163 -153q16 -26 55.5 -69t71.5 -73l31 -30z" />
    <glyph glyph-name="equal" unicode="=" horiz-adv-x="335" 
d="M314 335l4 -47l-235 -23l-3 54q57 17 137 17t97 -1zM89 166l43 -1q81 0 194 26l-4 46l-236 -16z" />
    <glyph glyph-name="greater" unicode="&#x3e;" horiz-adv-x="223" 
d="M140 279l-97 148l32 54q78 -98 145 -199l-183 -233l-32 23q8 29 103 162z" />
    <glyph glyph-name="question" unicode="?" horiz-adv-x="421" 
d="M238 604.5q62 29.5 112.5 29.5t81 -26.5t30.5 -69.5q0 -71 -90 -147l-65 -55q-99 -84 -134 -154q-7 -14 -15 -26l-38 17q20 71 163 217q48 49 62 69.5t14 42.5q0 47 -48 47q-61 0 -115.5 -40t-76.5 -118l-38 5q0 65 47.5 122t109.5 86.5zM73.5 76q13.5 12 33 12
t30.5 -9.5t11 -27t-13.5 -30.5t-33.5 -13q-41 0 -41 37q0 19 13.5 31z" />
    <glyph glyph-name="at" unicode="@" horiz-adv-x="492" 
d="M361 523q60 0 95.5 -34t35.5 -99t-54.5 -158t-141 -162t-160 -69t-105 38.5t-31.5 114.5t54 164.5t139 146.5t168 58zM365 207q51 92 51 169q0 52 -26 82t-74 30t-103.5 -47.5t-92.5 -120t-37 -134t26 -97t74 -35.5q69 0 143 93q-10 -2 -13 -2q-36 0 -36 42q0 17 9 46
l-22 -25q-56 -63 -105 -63q-46 0 -46 55q0 72 69.5 134t149.5 64l1 -22l-25 -6q-56 -14 -98 -54.5t-42 -80.5t28 -40t68 42t67 100l26 -17q-1 -3 -11 -26q-27 -64 -27 -81q0 -22 21 -22q6 0 25 16z" />
    <glyph glyph-name="A" unicode="A" horiz-adv-x="790" 
d="M746 298l-5 -60q-23 2 -49.5 2t-44.5 -1q-14 -110 -18 -239h-70q-6 26 -6 69t2.5 74.5t6.5 62.5t4 36q-14 1 -66 1t-72 -2q-116 -156 -214 -236.5t-196 -80.5q-48 0 -80.5 29t-32.5 77q0 91 138.5 166t358.5 101q26 40 97 123.5t140 145.5q30 70 47.5 97.5t34.5 27.5
t28 -13t11 -33.5t-22.5 -60t-46.5 -122t-33 -155.5q52 0 88 -9zM236 89q83 79 125 150q-168 -10 -259.5 -63t-91.5 -113q0 -26 17.5 -41t46.5 -15q78 0 162 82zM578 307q7 34 18.5 85.5t13.5 60.5q-48 -46 -67 -67.5t-67 -82.5q17 1 41.5 1.5t40.5 1.5t20 1z" />
    <glyph glyph-name="B" unicode="B" horiz-adv-x="667" 
d="M637 181l-1 -39l-55 -2q-12 -70 -38.5 -113t-88.5 -93t-148.5 -83.5t-144.5 -33.5t-88 23.5t-30 61.5q0 58 68.5 116.5t166 98t193.5 53.5q-15 25 -45.5 41t-103.5 36q-40 11 -40 36q0 15 12.5 27.5t42 30t56 36t59 44.5t54.5 54t22 49q0 35 -35 35q-27 0 -73.5 -25.5
t-91.5 -65.5l-43 -136q-45 -143 -99.5 -222t-103.5 -79q-52 0 -52 64t62 163.5t172 204.5q0 1 5.5 18.5t10.5 35.5q17 54 26 69l49 -8q0 -19 -8 -45q56 42 118.5 73.5t92 31.5t47.5 -18.5t18 -54t-33.5 -81.5t-83.5 -83q-91 -68 -155 -98q104 -16 152 -42.5t70 -79.5h64z
M151 158q70 113 93 232q-54 -59 -98 -135t-44 -110q0 -21 14.5 -21t34.5 34zM383 -56q49 33 78 74t29 77q0 17 -5 34q-150 -18 -247 -78.5t-97 -115.5q0 -24 19 -38.5t52 -14.5q81 0 171 62z" />
    <glyph glyph-name="C" unicode="C" horiz-adv-x="608" 
d="M500 632q37 0 57.5 -20.5t20.5 -55.5q0 -78 -93 -144.5t-212 -66.5q-52 0 -110 15q-38 -62 -38 -134.5t40 -117t117 -44.5q138 0 181 161h47q-11 -93 -87.5 -164t-201.5 -71q-66 0 -123 48.5t-57 140.5t70 201q-51 30 -81 74l27 30q7 -7 19 -21q23 -27 62 -47
q59 82 171.5 149t190.5 67zM270 385q87 0 153 41t66 96q0 19 -13.5 30.5t-34.5 11.5q-61 0 -136 -48.5t-119 -116.5q36 -14 84 -14z" />
    <glyph glyph-name="D" unicode="D" horiz-adv-x="684" 
d="M233 638q174 0 297.5 -103t123.5 -241t-84 -218t-213 -78q-69 1 -110 1h-47q-29 0 -29 22q0 8 17 41q56 112 85 229q-103 0 -193 57t-90 129.5t68 116.5t175 44zM229 597q-66 0 -104 -28t-38 -82.5t52.5 -97t140.5 -53.5q31 131 36 169l60 -6q0 -62 -26 -164q8 0 93 10
l5 -33q-20 -7 -111 -21q-39 -126 -81 -218q100 -8 166.5 -8t105.5 49.5t39 133.5q0 145 -99 247t-239 102z" />
    <glyph glyph-name="E" unicode="E" horiz-adv-x="669" 
d="M639 574q0 -50 -47.5 -89t-109 -57t-118.5 -18q-15 0 -22 1v34q2 0 58 9.5t94.5 33.5t38.5 54q0 36 -54 36q-73 0 -138 -50t-65 -105t68 -71q15 -4 20 -8t5 -14t-9.5 -16.5t-43.5 -18.5q-184 -63 -184 -196q0 -27 10 -46q61 78 158 127t187 49q47 0 75 -20.5t28 -56.5
q0 -56 -52 -112t-134.5 -91.5t-164 -35.5t-128.5 30q-1 -1 -9 -15q-20 -40 -34 -56l-33 14q7 28 41 85q-46 52 -46 116.5t52.5 123t146.5 96.5q-47 39 -47 81q0 57 60 116.5t146.5 96.5t162.5 37q40 0 64 -17.5t24 -46.5zM429 169q-59 0 -137.5 -45t-127.5 -107
q40 -45 113.5 -45t144 47.5t70.5 102.5q0 22 -17 34.5t-46 12.5z" />
    <glyph glyph-name="F" unicode="F" horiz-adv-x="763" 
d="M494 621l237 -7q18 0 45.5 8.5t36.5 8.5t14.5 -5.5t5.5 -13.5q0 -21 -19 -35.5t-50 -20.5q-58 -13 -103 -13q-61 -42 -119 -242q99 0 123 -3l-2 -47q-15 -1 -45 -1l-91 3q-56 -171 -151 -272t-201 -101q-65 0 -105 39t-40 103q0 103 123 187.5t303 89.5q61 192 143 244
l-161 6q-101 0 -150.5 -26t-49.5 -69q0 -23 19 -38.5t38 -15.5t28.5 1.5t24 7t20.5 7.5q21 7 51 22l21 -26q-76 -76 -166 -76q-40 0 -66 25t-26 63q0 83 85 140t227 57zM354 62q54 84 86 188q-124 -10 -218.5 -79t-94.5 -148q0 -31 21.5 -51t56.5 -20t76 29.5t73 80.5z" />
    <glyph glyph-name="G" unicode="G" horiz-adv-x="679" 
d="M525 -8l-15 -34q-98 17 -113 18q-49 -133 -140 -210t-204 -77q-61 0 -102 33t-41 82q0 86 118.5 151t287.5 65q23 0 35 -1q18 38 29 81q-64 -43 -136.5 -43t-121 51.5t-48.5 136t56.5 178t149 154.5t188.5 61q56 0 106 -19.5t75 -46.5l-54 -65q-41 32 -58 43
q-44 30 -94 30q-103 0 -191 -99.5t-88 -216.5q0 -64 36 -101t94.5 -37t105.5 28q58 153 108 153q29 0 29 -28t-21.5 -64.5t-55.5 -65.5q-41 -110 -48 -132q70 -8 113 -25zM102 -243q68 0 134.5 63t100.5 158q-135 0 -228.5 -45.5t-93.5 -110.5q0 -30 23.5 -47.5t63.5 -17.5z
" />
    <glyph glyph-name="H" unicode="H" horiz-adv-x="825" 
d="M750 637l45 -22q-67 -131 -139 -337q46 0 63 -4l-4 -57q-21 -7 -82 -7q-21 -58 -25 -94t-6.5 -70t-3.5 -46h-56q-5 17 -5 35q0 62 33 175q-60 0 -182 -14q-5 -16 -25 -59.5t-39.5 -75.5t-52.5 -70t-69 -64q-103 -74 -200 -74q-40 0 -66 25t-26 63q0 96 110.5 174.5
t306.5 125.5q74 216 208 308q-145 -2 -239 -49t-94 -120q0 -23 7 -39.5t33 -51.5l-34 -32q-44 28 -67 68t-23 77q0 62 66 114.5t164 81t199 28.5q51 0 70.5 -7.5t19.5 -28t-29 -38.5q-125 -78 -201 -296q59 10 183 22q48 140 77.5 207.5t82.5 151.5zM168.5 -45.5
q49.5 32.5 83 85t57.5 144.5q-133 -22 -214.5 -77.5t-81.5 -125.5q0 -28 16.5 -43.5t53 -15.5t86 32.5z" />
    <glyph glyph-name="I" unicode="I" horiz-adv-x="586" 
d="M589 616q17 -5 17 -18q0 -4 -12 -18q-46 -59 -64.5 -88t-44 -97t-46 -130.5t-20.5 -63.5q-41 -92 -113 -145t-151 -53q-56 0 -90.5 27.5t-34.5 73.5q0 72 93 132t186 60l4 -33q-74 -15 -127.5 -55t-53.5 -87q0 -30 17.5 -49t44.5 -19q51 0 88 47.5t75.5 168.5t70 177
t79.5 94q-14 1 -31 1q-86 0 -167.5 -27t-81.5 -72q0 -28 25 -53l-22 -27q-67 47 -67 109q0 41 35.5 71t95.5 46q115 31 258 31q31 0 37 -3z" />
    <glyph glyph-name="J" unicode="J" horiz-adv-x="702" 
d="M574 622q61 0 99.5 -7.5t38.5 -30.5q0 -20 -32 -39q-79 -48 -140.5 -155.5t-126.5 -317.5q59 0 89 -5l-6 -40q-28 5 -50 5t-49 -5q-31 -85 -65.5 -138t-88.5 -99t-120 -76t-112.5 -30t-73.5 25.5t-27 67.5q0 64 60 127t158.5 106t207.5 54q2 4 31 95q46 150 103.5 238.5
t138.5 146.5q-17 2 -45 2q-173 0 -284 -63t-111 -142q0 -51 30.5 -94.5t86.5 -89.5l-24 -33q-163 88 -163 222q0 78 66.5 142t175 99t233.5 35zM165.5 -216q50.5 32 95 94t62.5 142q-130 -13 -220.5 -74.5t-90.5 -137.5q0 -26 15 -41t42 -15q46 0 96.5 32z" />
    <glyph glyph-name="K" unicode="K" horiz-adv-x="797" 
d="M824 600l63 -31q-64 -104 -151.5 -185t-232.5 -161q28 -145 69 -232.5t107 -97.5v-46q-8 -1 -21 -1q-67 0 -129.5 93t-112.5 275q-43 -135 -131 -213.5t-183 -78.5q-49 0 -80.5 26.5t-31.5 73t42 96.5t115 84l23 -36q-90 -64 -90 -120q0 -27 18 -43.5t47 -16.5
q68 0 117.5 57.5t88.5 201.5q49 181 100 237q23 26 67 57q-69 -2 -141 -23.5t-126 -64t-54 -94.5q0 -67 61 -107l-20 -31q-56 27 -88 70t-32 89q0 63 69 119t169.5 87t197.5 31q60 0 60 -26q0 -17 -35 -43q-64 -48 -98.5 -125t-56.5 -180q114 42 218.5 139.5t181.5 219.5z
" />
    <glyph glyph-name="L" unicode="L" horiz-adv-x="581" 
d="M175 93l208 -6q44 0 85 29l27 -36q-20 -23 -32 -34.5t-35.5 -22.5t-52.5 -11l-187 8q-125 0 -122 -3q-37 1 -37 33q3 20 27 66.5t65 168.5q-62 0 -111 37l21 37q43 -28 105 -28q58 142 147 213t186 71q46 0 74 -23.5t28 -62.5q0 -84 -110.5 -157.5t-251.5 -82.5
q-46 -146 -103 -199q25 3 69 3zM414 561q-62 0 -115 -63t-76 -163q100 7 175 60t75 111q0 23 -17 39t-42 16z" />
    <glyph glyph-name="M" unicode="M" horiz-adv-x="807" 
d="M817 -103l-12 -37q-26 -2 -39 -2q-60 0 -97.5 50.5t-37.5 131.5q0 49 22.5 185.5t52.5 249.5q6 25 6 33t-7 8t-44.5 -74.5t-89.5 -183t-59.5 -124t-12 -25t-18 -34t-25.5 -43.5q-33 -50 -52 -50q-13 0 -28.5 7t-20.5 15q-11 17 -11 106q0 186 30 355q10 56 10 59
q0 10 -8 10q-16 0 -51 -100l-29 -83q-64 -181 -129.5 -282t-150.5 -142l-26 55q97 72 149.5 147t114.5 242l34 91q35 95 61 135.5t58 40.5q53 0 53 -64q0 -5 -19 -202.5t-19 -260.5q0 -18 6 -19q5 0 11 10q81 135 155 294q9 20 31 69t43 87t32 46.5t35 8.5t41.5 -17.5
t17.5 -41.5t-7 -55q-78 -381 -78 -455.5t24 -102t84 -38.5z" />
    <glyph glyph-name="N" unicode="N" horiz-adv-x="724" 
d="M676 611l58 -7q-18 -78 -48.5 -182.5t-55.5 -169t-54.5 -128t-62.5 -100t-64 -36.5t-45.5 23t-14.5 81.5t17 246t17.5 204t-8.5 16.5q-11 0 -26 -30.5t-23 -46.5q-21 -47 -27 -66q-56 -126 -100 -208t-101 -152q-20 -24 -57 -49t-69 -38l-22 59q83 35 150 121.5
t138.5 241.5t102.5 209q35 57 71 57q23 0 36 -16t13 -41.5t-17.5 -210.5t-17.5 -237t4.5 -67.5t15.5 -15.5q14 0 30 30q55 107 160 512z" />
    <glyph glyph-name="O" unicode="O" horiz-adv-x="694" 
d="M704 492v-48q-45 -26 -166 -71q-54 -135 -171 -251t-214 -116q-55 0 -89 39t-34 107.5t46 165t121 181t153 124.5q32 21 100 21q51 0 83.5 -39.5t32.5 -93t-8 -80.5q76 25 146 61zM307 527q-33 -34 -33 -65.5t32 -50t80.5 -18.5t84.5 9q6 30 6 58q0 99 -85 99
q-39 0 -85 -32zM320 149q98 97 137 202q-25 -5 -64 -5q-168 0 -190 75q-84 -117 -84 -230q0 -45 21.5 -72t63.5 -27q59 0 116 57z" />
    <glyph glyph-name="P" unicode="P" horiz-adv-x="658" 
d="M473 618.5q30 12.5 70.5 12.5t62.5 -28t22 -80q0 -93 -60 -200t-150 -179.5t-170 -72.5q-20 0 -46 2q-49 -104 -89 -157t-80 -53q-25 0 -39 18t-14 50q0 103 95 275.5t209 276.5q16 66 16 96.5t-2 46.5l72 12q0 -7 -9 -88q82 56 112 68.5zM132 145l28 -14q63 123 106 276
q-92 -115 -151 -234t-59 -183q0 -19 12 -19q9 0 32 37.5t39 76.5q-13 6 -25 18zM223 117l19 -1q97 0 182 102q48 59 81.5 135t33.5 129q0 29 -15.5 46t-42.5 17q-49 0 -130 -54q-18 -135 -128 -374z" />
    <glyph glyph-name="Q" unicode="Q" horiz-adv-x="665" 
d="M625 111l60 -34q-71 -104 -154 -104q-57 0 -97 39q-33 32 -78 94q-112 -105 -203 -105q-55 0 -89 39t-34 104t38.5 152t97.5 162.5t136.5 128t147.5 52.5q51 0 83.5 -39.5t32.5 -109t-46.5 -163.5t-120.5 -177q23 -32 38 -51.5t42.5 -41.5t54 -22t56.5 24.5t35 51.5z
M314 545q-71 -51 -125.5 -157.5t-54.5 -190.5q0 -58 26 -87q19 66 53 101.5t75 35.5q15 0 24 -3q22 -6 58 -55q44 59 72.5 130.5t28.5 125t-22.5 88t-62.5 34.5t-72 -22zM220 81l8 1q51 5 100 62q-28 34 -54 34q-14 0 -22.5 -3t-24.5 -25t-31 -65q14 -4 24 -4z" />
    <glyph glyph-name="R" unicode="R" horiz-adv-x="635" 
d="M500 -65l5 -47q-28 -5 -49 -5q-47 0 -90 62.5t-67.5 146.5t-30.5 162q-50 -130 -94.5 -188.5t-91.5 -58.5q-24 0 -38 19.5t-14 51.5q0 74 68.5 188t160.5 187q2 6 17.5 73t18.5 74l58 5q0 -17 -9 -71q135 103 222 103q41 0 65 -22.5t24 -60.5q0 -95 -96 -191.5
t-205 -113.5q8 -145 50.5 -227t95.5 -87zM209 269q27 72 37 115q-55 -51 -101.5 -136t-46.5 -126q0 -21 17 -21q30 0 94 168zM277 283q106 0 190 74t84 147q0 27 -13.5 42t-42.5 15t-84 -32.5t-79 -53.5q-31 -123 -55 -192z" />
    <glyph glyph-name="S" unicode="S" horiz-adv-x="627" 
d="M526 181l71 1v-41q-12 2 -28 2t-36 -2q0 -77 -74 -156t-178.5 -128.5t-194.5 -49.5q-47 0 -76.5 24t-29.5 63q0 58 77 121t180 104t186 48q-10 15 -31 26t-86 34.5t-92 52t-27 80.5t56 119t132.5 112.5t134.5 45.5q26 0 43 -18.5t17 -45.5q0 -44 -53 -110.5t-118 -101.5
l-24 34q39 20 68.5 62.5t29.5 73.5t-33 31q-47 0 -107.5 -58.5t-60.5 -109.5q0 -35 18 -55t91 -49.5t104 -52t41 -56.5zM80 -80q0 -48 78 -48q43 0 111.5 31.5t121 88t52.5 115.5q0 7 -3 21q-137 -13 -248.5 -77t-111.5 -131z" />
    <glyph glyph-name="T" unicode="T" horiz-adv-x="570" 
d="M449 555l-143 3q-219 0 -219 -96q0 -25 18.5 -40.5t55.5 -15.5t97 34l15 -26q-31 -33 -70 -52t-78 -19t-67 26t-28 65q0 79 85.5 138t231.5 59q12 0 86 -4t117 -4t79 13q14 4 17 4q14 0 14 -18q0 -26 -45.5 -47t-104.5 -21q-66 -64 -115.5 -223.5t-118 -243t-162.5 -83.5
q-37 0 -70 24l23 38q12 -6 27 -11l14 -2q5 -1 15 -1q50 0 89.5 48t83 181.5t68 177t85.5 96.5z" />
    <glyph glyph-name="U" unicode="U" horiz-adv-x="701" 
d="M563 78l32 -26q-12 -34 -41 -62.5t-63 -28.5q-46 0 -75 45t-38 130q-46 -50 -115 -94.5t-121 -44.5t-82 35t-30 90q0 125 122 297t247 245l27 -38q-114 -85 -209 -224t-95 -244q0 -39 18.5 -60.5t52 -21.5t93.5 39t90 73q5 97 46.5 197t99 163.5t107.5 63.5q42 0 42 -51
t-75 -170.5t-149 -189.5q-2 -16 -2 -26q0 -44 17.5 -91.5t46.5 -47.5q25 0 54 42zM578 518q-33 0 -73 -77.5t-51 -164.5q62 74 99.5 136.5t37.5 90.5q0 15 -13 15z" />
    <glyph glyph-name="V" unicode="V" horiz-adv-x="568" 
d="M549 612l29 -43q-103 -68 -222 -216.5t-186 -306.5q-14 -33 -24.5 -44t-30 -11t-35 13.5t-15.5 41t7.5 105t7.5 109.5q0 225 -50 363l73 20q57 -99 57 -357q0 -84 -3 -134q160 328 392 460z" />
    <glyph glyph-name="W" unicode="W" horiz-adv-x="789" 
d="M719 620l74 10q6 -27 6 -59q0 -80 -37.5 -182t-90.5 -185.5t-113 -141t-101 -57.5q-88 0 -88 138q0 66 47 274q-116 -164 -214 -287.5t-118.5 -123.5t-37 16t-16.5 33t6 34q43 129 56.5 242t13.5 202.5t-1 110.5h78q6 -32 6 -99.5t-16.5 -188t-40.5 -223.5q75 96 310 422
q27 39 43.5 51.5t40 12.5t23.5 -23q0 -9 -25 -86t-48 -191t-23 -173t30 -59q21 0 52 30q77 74 131 203.5t54 266.5q0 22 -1 33z" />
    <glyph glyph-name="X" unicode="X" horiz-adv-x="644" 
d="M326 345q50 49 286 295l42 -44q-47 -60 -170.5 -181.5t-132.5 -130.5q33 -71 66.5 -123t58.5 -89t30 -45l-54 -51q-74 76 -159 252q-34 -32 -81 -78t-70 -68q-55 -53 -119 -96l-33 45q3 3 103 88.5t174 167.5q-69 185 -92 310l76 14q48 -203 75 -266z" />
    <glyph glyph-name="Y" unicode="Y" horiz-adv-x="660" 
d="M320 9l30 -1q6 21 27.5 80t30.5 78q-104 -98 -161 -118q-31 -11 -63 -11q-53 0 -82 35t-29 98q0 90 83 240.5t189 235.5l40 -37q-222 -239 -222 -399q0 -93 73 -93t142 80t143 248q30 69 46 91t31 22t23.5 -9t8.5 -24q0 -64 -92 -190q-64 -132 -129 -328q47 -3 100 -23
l-10 -34l-106 15q-59 -144 -142.5 -215.5t-199.5 -71.5q-60 0 -100.5 32.5t-40.5 81.5q0 90 121 153.5t289 63.5zM96 -253q81 0 143.5 65.5t92.5 153.5q-134 0 -225 -45.5t-91 -110.5q0 -28 22.5 -45.5t57.5 -17.5z" />
    <glyph glyph-name="Z" unicode="Z" horiz-adv-x="658" 
d="M223 479l5 -45q0 -8 -5.5 -14.5t-12.5 -6.5q-19 0 -39 33t-20 62q0 63 74 85t208 22t164.5 -8.5t30.5 -47.5q0 -17 -16.5 -38t-65 -66t-165 -142t-177.5 -160t-78 -88q42 -2 54 -2q135 0 195 15t60 52l-5 45q0 8 5.5 14.5t12.5 6.5q19 0 39 -33t20 -62q0 -63 -74 -85
t-208 -22t-164.5 8.5t-30.5 47.5q0 27 77.5 101t196.5 174.5t162 142.5t66 76q-42 2 -54 2q-135 0 -195 -15t-60 -52z" />
    <glyph glyph-name="bracketleft" unicode="[" horiz-adv-x="355" 
d="M389 632l-109 5q-57 -153 -122.5 -370.5t-93.5 -353.5q22 3 129 14l6 -58l-154 -22q-7 -3 -15 -3q-34 0 -34 23q31 167 99 394.5t129 399.5q13 37 54 37q15 0 57.5 -6t65.5 -8z" />
    <glyph glyph-name="backslash" unicode="\" horiz-adv-x="263" 
d="M147 -94q-28 242 -101 496q-27 95 -87 288l39 9q78 -240 118.5 -407t68.5 -379z" />
    <glyph glyph-name="bracketright" unicode="]" horiz-adv-x="308" 
d="M257 655l-112 -5l-13 51q150 15 162 15q34 0 34 -27q0 -6 -1 -10q-36 -171 -95.5 -394.5t-122.5 -390.5q-14 -23 -47 -23l-140 13v58l145 -11q48 136 104.5 354t85.5 370z" />
    <glyph glyph-name="asciicircum" unicode="^" horiz-adv-x="414" 
d="M-2 197q7 21 170 173l53 51q171 -195 183 -219l-27 -23q-129 144 -153 163q-26 -16 -69 -55.5t-73 -70.5l-30 -32z" />
    <glyph glyph-name="underscore" unicode="_" horiz-adv-x="450" 
d="M461 -113l21 -48h-492l-15 48h486z" />
    <glyph glyph-name="grave" unicode="`" horiz-adv-x="196" 
d="M163 394l-171 56l68 40l132 -78z" />
    <glyph glyph-name="a" unicode="a" horiz-adv-x="469" 
d="M439 101l23 -17q-14 -30 -51.5 -57t-68.5 -27q-59 0 -59 62q0 29 15 69l-37 -38q-54 -55 -93.5 -74t-77.5 -19t-57.5 21.5t-19.5 59.5q0 70 54 138.5t138 111.5t168 44l2 -33l-42 -9q-91 -20 -160.5 -80t-69.5 -119.5t48 -59.5q45 0 111 63t110 148l42 -25
q-62 -125 -62 -159q0 -14 9.5 -23.5t19 -9.5t12.5 1t6 2.5t7.5 4.5t8 6t11.5 9t13 10z" />
    <glyph glyph-name="b" unicode="b" horiz-adv-x="431" 
d="M270.5 342.5q36.5 18.5 69 18.5t54 -22.5t21.5 -58.5q0 -93 -78 -195.5t-168 -102.5q-27 0 -51 10l24 44q16 -4 25 -4q61 0 111 68t50 134q0 21 -13.5 34.5t-34.5 13.5q-46 0 -107.5 -74t-107.5 -193l-61 25q30 153 120 373t150 311l51 -18q-66 -123 -140.5 -305
t-87.5 -247q41 72 89 121t84.5 67.5z" />
    <glyph glyph-name="c" unicode="c" horiz-adv-x="365" 
d="M281 142l24 -20q-24 -55 -77 -88t-102.5 -33t-82 31t-32.5 85t47 117t121.5 104t146.5 41q10 0 30 -2l-3 -39q-110 -5 -182.5 -67t-72.5 -132q0 -29 18 -47t47 -18q46 0 118 68z" />
    <glyph glyph-name="d" unicode="d" horiz-adv-x="559" 
d="M574 739l51 -18l-14 -26q-110 -205 -187 -397q-51 -126 -51 -189q0 -16 8 -25.5t25.5 -9.5t40.5 23l18 -17q-13 -29 -45 -53.5t-62 -24.5q-58 0 -58 68q0 40 22 123q-118 -206 -231 -206q-39 0 -62 24t-23 65q0 65 52 135t128 114.5t142 44.5l3 -35q-86 -11 -160.5 -74.5
t-74.5 -129.5q0 -28 15 -44.5t39 -16.5q49 0 128 105q29 38 66.5 111t60 117.5t44 87t56.5 112t69 136.5z" />
    <glyph glyph-name="e" unicode="e" horiz-adv-x="381" 
d="M290 118l23 -18q-31 -43 -85 -71.5t-105 -28.5t-82 30t-31 79q0 92 97.5 181t197.5 89q66 0 66 -52q0 -54 -69.5 -109t-195.5 -100q9 -23 28 -36t39 -13q43 0 117 49zM101 148q81 28 139 70t58 77q0 13 -10 23t-23 10q-47 0 -101.5 -58.5t-62.5 -121.5z" />
    <glyph glyph-name="f" unicode="f" horiz-adv-x="341" 
d="M224 393l-32 -121l130 15l-29 -47l-112 -15q-13 -54 -44 -163q-67 -236 -67 -299l-64 -33q0 86 74 332q38 123 47 158q-35 -9 -64 -9q-57 0 -57 45q0 25 38 60q55 51 131 90q59 201 85 252q35 69 64 88q43 27 89 27t65 -26t17 -61q-5 -126 -271 -293zM384 688
q-56 0 -83 -54q-21 -42 -37 -101t-23 -81q55 34 118 92t65 101t-40 43zM141 267l22 88q-38 -16 -59.5 -33t-21.5 -29q0 -26 59 -26z" />
    <glyph glyph-name="g" unicode="g" horiz-adv-x="449" 
d="M441 36l1 -24q-10 -6 -91 -36q-32 -191 -94 -276t-152 -85q-42 0 -67 27t-25 70q0 86 79 160.5t211 117.5q15 67 54 189q-67 -102 -121.5 -138t-98.5 -36t-66.5 24t-22.5 64q0 66 55 134.5t138.5 112t161.5 43.5l8 -35q-111 -12 -190.5 -78t-79.5 -127q0 -26 16 -43
t39 -17q34 0 103 72t97 123l37 -21q-55 -147 -76 -248zM297 -40q-87 -40 -144 -96t-57 -102q0 -24 14 -39t35 -15q42 0 83 59t69 193z" />
    <glyph glyph-name="h" unicode="h" horiz-adv-x="433" 
d="M396 73l23 -19q-42 -70 -109 -70q-58 0 -58 57q0 33 28.5 105.5t28.5 95.5q0 29 -37 29t-100.5 -79.5t-106.5 -184.5l-59 21q52 261 272 699l49 -16q-111 -222 -159 -353q-50 -136 -75 -225q77 127 132.5 176t96.5 49q74 0 74 -53q0 -33 -37 -118t-37 -113t27 -28
q14 0 47 27z" />
    <glyph glyph-name="i" unicode="i" horiz-adv-x="268" 
d="M214 424q-56 0 -56 45q0 25 14 42t36 17t36 -13t14 -34t-12 -39t-32 -18zM201 129l20 -17q-24 -46 -63.5 -78.5t-71.5 -32.5q-56 0 -56 78q0 97 80 253q18 34 21 40l43 -26q-21 -38 -51.5 -121t-30.5 -106.5t10 -33.5t24 -10q27 0 75 54z" />
    <glyph glyph-name="j" unicode="j" horiz-adv-x="403" 
d="M316 141q2 -18 2 -29q-53 -13 -96 -30q-37 -178 -96 -269t-150 -91q-45 0 -70.5 27t-25.5 74q0 85 74 154.5t215 119.5q45 171 108 336q19 50 21 60l50 -16q-28 -62 -68.5 -183t-48.5 -176zM165 58q-125 -62 -158 -98q-43 -47 -43 -98q0 -22 13 -35t35 -13
q45 0 86.5 68.5t66.5 175.5zM412.5 575q-10.5 -19 -34 -19t-40 13t-16.5 36.5t16 42t36.5 18.5t34.5 -14.5t14 -36t-10.5 -40.5z" />
    <glyph glyph-name="k" unicode="k" horiz-adv-x="453" 
d="M414 102l25 -22q-58 -95 -123 -95q-40 0 -82 59t-42 97q0 24 72 48q27 9 49.5 27.5t22.5 38.5t-11 30.5t-28 10.5q-110 -10 -230 -296l-61 21q0 43 116.5 348t165.5 369l49 -18q-135 -235 -226 -546q78 117 134 156t107 39q31 0 49.5 -19t18.5 -48.5t-14.5 -53.5
t-41.5 -42q-39 -26 -96 -51q9 -47 31 -71t50 -24q15 0 65 42z" />
    <glyph glyph-name="l" unicode="l" horiz-adv-x="271" 
d="M166 96l21 -17q-34 -53 -58.5 -76.5t-54.5 -23.5t-49 24t-19 60q0 70 92 301.5t189 407.5l44 -24q-98 -190 -177 -377.5t-79 -269.5q0 -47 35 -47q28 0 56 42z" />
    <glyph glyph-name="m" unicode="m" horiz-adv-x="722" 
d="M687 130l21 -20q-57 -102 -131 -102q-30 0 -46.5 16.5t-16.5 44t33 94.5t35 102q1 16 -9.5 26t-28.5 10t-36.5 -8.5t-36 -27.5t-32 -37t-32 -51t-29.5 -55q-21 -41 -60 -123l-60 21q0 3 33 113t33 131t-10 30.5t-25 9.5q-45 0 -124.5 -112t-101.5 -191l-57 19
q5 53 47 190.5t71 187.5l45 -16q-31 -69 -43 -116.5t-21 -101.5q86 123 144 172.5t105 49.5q51 0 51 -51q0 -20 -17.5 -79t-27.5 -93q138 222 247 222q27 0 43 -16.5t16 -49t-37.5 -107.5t-37.5 -94.5t8 -28.5t20 -9q26 0 68 50z" />
    <glyph glyph-name="n" unicode="n" horiz-adv-x="464" 
d="M429 121l21 -16q-22 -44 -60.5 -74t-69.5 -30t-49 18t-18 45t34.5 94.5t34.5 99.5q0 14 -11.5 25.5t-27.5 11.5q-51 0 -103 -77.5t-116 -223.5l-60 21q19 116 54.5 226.5t65.5 158.5l41 -13q-28 -71 -71 -245q138 236 254 236q25 0 41.5 -17t16.5 -40t-6 -41.5t-37.5 -86
t-31.5 -84.5t10 -26.5t19 -9.5t15 3t13.5 9t13.5 11t14.5 13.5t12.5 11.5z" />
    <glyph glyph-name="o" unicode="o" horiz-adv-x="331" 
d="M295 297q26 -43 26 -95q0 -81 -56 -144.5t-132 -63.5q-58 0 -90.5 33.5t-32.5 92.5q0 95 74 170.5t166 75.5q17 0 24 -1l3 -33q-80 0 -133 -46t-53 -118q0 -43 21 -69.5t61.5 -26.5t64.5 36t24 84.5t-19 88.5z" />
    <glyph glyph-name="p" unicode="p" horiz-adv-x="495" 
d="M291 339.5q56 41.5 98 41.5t65 -25.5t23 -64.5q0 -108 -77.5 -199.5t-174.5 -91.5q-43 0 -68 15l24 43q52 -7 65 -7q54 0 101 63t47 129q0 25 -14.5 41.5t-37.5 16.5q-55 0 -124.5 -97t-130 -240.5t-105.5 -305.5l-60 21q2 6 37.5 103.5t69.5 193.5q94 264 94 289
q0 64 -26 116l50 25q31 -43 31 -90.5t-19 -131.5q76 114 132 155.5z" />
    <glyph glyph-name="q" unicode="q" horiz-adv-x="422" 
d="M164 -348l-54 22q0 68 199 507q-76 -102 -127.5 -139.5t-91.5 -37.5q-78 0 -78 87q0 72 49.5 140t131.5 110.5t169 42.5l9 -35q-94 -2 -181.5 -62t-87.5 -143q0 -53 45 -53q33 0 72.5 37.5t84 92t71.5 74.5l39 -22q-221 -444 -250 -621z" />
    <glyph glyph-name="r" unicode="r" horiz-adv-x="355" 
d="M290 354q25 0 41 -17t16 -44q0 -54 -62 -114l-24 19q14 31 14 45q0 27 -30 27t-57 -38t-63.5 -117.5t-55.5 -112.5l-57 25q55 125 63 147q27 78 27 198l56 15q-3 -65 -9 -100.5t-29 -115.5q101 183 170 183z" />
    <glyph glyph-name="s" unicode="s" horiz-adv-x="331" 
d="M337 391l-9 -39q-17 2 -44 2q-100 0 -100 -66q0 -14 40.5 -82t40.5 -91q0 -54 -36.5 -84.5t-97.5 -30.5q-84 0 -135 93l38 27q14 -11 30 -26.5t24 -21.5q19 -17 42 -17t40 16.5t17 41t-43.5 91.5t-43.5 94q0 49 41.5 75t109 26t86.5 -8z" />
    <glyph glyph-name="t" unicode="t" horiz-adv-x="330" 
d="M244 112l22 -25q-25 -39 -60.5 -61t-71.5 -22t-57 20.5t-21 56.5q0 84 63 232q-51 -8 -102 -24l-7 39l-1 1q50 21 131 34q8 15 36 73q56 115 80 149l43 -17q-10 -22 -35 -73.5t-56 -116.5q45 3 71 3t40 -8v-43q-14 3 -40.5 3t-94.5 -9q-59 -132 -59 -192q0 -23 14.5 -38
t39 -15t65.5 33z" />
    <glyph glyph-name="u" unicode="u" horiz-adv-x="440" 
d="M411 110l21 -17q-17 -42 -53.5 -71t-66 -29t-46.5 20.5t-17 53.5t11 85q-47 -74 -101 -116t-91 -42q-56 0 -56 80q0 68 46 174t67 123l48 -21q-41 -66 -62 -130t-21 -85.5t13.5 -34.5t31.5 -13q40 0 99.5 73.5t121.5 219.5l51 -23q-2 -8 -45.5 -116t-43.5 -129.5
t9.5 -32.5t19 -11t14.5 1t10 4t8.5 5t8.5 7l8 7q2 3 7.5 9.5t7.5 8.5z" />
    <glyph glyph-name="v" unicode="v" horiz-adv-x="380" 
d="M337 358l34 -27q-133 -175 -180 -292q-16 -39 -46 -39q-19 0 -33.5 20t-19 36.5t-14.5 69.5t-22 110.5t-19.5 86t-10 37.5t-8.5 15.5t-7 8.5l65 -6q29 -71 46 -154q4 -17 14 -68.5t16 -80.5q55 106 96.5 172.5t88.5 110.5z" />
    <glyph glyph-name="w" unicode="w" horiz-adv-x="597" 
d="M578 389l28 -26l-60 -73q-106 -131 -157 -260q-13 -27 -26.5 -27t-22 3.5t-19 25.5t-14.5 53t-7 53t-4 32.5t-2.5 22t-2.5 17.5l-2 12t-3 11.5t-3 10t-4.5 15.5t-5.5 19q-52 -56 -89 -132q-14 -29 -55 -116q-9 -19 -24.5 -19t-25 3.5t-19.5 23.5t-15 60q-24 201 -46 274
q29 8 58 8q5 -9 13 -55q17 -89 43 -209q49 94 108.5 173.5t78.5 79.5q22 0 30.5 -30.5t15 -102t17.5 -119.5q94 161 215 272z" />
    <glyph glyph-name="x" unicode="x" horiz-adv-x="444" 
d="M197 167q-59 -53 -159 -173l-28 23q19 46 163 192q-38 92 -42 151l66 12q5 -7 39 -121q126 90 179 115l19 -27q-17 -14 -60 -43q-115 -78 -121 -84q54 -115 129 -198l-47 -30q-82 60 -138 183z" />
    <glyph glyph-name="y" unicode="y" horiz-adv-x="451" 
d="M421 63l3 -26q-4 -3 -93 -36q-12 -66 -30.5 -130.5t-37 -98t-43.5 -66.5q-50 -66 -135 -66q-42 0 -67 26t-25 71q0 173 290 278l54 190q-86 -129 -155 -159q-34 -16 -71.5 -16t-60 24t-22.5 70t31.5 128.5t70.5 138.5l49 -21q-3 -3 -28 -53q-44 -91 -44 -135t17 -59
t50 -15t74.5 39.5t128.5 156.5l36 -21q-8 -33 -35.5 -119.5t-37.5 -132.5zM277 -15q-63 -29 -111 -66q-90 -68 -90 -132q0 -24 14 -39t35 -15q100 0 152 252z" />
    <glyph glyph-name="z" unicode="z" horiz-adv-x="419" 
d="M355 74l-1 -42q-23 -1 -63 -2t-55.5 -1.5t-42.5 -2.5q-46 -3 -85 -12q-49 -11 -53 -11q-19 0 -38.5 23t-19.5 45q0 42 300 253q-13 1 -59.5 1t-161.5 -20l-6 34q68 41 254 41q39 0 55.5 -6t16.5 -27q0 -23 -26 -42q-5 -4 -16.5 -11t-41.5 -28t-60.5 -43.5t-77.5 -67.5
t-90 -99q138 22 186.5 22t84.5 -4z" />
    <glyph glyph-name="braceleft" unicode="{" horiz-adv-x="291" 
d="M295 713l-7 -62q-66 -37 -84 -136l-14 -84q-19 -104 -80 -147q43 -40 43 -82.5t-35.5 -118t-35.5 -112t17 -66.5l-14 -54q-47 48 -47 111q0 43 29 122t29 112q0 62 -69 96q82 11 108 136q11 53 23 108.5t45.5 105t91.5 71.5z" />
    <glyph glyph-name="bar" unicode="|" horiz-adv-x="164" 
d="M67 -22l-34 -10q10 211 30.5 354t75.5 320l39 -9q-49 -129 -79.5 -330.5t-31.5 -324.5z" />
    <glyph glyph-name="braceright" unicode="}" horiz-adv-x="305" 
d="M-10 -166l21 68q46 42 67 86t23 80t3 70q4 81 78 135q-26 23 -26 57.5t29 114.5t29 123.5t-28 78.5l5 68q73 -45 73 -128q0 -46 -28.5 -133.5t-28.5 -117.5q0 -55 58 -71q-47 -6 -68.5 -36.5t-30 -78t-19.5 -99.5t-49.5 -112t-107.5 -105z" />
    <glyph glyph-name="asciitilde" unicode="~" horiz-adv-x="450" 
d="M392 333l21 -48q-85 -87 -118 -87q-21 0 -41.5 17t-34.5 38t-34 38t-36 17t-33 -10q-23 -16 -69 -58l-15 48q51 45 82.5 65.5t55 20.5t45.5 -16.5t35 -35.5q37 -53 66 -53q15 0 30 15q20 20 46 49z" />
    <glyph glyph-name="exclamdown" unicode="&#xa1;" horiz-adv-x="304" 
d="M202 536l47 -29q-119 -202 -191 -496h-56q84 332 200 525zM288 626.5q13 -12.5 13 -31t-13 -31.5t-31.5 -13t-31 13t-12.5 31.5t12.5 31t31 12.5t31.5 -12.5z" />
    <glyph glyph-name="cent" unicode="&#xa2;" horiz-adv-x="425" 
d="M307 468l38 -10q-4 -8 -24 -50q20 2 34 2t23 -3l-3 -40h-31q-2 0 -44 -6q-49 -117 -80 -262q24 0 63 18.5t66 43.5l24 -20q-29 -50 -77 -79.5t-94 -34.5q-12 -58 -17 -86l-43 4l18 82q-53 6 -86.5 32.5t-33.5 76.5q0 83 70 159t165 104q23 54 32 69zM161 266
q-34 -49 -34 -97.5t52 -63.5q33 139 72 238q-56 -28 -90 -77z" />
    <glyph glyph-name="sterling" unicode="&#xa3;" horiz-adv-x="554" 
d="M162 4l-73 -2q-28 0 -45 7t-17 16.5t10 24.5q43 128 65 174q-68 0 -128 -38l-17 42q49 53 165 53q118 326 350 326q42 0 67 -19t25 -51q0 -53 -49 -95.5t-106 -62.5t-102 -21q-2 9 -4 33q82 13 123.5 44.5t41.5 68.5q0 23 -17.5 38.5t-44.5 15.5q-64 0 -115 -64.5
t-94 -215.5q33 -1 106 -1t100 9l21 -47q-53 -19 -247 -19q-33 -95 -88 -150q147 -10 280 -10q46 0 93 29l21 -33q-27 -36 -51.5 -46.5t-57.5 -10.5z" />
    <glyph glyph-name="yen" unicode="&#xa5;" horiz-adv-x="574" 
d="M161 264l-155 -9l-3 32q34 5 159 12q0 63 -17 160.5t-32 144.5l59 21q23 -45 41 -147.5t18 -170.5q66 93 143 171t145 126l41 -46q-54 -41 -131.5 -116.5t-134.5 -143.5q62 0 143 -9l-6 -36q-106 8 -162 10q-30 -52 -36 -70l186 -10l-6 -36q-65 7 -193 11
q-15 -37 -53 -161l-68 19q43 107 48 143q-33 0 -131 -7l-3 36l140 6q8 53 8 63v7z" />
    <glyph glyph-name="brokenbar" unicode="&#xa6;" horiz-adv-x="172" 
d="M103 387h-39q18 83 51 189l39 -9q-29 -74 -51 -180zM52 267h36q-19 -152 -19 -237l-34 -10q6 146 17 247z" />
    <glyph glyph-name="section" unicode="&#xa7;" horiz-adv-x="610" 
d="M423 516l15 32q45 3 75.5 29t30.5 63q0 46 -61.5 46t-110 -40.5t-48.5 -96.5q0 -28 20 -51t76 -35t85.5 -34.5t29.5 -64.5q0 -62 -53.5 -129t-134.5 -91q39 -25 53 -45t14 -48q0 -59 -47 -109t-112.5 -75.5t-121.5 -25.5t-89.5 19.5t-33.5 58.5q0 53 58 97.5t148 51.5
l-9 -25q-10 -2 -34.5 -14t-39.5 -23t-27.5 -29t-12.5 -38q0 -50 66 -50t126.5 42t60.5 92q0 30 -27.5 52.5t-100.5 37.5q-100 20 -100 93q0 63 66 131.5t144 87.5q-61 22 -72 48q-5 12 -5 30q0 78 86 156t190 78q92 0 92 -71q0 -58 -55 -104t-141 -46zM450 323
q0 34 -25.5 55t-57.5 21q-59 0 -113 -53t-54 -111q0 -35 22.5 -54t59.5 -19q64 0 116 49.5t52 111.5z" />
    <glyph glyph-name="dieresis" unicode="&#xa8;" horiz-adv-x="210" 
d="M-4 443q0 17 11.5 28.5t28 11.5t28 -11.5t11.5 -28t-11.5 -28t-28.5 -11.5t-28 11t-11 28zM123 443q0 17 11.5 28.5t27.5 11.5t28 -11.5t12 -28t-11.5 -28t-28 -11.5t-28 11t-11.5 28z" />
    <glyph glyph-name="copyright" unicode="&#xa9;" horiz-adv-x="486" 
d="M455.5 487q35.5 -34 35.5 -99t-54.5 -158t-141 -162t-160 -69t-105 38.5t-31.5 114.5t54 164.5t139 146.5t168 58q60 0 95.5 -34zM380.5 236.5q34.5 75.5 34.5 132.5t-26 87t-74 30t-103.5 -47.5t-92.5 -120t-37 -134t26 -97t76 -35.5t106 54.5t90.5 130zM311 233l17 -14
q-17 -38 -53.5 -61t-71.5 -23t-57.5 21.5t-22.5 54.5q0 66 71.5 127t150.5 61q10 0 18 -2l-2 -27l-21 -1q-62 -3 -109 -46.5t-47 -91.5q0 -19 13 -32t32 -13q33 0 82 47z" />
    <glyph glyph-name="guillemotleft" unicode="&#xab;" horiz-adv-x="382" 
d="M197 397q-99 -94 -110 -110q23 -38 83 -97l20 -19l-14 -50q-16 6 -130 127l-38 41q147 129 165 138zM356 397q-99 -94 -110 -110q23 -38 84 -97l19 -19l-14 -50q-16 6 -130 127l-38 41q147 129 165 138z" />
    <glyph glyph-name="registered" unicode="&#xae;" horiz-adv-x="495" 
d="M362 523q60 0 95.5 -34t35.5 -99t-54.5 -158t-141 -162t-160 -69t-105 38.5t-31.5 114.5t54 164.5t139 146.5t168 58zM349 179q68 104 68 197q0 52 -26 82t-74 30t-103.5 -47.5t-92.5 -120t-37 -134t26 -97t78 -35.5t112 63q-26 6 -50 44.5t-24 67.5q0 24 54 39
q20 5 37 17.5t17 26.5q0 30 -26 30q-75 -7 -154 -216l-41 16q0 35 80 260h36q-28 -79 -46 -149l25 39q64 101 137 103q21 0 33.5 -13.5t12.5 -36.5q0 -38 -37.5 -67t-76.5 -39q4 -35 19.5 -52t34.5 -17q5 0 18 9z" />
    <glyph glyph-name="macron" unicode="&#xaf;" horiz-adv-x="167" 
d="M247 465v-36l-177 -6l-9 31q33 7 186 11z" />
    <glyph glyph-name="degree" unicode="&#xb0;" horiz-adv-x="186" 
d="M150 488q-39 -34 -79 -34q-77 0 -77 60q0 43 37 76t78 33t60.5 -16t19.5 -42q0 -43 -39 -77zM143 560q0 42 -41 42q-21 0 -39.5 -24.5t-18.5 -60.5t36 -36q25 0 44 24.5t19 54.5z" />
    <glyph glyph-name="plusminus" unicode="&#xb1;" horiz-adv-x="261" 
d="M146 200h-47q2 69 4 95l-93 -11l-12 54q39 8 109 13q8 80 14 112l54 -12l-11 -91h97v-47l-104 -12zM259 165v-47l-239 -23l-12 54q54 11 144 13t107 3z" />
    <glyph glyph-name="acute" unicode="&#xb4;" horiz-adv-x="196" 
d="M192 450l-171 -56l-29 18l132 78z" />
    <glyph glyph-name="mu" unicode="&#xb5;" horiz-adv-x="489" 
d="M466 123l21 -17q-17 -42 -53.5 -71t-66 -29t-46.5 20.5t-17 53.5t11 85q-53 -84 -90 -123.5t-70 -39.5q-23 0 -41 24q-6 9 -8 10q-35 -158 -44 -204l-64 -13q14 88 47 218t72.5 229t62.5 118l48 -21q-41 -66 -62 -130t-21 -85.5t13.5 -34.5t31.5 -13q40 0 99.5 73.5
t121.5 219.5l51 -23q-2 -8 -45.5 -116t-43.5 -129.5t9.5 -32.5t19 -11t14.5 1t10 4t8.5 5t8.5 7l7 8q3 2 8.5 8.5t7.5 8.5z" />
    <glyph glyph-name="periodcentered" unicode="&#xb7;" horiz-adv-x="72" 
d="M-10 324q0 19 13.5 32.5t32.5 13.5t32.5 -13.5t13.5 -32.5t-13.5 -32.5t-32.5 -13.5t-32.5 13.5t-13.5 32.5z" />
    <glyph glyph-name="cedilla" unicode="&#xb8;" horiz-adv-x="179" 
d="M69 -55q24 13 56.5 13t49 -13t16.5 -33q0 -37 -53 -73t-115 -36q-11 0 -24 3l1 24q51 0 86 22t35 46q0 8 -7.5 14t-18 6t-31.5 -14q-24 -13 -31 -13t-12 4t-5 11q0 12 36 83l11 23h38z" />
    <glyph glyph-name="guillemotright" unicode="&#xbb;" horiz-adv-x="392" 
d="M195 289l-131 -167l-26 35q6 22 69 101l21 26q-15 24 -37.5 51t-31.5 43l33 53q55 -70 103 -142zM375 289l-131 -167l-26 35q6 22 69 101l21 26q-15 24 -37.5 51t-31.5 43l33 53q55 -70 103 -142z" />
    <glyph glyph-name="questiondown" unicode="&#xbf;" horiz-adv-x="441" 
d="M294 37.5q-62 -29.5 -112.5 -29.5t-81 26.5t-30.5 69.5q0 71 90 147l65 55q99 84 134 154q7 14 15 26l38 -17q-20 -71 -163 -217q-48 -49 -62 -69.5t-14 -42.5q0 -47 48 -47q61 0 115.5 40t76.5 118l38 -5q0 -65 -47.5 -122t-109.5 -86.5zM458.5 566q-13.5 -12 -33 -12
t-30.5 9.5t-11 27t13.5 30.5t33.5 13q41 0 41 -37q0 -19 -13.5 -31z" />
    <glyph glyph-name="Agrave" unicode="&#xc0;" horiz-adv-x="810" 
d="M756 298l-5 -60q-23 2 -49.5 2t-44.5 -1q-14 -110 -18 -239h-70q-6 26 -6 69t2.5 74.5t6.5 62.5t4 36q-14 1 -66 1t-72 -2q-116 -156 -214 -236.5t-196 -80.5q-48 0 -80.5 29t-32.5 77q0 91 138.5 166t358.5 101q26 40 97 123.5t140 145.5q30 70 47.5 97.5t34.5 27.5
t28 -13t11 -33.5t-22.5 -60t-46.5 -122t-33 -155.5q52 0 88 -9zM246 89q83 79 125 150q-168 -10 -259.5 -63t-91.5 -113q0 -26 17.5 -41t46.5 -15q78 0 162 82zM588 307q7 34 18.5 85.5t13.5 60.5q-48 -46 -67 -67.5t-67 -82.5q17 1 41.5 1.5t40.5 1.5t20 1zM777 726
l-171 56l68 40l132 -78z" />
    <glyph glyph-name="Aacute" unicode="&#xc1;" horiz-adv-x="810" 
d="M756 298l-5 -60q-23 2 -49.5 2t-44.5 -1q-14 -110 -18 -239h-70q-6 26 -6 69t2.5 74.5t6.5 62.5t4 36q-14 1 -66 1t-72 -2q-116 -156 -214 -236.5t-196 -80.5q-48 0 -80.5 29t-32.5 77q0 91 138.5 166t358.5 101q26 40 97 123.5t140 145.5q30 70 47.5 97.5t34.5 27.5
t28 -13t11 -33.5t-22.5 -60t-46.5 -122t-33 -155.5q52 0 88 -9zM246 89q83 79 125 150q-168 -10 -259.5 -63t-91.5 -113q0 -26 17.5 -41t46.5 -15q78 0 162 82zM588 307q7 34 18.5 85.5t13.5 60.5q-48 -46 -67 -67.5t-67 -82.5q17 1 41.5 1.5t40.5 1.5t20 1zM794 777
l-171 -56l-29 18l132 78z" />
    <glyph glyph-name="Acircumflex" unicode="&#xc2;" horiz-adv-x="810" 
d="M756 298l-5 -60q-23 2 -49.5 2t-44.5 -1q-14 -110 -18 -239h-70q-6 26 -6 69t2.5 74.5t6.5 62.5t4 36q-14 1 -66 1t-72 -2q-116 -156 -214 -236.5t-196 -80.5q-48 0 -80.5 29t-32.5 77q0 91 138.5 166t358.5 101q26 40 97 123.5t140 145.5q30 70 47.5 97.5t34.5 27.5
t28 -13t11 -33.5t-22.5 -60t-46.5 -122t-33 -155.5q52 0 88 -9zM246 89q83 79 125 150q-168 -10 -259.5 -63t-91.5 -113q0 -26 17.5 -41t46.5 -15q78 0 162 82zM588 307q7 34 18.5 85.5t13.5 60.5q-48 -46 -67 -67.5t-67 -82.5q17 1 41.5 1.5t40.5 1.5t20 1zM550 750
l147 114q108 -86 129 -108l-30 -24q-85 51 -103 64l-99 -70z" />
    <glyph glyph-name="Atilde" unicode="&#xc3;" horiz-adv-x="810" 
d="M756 298l-5 -60q-23 2 -49.5 2t-44.5 -1q-14 -110 -18 -239h-70q-6 26 -6 69t2.5 74.5t6.5 62.5t4 36q-14 1 -66 1t-72 -2q-116 -156 -214 -236.5t-196 -80.5q-48 0 -80.5 29t-32.5 77q0 91 138.5 166t358.5 101q26 40 97 123.5t140 145.5q30 70 47.5 97.5t34.5 27.5
t28 -13t11 -33.5t-22.5 -60t-46.5 -122t-33 -155.5q52 0 88 -9zM246 89q83 79 125 150q-168 -10 -259.5 -63t-91.5 -113q0 -26 17.5 -41t46.5 -15q78 0 162 82zM588 307q7 34 18.5 85.5t13.5 60.5q-48 -46 -67 -67.5t-67 -82.5q17 1 41.5 1.5t40.5 1.5t20 1zM793 816l23 -19
q-19 -30 -43.5 -51t-45 -21t-44.5 34.5t-44 34.5q-10 0 -20 -7t-15.5 -11t-15.5 -12t-16 -12l-28 26q74 65 99.5 65t54.5 -35t44 -35q10 0 26.5 18t24.5 25z" />
    <glyph glyph-name="Adieresis" unicode="&#xc4;" horiz-adv-x="810" 
d="M756 298l-5 -60q-23 2 -49.5 2t-44.5 -1q-14 -110 -18 -239h-70q-6 26 -6 69t2.5 74.5t6.5 62.5t4 36q-14 1 -66 1t-72 -2q-116 -156 -214 -236.5t-196 -80.5q-48 0 -80.5 29t-32.5 77q0 91 138.5 166t358.5 101q26 40 97 123.5t140 145.5q30 70 47.5 97.5t34.5 27.5
t28 -13t11 -33.5t-22.5 -60t-46.5 -122t-33 -155.5q52 0 88 -9zM246 89q83 79 125 150q-168 -10 -259.5 -63t-91.5 -113q0 -26 17.5 -41t46.5 -15q78 0 162 82zM588 307q7 34 18.5 85.5t13.5 60.5q-48 -46 -67 -67.5t-67 -82.5q17 1 41.5 1.5t40.5 1.5t20 1zM594.5 762.5
q-11.5 11.5 -11.5 28t11.5 28t27.5 11.5t28 -12t12 -28t-11.5 -27.5t-28 -11.5t-28 11.5zM721 762.5q-11 11.5 -11 28t11.5 28t28 11.5t28 -12t11.5 -28t-11.5 -27.5t-28.5 -11.5t-28 11.5z" />
    <glyph glyph-name="Aring" unicode="&#xc5;" horiz-adv-x="810" 
d="M756 298l-5 -60q-23 2 -49.5 2t-44.5 -1q-14 -110 -18 -239h-70q-6 26 -6 69t2.5 74.5t6.5 62.5t4 36q-14 1 -66 1t-72 -2q-116 -156 -214 -236.5t-196 -80.5q-48 0 -80.5 29t-32.5 77q0 91 138.5 166t358.5 101q26 40 97 123.5t140 145.5q30 70 47.5 97.5t34.5 27.5
t28 -13t11 -33.5t-22.5 -60t-46.5 -122t-33 -155.5q52 0 88 -9zM246 89q83 79 125 150q-168 -10 -259.5 -63t-91.5 -113q0 -26 17.5 -41t46.5 -15q78 0 162 82zM588 307q7 34 18.5 85.5t13.5 60.5q-48 -46 -67 -67.5t-67 -82.5q17 1 41.5 1.5t40.5 1.5t20 1zM758.5 832
q15.5 -13 15.5 -39.5t-26 -49.5t-56 -23t-45.5 13.5t-15.5 40.5t25.5 49t56 22t46 -13zM722 759q13 19 13 43t-21 24q-17 0 -31 -19.5t-14 -43t24 -23.5q16 0 29 19z" />
    <glyph glyph-name="AE" unicode="&#xc6;" horiz-adv-x="1177" 
d="M1178 575q0 -50 -47.5 -89t-109 -57t-118.5 -18q-15 0 -22 1v34q2 0 58 9.5t94.5 33.5t38.5 54q0 36 -54 36q-73 0 -138 -50t-65 -105t68 -71q15 -4 20 -8t5 -14t-9.5 -16.5t-43.5 -18.5q-184 -63 -184 -196q0 -27 10 -46q61 78 158 127t187 49q47 0 75 -20.5t28 -56.5
q0 -56 -52 -112t-134.5 -91.5t-164.5 -35.5t-128 30q-1 -1 -8 -16q-21 -39 -35 -55l-33 14q7 28 41 85q-54 40 -54 144q0 51 15 126q-14 1 -66 1t-72 -2q-116 -156 -214 -236.5t-196 -80.5q-48 0 -80.5 29t-32.5 77q0 91 138.5 166t358.5 101q26 40 97 123.5t140 145.5
q30 70 47.5 97.5t34.5 27.5t28 -13t11 -33.5t-19 -53.5q-59 -104 -93 -345q46 37 110 62q-47 39 -47 81q0 57 60 116.5t146.5 96.5t162.5 37q40 0 64 -17.5t24 -46.5zM246 89q83 79 125 150q-168 -10 -259.5 -63t-91.5 -113q0 -26 17.5 -41t46.5 -15q78 0 162 82zM968 170
q-59 0 -137.5 -45t-127.5 -107q40 -45 113.5 -45t144 47.5t70.5 102.5q0 22 -17 34.5t-46 12.5zM588 307q7 34 18.5 85.5t13.5 60.5q-48 -46 -67 -67.5t-67 -82.5q17 1 41.5 1.5t40.5 1.5t20 1z" />
    <glyph glyph-name="Ccedilla" unicode="&#xc7;" horiz-adv-x="628" 
d="M210 -55q24 13 56.5 13t49 -13t16.5 -33q0 -37 -53 -73t-115 -36q-10 0 -24 3l1 24q51 0 86 22t35 46q0 8 -7.5 14t-18 6t-31.5 -14q-24 -13 -31 -13t-12 4t-5 9q0 17 38 90q-59 13 -101.5 59t-42.5 121q0 97 70 206q-51 30 -81 74l27 30q7 -7 19 -21q23 -27 62 -47
q59 82 171.5 149t190.5 67q37 0 57.5 -20.5t20.5 -55.5q0 -78 -93 -144.5t-212 -66.5q-52 0 -110 15q-38 -62 -38 -134.5t40 -117t117 -44.5q138 0 181 161h47q-11 -93 -87.5 -164t-201.5 -71zM280 385q87 0 153 41t66 96q0 19 -13.5 30.5t-34.5 11.5q-61 0 -136 -48.5
t-119 -116.5q36 -14 84 -14z" />
    <glyph glyph-name="Egrave" unicode="&#xc8;" horiz-adv-x="689" 
d="M649 574q0 -50 -47.5 -89t-109 -57t-118.5 -18q-15 0 -22 1v34q2 0 58 9.5t94.5 33.5t38.5 54q0 36 -54 36q-73 0 -138 -50t-65 -105t68 -71q15 -4 20 -8t5 -14t-9.5 -16.5t-43.5 -18.5q-184 -63 -184 -196q0 -27 10 -46q61 78 158 127t187 49q47 0 75 -20.5t28 -56.5
q0 -56 -52 -112t-134.5 -91.5t-164 -35.5t-128.5 30q-1 -1 -9 -15q-20 -40 -34 -56l-33 14q7 28 41 85q-46 52 -46 116.5t52.5 123t146.5 96.5q-47 39 -47 81q0 57 60 116.5t146.5 96.5t162.5 37q40 0 64 -17.5t24 -46.5zM439 169q-59 0 -137.5 -45t-127.5 -107
q40 -45 113.5 -45t144 47.5t70.5 102.5q0 22 -17 34.5t-46 12.5zM568 683l-171 56l68 40l132 -78z" />
    <glyph glyph-name="Eacute" unicode="&#xc9;" horiz-adv-x="689" 
d="M649 574q0 -50 -47.5 -89t-109 -57t-118.5 -18q-15 0 -22 1v34q2 0 58 9.5t94.5 33.5t38.5 54q0 36 -54 36q-73 0 -138 -50t-65 -105t68 -71q15 -4 20 -8t5 -14t-9.5 -16.5t-43.5 -18.5q-184 -63 -184 -196q0 -27 10 -46q61 78 158 127t187 49q47 0 75 -20.5t28 -56.5
q0 -56 -52 -112t-134.5 -91.5t-164 -35.5t-128.5 30q-1 -1 -9 -15q-20 -40 -34 -56l-33 14q7 28 41 85q-46 52 -46 116.5t52.5 123t146.5 96.5q-47 39 -47 81q0 57 60 116.5t146.5 96.5t162.5 37q40 0 64 -17.5t24 -46.5zM439 169q-59 0 -137.5 -45t-127.5 -107
q40 -45 113.5 -45t144 47.5t70.5 102.5q0 22 -17 34.5t-46 12.5zM595 722l-171 -56l-29 18l132 78z" />
    <glyph glyph-name="Ecircumflex" unicode="&#xca;" horiz-adv-x="689" 
d="M649 574q0 -50 -47.5 -89t-109 -57t-118.5 -18q-15 0 -22 1v34q2 0 58 9.5t94.5 33.5t38.5 54q0 36 -54 36q-73 0 -138 -50t-65 -105t68 -71q15 -4 20 -8t5 -14t-9.5 -16.5t-43.5 -18.5q-184 -63 -184 -196q0 -27 10 -46q61 78 158 127t187 49q47 0 75 -20.5t28 -56.5
q0 -56 -52 -112t-134.5 -91.5t-164 -35.5t-128.5 30q-1 -1 -9 -15q-20 -40 -34 -56l-33 14q7 28 41 85q-46 52 -46 116.5t52.5 123t146.5 96.5q-47 39 -47 81q0 57 60 116.5t146.5 96.5t162.5 37q40 0 64 -17.5t24 -46.5zM439 169q-59 0 -137.5 -45t-127.5 -107
q40 -45 113.5 -45t144 47.5t70.5 102.5q0 22 -17 34.5t-46 12.5zM366 682l147 114q108 -86 129 -108l-30 -24q-85 51 -103 64l-99 -70z" />
    <glyph glyph-name="Edieresis" unicode="&#xcb;" horiz-adv-x="689" 
d="M649 574q0 -50 -47.5 -89t-109 -57t-118.5 -18q-15 0 -22 1v34q2 0 58 9.5t94.5 33.5t38.5 54q0 36 -54 36q-73 0 -138 -50t-65 -105t68 -71q15 -4 20 -8t5 -14t-9.5 -16.5t-43.5 -18.5q-184 -63 -184 -196q0 -27 10 -46q61 78 158 127t187 49q47 0 75 -20.5t28 -56.5
q0 -56 -52 -112t-134.5 -91.5t-164 -35.5t-128.5 30q-1 -1 -9 -15q-20 -40 -34 -56l-33 14q7 28 41 85q-46 52 -46 116.5t52.5 123t146.5 96.5q-47 39 -47 81q0 57 60 116.5t146.5 96.5t162.5 37q40 0 64 -17.5t24 -46.5zM439 169q-59 0 -137.5 -45t-127.5 -107
q40 -45 113.5 -45t144 47.5t70.5 102.5q0 22 -17 34.5t-46 12.5zM409 721q0 17 11.5 28.5t27.5 11.5t28 -11.5t12 -28t-11.5 -28t-28 -11.5t-28 11t-11.5 28zM536 721q0 17 11.5 28.5t28 11.5t28 -11.5t11.5 -28t-11.5 -28t-28.5 -11.5t-28 11t-11 28z" />
    <glyph glyph-name="Igrave" unicode="&#xcc;" horiz-adv-x="606" 
d="M599 616q17 -5 17 -18q0 -4 -12 -18q-46 -59 -64.5 -88t-44 -97t-46 -130.5t-20.5 -63.5q-41 -92 -113 -145t-151 -53q-56 0 -90.5 27.5t-34.5 73.5q0 72 93 132t186 60l4 -33q-74 -15 -127.5 -55t-53.5 -87q0 -30 17.5 -49t44.5 -19q51 0 88 47.5t75.5 168.5t70 177
t79.5 94q-14 1 -31 1q-86 0 -167.5 -27t-81.5 -72q0 -28 25 -53l-22 -27q-67 47 -67 109q0 41 35.5 71t95.5 46q115 31 258 31q31 0 37 -3zM553 667l-171 56l68 40l132 -78z" />
    <glyph glyph-name="Iacute" unicode="&#xcd;" horiz-adv-x="606" 
d="M599 616q17 -5 17 -18q0 -4 -12 -18q-46 -59 -64.5 -88t-44 -97t-46 -130.5t-20.5 -63.5q-41 -92 -113 -145t-151 -53q-56 0 -90.5 27.5t-34.5 73.5q0 72 93 132t186 60l4 -33q-74 -15 -127.5 -55t-53.5 -87q0 -30 17.5 -49t44.5 -19q51 0 88 47.5t75.5 168.5t70 177
t79.5 94q-14 1 -31 1q-86 0 -167.5 -27t-81.5 -72q0 -28 25 -53l-22 -27q-67 47 -67 109q0 41 35.5 71t95.5 46q115 31 258 31q31 0 37 -3zM567 728l-171 -56l-29 18l132 78z" />
    <glyph glyph-name="Icircumflex" unicode="&#xce;" horiz-adv-x="606" 
d="M599 616q17 -5 17 -18q0 -4 -12 -18q-46 -59 -64.5 -88t-44 -97t-46 -130.5t-20.5 -63.5q-41 -92 -113 -145t-151 -53q-56 0 -90.5 27.5t-34.5 73.5q0 72 93 132t186 60l4 -33q-74 -15 -127.5 -55t-53.5 -87q0 -30 17.5 -49t44.5 -19q51 0 88 47.5t75.5 168.5t70 177
t79.5 94q-14 1 -31 1q-86 0 -167.5 -27t-81.5 -72q0 -28 25 -53l-22 -27q-67 47 -67 109q0 41 35.5 71t95.5 46q115 31 258 31q31 0 37 -3zM306 688l147 114q108 -86 129 -108l-30 -24q-85 51 -103 64l-99 -70z" />
    <glyph glyph-name="Idieresis" unicode="&#xcf;" horiz-adv-x="606" 
d="M599 616q17 -5 17 -18q0 -4 -12 -18q-46 -59 -64.5 -88t-44 -97t-46 -130.5t-20.5 -63.5q-41 -92 -113 -145t-151 -53q-56 0 -90.5 27.5t-34.5 73.5q0 72 93 132t186 60l4 -33q-74 -15 -127.5 -55t-53.5 -87q0 -30 17.5 -49t44.5 -19q51 0 88 47.5t75.5 168.5t70 177
t79.5 94q-14 1 -31 1q-86 0 -167.5 -27t-81.5 -72q0 -28 25 -53l-22 -27q-67 47 -67 109q0 41 35.5 71t95.5 46q115 31 258 31q31 0 37 -3zM354 723q0 17 11.5 28.5t28 11.5t28 -11.5t11.5 -28t-11.5 -28t-28.5 -11.5t-28 11t-11 28zM481 723q0 17 11.5 28.5t27.5 11.5
t28 -11.5t12 -28t-11.5 -28t-28 -11.5t-28 11t-11.5 28z" />
    <glyph glyph-name="Eth" unicode="&#xd0;" horiz-adv-x="744" 
d="M283 638q174 0 297.5 -103t123.5 -241t-84 -218t-213 -78q-69 1 -110 1h-47q-29 0 -29 22q0 5 25 58t34 76l-109 -16l10 61q64 11 121 17q12 35 21 74q-103 0 -193 57t-90 129.5t68 116.5t175 44zM496 235v-47l-151 -23q-19 -47 -39 -92q100 -8 166.5 -8t105.5 49.5
t39 133.5q0 145 -99 247t-239 102q-66 0 -104 -28t-38 -82.5t52.5 -97t140.5 -53.5q31 131 36 169l60 -6q0 -62 -26 -164q8 0 93 10l5 -33q-20 -7 -111 -21q-16 -51 -21 -66q50 5 130 10z" />
    <glyph glyph-name="Ntilde" unicode="&#xd1;" horiz-adv-x="744" 
d="M686 611l58 -7q-18 -78 -48.5 -182.5t-55.5 -169t-54.5 -128t-62.5 -100t-64 -36.5t-45.5 23t-14.5 81.5t17 246t17.5 204t-8.5 16.5q-11 0 -26 -30.5t-23 -46.5q-21 -47 -27 -66q-56 -126 -100 -208t-101 -152q-20 -24 -57 -49t-69 -38l-22 59q83 35 150 121.5
t138.5 241.5t102.5 209q35 57 71 57q23 0 36 -16t13 -41.5t-17.5 -210.5t-17.5 -237t4.5 -67.5t15.5 -15.5q14 0 30 30q55 107 160 512zM679 781l23 -19q-19 -30 -43.5 -51t-45 -21t-44.5 34.5t-44 34.5q-10 0 -20 -7t-15.5 -11t-15.5 -12t-16 -12l-28 26q74 65 99.5 65
t54.5 -35t44 -35q10 0 26.5 18t24.5 25z" />
    <glyph glyph-name="Ograve" unicode="&#xd2;" horiz-adv-x="714" 
d="M714 492v-48q-45 -26 -166 -71q-54 -135 -171 -251t-214 -116q-55 0 -89 39t-34 107.5t46 165t121 181t153 124.5q32 21 100 21q51 0 83.5 -39.5t32.5 -93t-8 -80.5q76 25 146 61zM317 527q-33 -34 -33 -65.5t32 -50t80.5 -18.5t84.5 9q6 30 6 58q0 99 -85 99
q-39 0 -85 -32zM330 149q98 97 137 202q-25 -5 -64 -5q-168 0 -190 75q-84 -117 -84 -230q0 -45 21.5 -72t63.5 -27q59 0 116 57zM486 675l-171 56l68 40l132 -78z" />
    <glyph glyph-name="Oacute" unicode="&#xd3;" horiz-adv-x="714" 
d="M714 492v-48q-45 -26 -166 -71q-54 -135 -171 -251t-214 -116q-55 0 -89 39t-34 107.5t46 165t121 181t153 124.5q32 21 100 21q51 0 83.5 -39.5t32.5 -93t-8 -80.5q76 25 146 61zM317 527q-33 -34 -33 -65.5t32 -50t80.5 -18.5t84.5 9q6 30 6 58q0 99 -85 99
q-39 0 -85 -32zM330 149q98 97 137 202q-25 -5 -64 -5q-168 0 -190 75q-84 -117 -84 -230q0 -45 21.5 -72t63.5 -27q59 0 116 57zM527 729l-171 -56l-29 18l132 78z" />
    <glyph glyph-name="Ocircumflex" unicode="&#xd4;" horiz-adv-x="714" 
d="M714 492v-48q-45 -26 -166 -71q-54 -135 -171 -251t-214 -116q-55 0 -89 39t-34 107.5t46 165t121 181t153 124.5q32 21 100 21q51 0 83.5 -39.5t32.5 -93t-8 -80.5q76 25 146 61zM317 527q-33 -34 -33 -65.5t32 -50t80.5 -18.5t84.5 9q6 30 6 58q0 99 -85 99
q-39 0 -85 -32zM330 149q98 97 137 202q-25 -5 -64 -5q-168 0 -190 75q-84 -117 -84 -230q0 -45 21.5 -72t63.5 -27q59 0 116 57zM291 694l147 114q108 -86 129 -108l-30 -24q-85 51 -103 64l-99 -70z" />
    <glyph glyph-name="Otilde" unicode="&#xd5;" horiz-adv-x="714" 
d="M714 492v-48q-45 -26 -166 -71q-54 -135 -171 -251t-214 -116q-55 0 -89 39t-34 107.5t46 165t121 181t153 124.5q32 21 100 21q51 0 83.5 -39.5t32.5 -93t-8 -80.5q76 25 146 61zM317 527q-33 -34 -33 -65.5t32 -50t80.5 -18.5t84.5 9q6 30 6 58q0 99 -85 99
q-39 0 -85 -32zM330 149q98 97 137 202q-25 -5 -64 -5q-168 0 -190 75q-84 -117 -84 -230q0 -45 21.5 -72t63.5 -27q59 0 116 57zM545 778l23 -19q-19 -30 -43.5 -51t-45 -21t-44.5 34.5t-44 34.5q-10 0 -20 -7t-15.5 -11t-15.5 -12t-16 -12l-28 26q74 65 99.5 65t54.5 -35
t44 -35q10 0 26.5 18t24.5 25z" />
    <glyph glyph-name="Odieresis" unicode="&#xd6;" horiz-adv-x="714" 
d="M714 492v-48q-45 -26 -166 -71q-54 -135 -171 -251t-214 -116q-55 0 -89 39t-34 107.5t46 165t121 181t153 124.5q32 21 100 21q51 0 83.5 -39.5t32.5 -93t-8 -80.5q76 25 146 61zM317 527q-33 -34 -33 -65.5t32 -50t80.5 -18.5t84.5 9q6 30 6 58q0 99 -85 99
q-39 0 -85 -32zM330 149q98 97 137 202q-25 -5 -64 -5q-168 0 -190 75q-84 -117 -84 -230q0 -45 21.5 -72t63.5 -27q59 0 116 57zM339 690.5q-11 11.5 -11 28t11.5 28t28 11.5t28 -12t11.5 -28t-11.5 -27.5t-28.5 -11.5t-28 11.5zM466.5 690.5q-11.5 11.5 -11.5 28t11.5 28
t27.5 11.5t28 -12t12 -28t-11.5 -27.5t-28 -11.5t-28 11.5z" />
    <glyph glyph-name="multiply" unicode="&#xd7;" horiz-adv-x="261" 
d="M66 206l-29 37q31 29 66 60l-74 58l30 47q35 -24 86 -68q68 55 89 69l30 -46l-76 -60l72 -65l-33 -34l-82 65zM256 165v-47l-220 -30l-12 54q89 17 232 23z" />
    <glyph glyph-name="Oslash" unicode="&#xd8;" horiz-adv-x="549" 
d="M227 -92l-38 7q4 39 14 103q-27 -9 -54 -9q-52 0 -84 38.5t-32 104.5q0 142 95 277t219 181l29 91l39 -9l-21 -68q28 4 43 4q55 0 79 -36.5t24 -86.5q0 -81 -43 -177t-111.5 -175.5t-140.5 -117.5q-11 -61 -18 -127zM183 108q16 0 36 5q37 202 102 415
q-80 -40 -147.5 -140t-67.5 -186q0 -43 22.5 -68.5t54.5 -25.5zM378 542h-10q-72 -237 -107 -411q81 46 144 156t63 189q0 32 -24.5 49t-65.5 17z" />
    <glyph glyph-name="Ugrave" unicode="&#xd9;" horiz-adv-x="721" 
d="M573 78l32 -26q-12 -34 -41 -62.5t-63 -28.5q-46 0 -75 45t-38 130q-46 -50 -115 -94.5t-121 -44.5t-82 35t-30 90q0 125 122 297t247 245l27 -38q-114 -85 -209 -224t-95 -244q0 -39 18.5 -60.5t52 -21.5t93.5 39t90 73q5 97 46.5 197t99 163.5t107.5 63.5q42 0 42 -51
t-75 -170.5t-149 -189.5q-2 -16 -2 -26q0 -44 17.5 -91.5t46.5 -47.5q25 0 54 42zM588 518q-33 0 -73 -77.5t-51 -164.5q62 74 99.5 136.5t37.5 90.5q0 15 -13 15zM632 668l-171 56l68 40l132 -78z" />
    <glyph glyph-name="Uacute" unicode="&#xda;" horiz-adv-x="721" 
d="M573 78l32 -26q-12 -34 -41 -62.5t-63 -28.5q-46 0 -75 45t-38 130q-46 -50 -115 -94.5t-121 -44.5t-82 35t-30 90q0 125 122 297t247 245l27 -38q-114 -85 -209 -224t-95 -244q0 -39 18.5 -60.5t52 -21.5t93.5 39t90 73q5 97 46.5 197t99 163.5t107.5 63.5q42 0 42 -51
t-75 -170.5t-149 -189.5q-2 -16 -2 -26q0 -44 17.5 -91.5t46.5 -47.5q25 0 54 42zM588 518q-33 0 -73 -77.5t-51 -164.5q62 74 99.5 136.5t37.5 90.5q0 15 -13 15zM652 727l-171 -56l-29 18l132 78z" />
    <glyph glyph-name="Ucircumflex" unicode="&#xdb;" horiz-adv-x="721" 
d="M573 78l32 -26q-12 -34 -41 -62.5t-63 -28.5q-46 0 -75 45t-38 130q-46 -50 -115 -94.5t-121 -44.5t-82 35t-30 90q0 125 122 297t247 245l27 -38q-114 -85 -209 -224t-95 -244q0 -39 18.5 -60.5t52 -21.5t93.5 39t90 73q5 97 46.5 197t99 163.5t107.5 63.5q42 0 42 -51
t-75 -170.5t-149 -189.5q-2 -16 -2 -26q0 -44 17.5 -91.5t46.5 -47.5q25 0 54 42zM588 518q-33 0 -73 -77.5t-51 -164.5q62 74 99.5 136.5t37.5 90.5q0 15 -13 15zM430 684l147 114q108 -86 129 -108l-30 -24q-85 51 -103 64l-99 -70z" />
    <glyph glyph-name="Udieresis" unicode="&#xdc;" horiz-adv-x="721" 
d="M573 78l32 -26q-12 -34 -41 -62.5t-63 -28.5q-46 0 -75 45t-38 130q-46 -50 -115 -94.5t-121 -44.5t-82 35t-30 90q0 125 122 297t247 245l27 -38q-114 -85 -209 -224t-95 -244q0 -39 18.5 -60.5t52 -21.5t93.5 39t90 73q5 97 46.5 197t99 163.5t107.5 63.5q42 0 42 -51
t-75 -170.5t-149 -189.5q-2 -16 -2 -26q0 -44 17.5 -91.5t46.5 -47.5q25 0 54 42zM588 518q-33 0 -73 -77.5t-51 -164.5q62 74 99.5 136.5t37.5 90.5q0 15 -13 15zM453 717q0 17 11.5 28.5t27.5 11.5t28 -11.5t12 -28t-11.5 -28t-28 -11.5t-28 11t-11.5 28zM580 717
q0 17 11.5 28.5t28 11.5t28 -11.5t11.5 -28t-11.5 -28t-28.5 -11.5t-28 11t-11 28z" />
    <glyph glyph-name="Yacute" unicode="&#xdd;" horiz-adv-x="680" 
d="M330 9l30 -1q6 21 27.5 80t30.5 78q-104 -98 -161 -118q-31 -11 -63 -11q-53 0 -82 35t-29 98q0 90 83 240.5t189 235.5l40 -37q-222 -239 -222 -399q0 -93 73 -93t142 80t143 248q30 69 46 91t31 22t23.5 -9t8.5 -24q0 -64 -92 -190q-64 -132 -129 -328q47 -3 100 -23
l-10 -34l-106 15q-59 -144 -142.5 -215.5t-199.5 -71.5q-60 0 -100.5 32.5t-40.5 81.5q0 90 121 153.5t289 63.5zM106 -253q81 0 143.5 65.5t92.5 153.5q-134 0 -225 -45.5t-91 -110.5q0 -28 22.5 -45.5t57.5 -17.5zM624 722l-171 -56l-29 18l132 78z" />
    <glyph glyph-name="Thorn" unicode="&#xde;" horiz-adv-x="678" 
d="M388 717l2 -112q0 -77 -6 -113q82 56 112 68.5t70.5 12.5t62.5 -28t22 -80q0 -93 -60 -200t-150 -179.5t-170 -72.5q-20 0 -46 2q-47 -100 -85.5 -148t-79.5 -48q-25 0 -39 18t-14 50q0 103 93 268.5t207 269.5q16 52 16 120l-7 160zM155 87l28 -14q63 123 106 276
q-93 -116 -149.5 -228t-56.5 -175q0 -19 11 -19t32 31.5t36 68.5q-13 6 -25 18zM246 59l19 -1q97 0 182 102q48 59 81.5 135t33.5 129q0 29 -15.5 46t-42.5 17q-49 0 -130 -54q-18 -135 -128 -374z" />
    <glyph glyph-name="germandbls" unicode="&#xdf;" horiz-adv-x="352" 
d="M81 3l-46 10q6 36 75 231t95 233q35 49 83 49q32 0 51 -20.5t19 -61t-28 -83.5t-102 -108q-28 -24 -30 -45q0 -23 25 -60.5t29.5 -48.5t4.5 -37.5t-22.5 -48t-56 -21.5t-60.5 23l16 47q24 -17 46 -17t22 25q0 8 -23.5 55.5t-23.5 57.5q0 39 54 94t73.5 86t19.5 57
q0 45 -26 45q-70 0 -195 -462z" />
    <glyph glyph-name="agrave" unicode="&#xe0;" horiz-adv-x="489" 
d="M449 101l23 -17q-14 -30 -51.5 -57t-68.5 -27q-59 0 -59 62q0 29 15 69l-37 -38q-54 -55 -93.5 -74t-77.5 -19t-57.5 21.5t-19.5 59.5q0 70 54 138.5t138 111.5t168 44l2 -33l-42 -9q-91 -20 -160.5 -80t-69.5 -119.5t48 -59.5q45 0 111 63t110 148l42 -25
q-62 -125 -62 -159q0 -14 9.5 -23.5t19 -9.5t12.5 1t6 2.5t7.5 4.5t8 6t11.5 9t13 10zM346 400l-171 56l68 40l132 -78z" />
    <glyph glyph-name="aacute" unicode="&#xe1;" horiz-adv-x="489" 
d="M449 101l23 -17q-14 -30 -51.5 -57t-68.5 -27q-59 0 -59 62q0 29 15 69l-37 -38q-54 -55 -93.5 -74t-77.5 -19t-57.5 21.5t-19.5 59.5q0 70 54 138.5t138 111.5t168 44l2 -33l-42 -9q-91 -20 -160.5 -80t-69.5 -119.5t48 -59.5q45 0 111 63t110 148l42 -25
q-62 -125 -62 -159q0 -14 9.5 -23.5t19 -9.5t12.5 1t6 2.5t7.5 4.5t8 6t11.5 9t13 10zM384 452l-171 -56l-29 18l132 78z" />
    <glyph glyph-name="acircumflex" unicode="&#xe2;" horiz-adv-x="489" 
d="M449 101l23 -17q-14 -30 -51.5 -57t-68.5 -27q-59 0 -59 62q0 29 15 69l-37 -38q-54 -55 -93.5 -74t-77.5 -19t-57.5 21.5t-19.5 59.5q0 70 54 138.5t138 111.5t168 44l2 -33l-42 -9q-91 -20 -160.5 -80t-69.5 -119.5t48 -59.5q45 0 111 63t110 148l42 -25
q-62 -125 -62 -159q0 -14 9.5 -23.5t19 -9.5t12.5 1t6 2.5t7.5 4.5t8 6t11.5 9t13 10zM152 407l147 114q108 -86 129 -108l-30 -24q-85 51 -103 64l-99 -70z" />
    <glyph glyph-name="atilde" unicode="&#xe3;" horiz-adv-x="489" 
d="M449 101l23 -17q-14 -30 -51.5 -57t-68.5 -27q-59 0 -59 62q0 29 15 69l-37 -38q-54 -55 -93.5 -74t-77.5 -19t-57.5 21.5t-19.5 59.5q0 70 54 138.5t138 111.5t168 44l2 -33l-42 -9q-91 -20 -160.5 -80t-69.5 -119.5t48 -59.5q45 0 111 63t110 148l42 -25
q-62 -125 -62 -159q0 -14 9.5 -23.5t19 -9.5t12.5 1t6 2.5t7.5 4.5t8 6t11.5 9t13 10zM418 493l23 -19q-19 -30 -43.5 -51t-45 -21t-44.5 34.5t-44 34.5q-10 0 -20 -7t-15.5 -11t-15.5 -12t-16 -12l-28 26q74 65 99.5 65t54.5 -35t44 -35q10 0 26.5 18t24.5 25z" />
    <glyph glyph-name="adieresis" unicode="&#xe4;" horiz-adv-x="489" 
d="M449 101l23 -17q-14 -30 -51.5 -57t-68.5 -27q-59 0 -59 62q0 29 15 69l-37 -38q-54 -55 -93.5 -74t-77.5 -19t-57.5 21.5t-19.5 59.5q0 70 54 138.5t138 111.5t168 44l2 -33l-42 -9q-91 -20 -160.5 -80t-69.5 -119.5t48 -59.5q45 0 111 63t110 148l42 -25
q-62 -125 -62 -159q0 -14 9.5 -23.5t19 -9.5t12.5 1t6 2.5t7.5 4.5t8 6t11.5 9t13 10zM223 418.5q-11 11.5 -11 28t11.5 28t28 11.5t28 -12t11.5 -28t-11.5 -27.5t-28.5 -11.5t-28 11.5zM350.5 418.5q-11.5 11.5 -11.5 28t11.5 28t27.5 11.5t28 -12t12 -28t-11.5 -27.5
t-28 -11.5t-28 11.5z" />
    <glyph glyph-name="aring" unicode="&#xe5;" horiz-adv-x="489" 
d="M449 101l23 -17q-14 -30 -51.5 -57t-68.5 -27q-59 0 -59 62q0 29 15 69l-37 -38q-54 -55 -93.5 -74t-77.5 -19t-57.5 21.5t-19.5 59.5q0 70 54 138.5t138 111.5t168 44l2 -33l-42 -9q-91 -20 -160.5 -80t-69.5 -119.5t48 -59.5q45 0 111 63t110 148l42 -25
q-62 -125 -62 -159q0 -14 9.5 -23.5t19 -9.5t12.5 1t6 2.5t7.5 4.5t8 6t11.5 9t13 10zM370.5 523q15.5 -13 15.5 -39.5t-26 -49.5t-56 -23t-45.5 13.5t-15.5 40.5t25.5 49t56 22t46 -13zM334 450q13 19 13 43t-21 24q-17 0 -31 -19.5t-14 -43t24 -23.5q16 0 29 19z" />
    <glyph glyph-name="ae" unicode="&#xe6;" horiz-adv-x="761" 
d="M677 118l23 -18q-31 -43 -85 -71.5t-108.5 -28.5t-86.5 38q-45 -38 -83 -38q-59 0 -59 62q0 29 15 69l-37 -38q-54 -55 -93.5 -74t-77.5 -19t-57.5 21.5t-19.5 59.5q0 70 54 138.5t138 111.5t168 44l2 -33l-42 -9q-91 -20 -160.5 -80t-69.5 -119.5t48 -59.5q45 0 111 63
t110 148l42 -25q-62 -125 -62 -159q0 -14 9.5 -23.5t21.5 -9.5t23 7q-4 15 -4 34q0 92 97.5 181t197.5 89q66 0 66 -52q0 -54 -69.5 -109t-195.5 -100q9 -23 28 -36t39 -13q44 0 117 49zM488 148q81 28 139 70t58 77q0 13 -9.5 23t-23.5 10q-47 0 -101.5 -58.5t-62.5 -121.5
z" />
    <glyph glyph-name="ccedilla" unicode="&#xe7;" horiz-adv-x="385" 
d="M121 -52q24 13 56.5 13t49 -13t16.5 -33q0 -37 -53 -73t-115 -36q-11 0 -24 3l1 24q51 0 86 22t35 46q0 8 -7.5 14t-18 6t-31.5 -14q-24 -13 -31 -13t-12 4t-5 9q0 18 41 97q-41 8 -64.5 37t-23.5 69q0 61 47 124t121.5 104t146.5 41q10 0 30 -2l-3 -39
q-110 -5 -182.5 -67t-72.5 -132q0 -29 18 -47t47 -18q46 0 118 68l24 -20q-23 -53 -73.5 -85.5t-95.5 -35.5z" />
    <glyph glyph-name="egrave" unicode="&#xe8;" horiz-adv-x="401" 
d="M300 118l23 -18q-31 -43 -85 -71.5t-105 -28.5t-82 30t-31 79q0 92 97.5 181t197.5 89q66 0 66 -52q0 -54 -69.5 -109t-195.5 -100q9 -23 28 -36t39 -13q43 0 117 49zM111 148q81 28 139 70t58 77q0 13 -10 23t-23 10q-47 0 -101.5 -58.5t-62.5 -121.5zM322 404l-171 56
l68 40l132 -78z" />
    <glyph glyph-name="eacute" unicode="&#xe9;" horiz-adv-x="401" 
d="M300 118l23 -18q-31 -43 -85 -71.5t-105 -28.5t-82 30t-31 79q0 92 97.5 181t197.5 89q66 0 66 -52q0 -54 -69.5 -109t-195.5 -100q9 -23 28 -36t39 -13q43 0 117 49zM111 148q81 28 139 70t58 77q0 13 -10 23t-23 10q-47 0 -101.5 -58.5t-62.5 -121.5zM366 461l-171 -56
l-29 18l132 78z" />
    <glyph glyph-name="ecircumflex" unicode="&#xea;" horiz-adv-x="401" 
d="M300 118l23 -18q-31 -43 -85 -71.5t-105 -28.5t-82 30t-31 79q0 92 97.5 181t197.5 89q66 0 66 -52q0 -54 -69.5 -109t-195.5 -100q9 -23 28 -36t39 -13q43 0 117 49zM111 148q81 28 139 70t58 77q0 13 -10 23t-23 10q-47 0 -101.5 -58.5t-62.5 -121.5zM104 423l147 114
q108 -86 129 -108l-30 -24q-85 51 -103 64l-99 -70z" />
    <glyph glyph-name="edieresis" unicode="&#xeb;" horiz-adv-x="401" 
d="M300 118l23 -18q-31 -43 -85 -71.5t-105 -28.5t-82 30t-31 79q0 92 97.5 181t197.5 89q66 0 66 -52q0 -54 -69.5 -109t-195.5 -100q9 -23 28 -36t39 -13q43 0 117 49zM111 148q81 28 139 70t58 77q0 13 -10 23t-23 10q-47 0 -101.5 -58.5t-62.5 -121.5zM159 457
q0 17 11.5 28.5t27.5 11.5t28 -11.5t12 -28t-11.5 -28t-28 -11.5t-28 11t-11.5 28zM286 457q0 17 11.5 28.5t28 11.5t28 -11.5t11.5 -28t-11.5 -28t-28.5 -11.5t-28 11t-11 28z" />
    <glyph glyph-name="igrave" unicode="&#xec;" horiz-adv-x="288" 
d="M217 407l-171 56l68 40l132 -78zM211 129l20 -17q-24 -46 -63.5 -78.5t-71.5 -32.5q-56 0 -56 78q0 97 80 253q18 34 21 40l43 -26q-21 -38 -51.5 -121t-30.5 -106.5t10 -33.5t24 -10q27 0 75 54z" />
    <glyph glyph-name="iacute" unicode="&#xed;" horiz-adv-x="288" 
d="M211 129l20 -17q-24 -46 -63.5 -78.5t-71.5 -32.5q-56 0 -56 78q0 97 80 253q18 34 21 40l43 -26q-21 -38 -51.5 -121t-30.5 -106.5t10 -33.5t24 -10q27 0 75 54zM273 463l-171 -56l-29 18l132 78z" />
    <glyph glyph-name="icircumflex" unicode="&#xee;" horiz-adv-x="288" 
d="M211 129l20 -17q-24 -46 -63.5 -78.5t-71.5 -32.5q-56 0 -56 78q0 97 80 253q18 34 21 40l43 -26q-21 -38 -51.5 -121t-30.5 -106.5t10 -33.5t24 -10q27 0 75 54zM18 413l147 114q108 -86 129 -108l-30 -24q-85 51 -103 64l-99 -70z" />
    <glyph glyph-name="idieresis" unicode="&#xef;" horiz-adv-x="288" 
d="M211 129l20 -17q-24 -46 -63.5 -78.5t-71.5 -32.5q-56 0 -56 78q0 97 80 253q18 34 21 40l43 -26q-21 -38 -51.5 -121t-30.5 -106.5t10 -33.5t24 -10q27 0 75 54zM60 451q0 17 11.5 28.5t28 11.5t28 -11.5t11.5 -28t-11.5 -28t-28.5 -11.5t-28 11t-11 28zM187 451
q0 17 11.5 28.5t27.5 11.5t28 -11.5t12 -28t-11.5 -28t-28 -11.5t-28 11t-11.5 28z" />
    <glyph glyph-name="eth" unicode="&#xf0;" horiz-adv-x="371" 
d="M298 528l17 -49l-83 -21q52 -72 79 -130t27 -123q0 -86 -59.5 -145t-139.5 -59q-58 0 -90.5 33.5t-32.5 97t41 125.5t104 93l13 -39q-77 -48 -77 -136q0 -43 21 -69.5t59 -26.5t70 28.5t32 81.5t-27 112.5t-81 141.5l-101 -25l-18 52q34 12 87 25l-41 60l28 70
q5 -10 71 -116q32 7 101 19z" />
    <glyph glyph-name="ntilde" unicode="&#xf1;" horiz-adv-x="484" 
d="M439 121l21 -16q-22 -44 -60.5 -74t-69.5 -30t-49 18t-18 45t34.5 94.5t34.5 99.5q0 14 -11.5 25.5t-27.5 11.5q-51 0 -103 -77.5t-116 -223.5l-60 21q19 116 54.5 226.5t65.5 158.5l41 -13q-28 -71 -71 -245q138 236 254 236q25 0 41.5 -17t16.5 -40t-6 -41.5t-37.5 -86
t-31.5 -84.5t10 -26.5t19 -9.5t15 3t13.5 9t13.5 11t14.5 13.5t12.5 11.5zM355 497l23 -19q-19 -30 -43.5 -51t-45 -21t-44.5 34.5t-44 34.5q-10 0 -20 -7t-15.5 -11t-15.5 -12t-16 -12l-28 26q74 65 99.5 65t54.5 -35t44 -35q10 0 26.5 18t24.5 25z" />
    <glyph glyph-name="ograve" unicode="&#xf2;" 
d="M305 297q26 -43 26 -95q0 -81 -56 -144.5t-132 -63.5q-58 0 -90.5 33.5t-32.5 92.5q0 95 74 170.5t166 75.5q17 0 24 -1l3 -33q-80 0 -133 -46t-53 -118q0 -43 21 -69.5t61.5 -26.5t64.5 36t24 84.5t-19 88.5zM274 394l-171 56l68 40l132 -78z" />
    <glyph glyph-name="oacute" unicode="&#xf3;" 
d="M305 297q26 -43 26 -95q0 -81 -56 -144.5t-132 -63.5q-58 0 -90.5 33.5t-32.5 92.5q0 95 74 170.5t166 75.5q17 0 24 -1l3 -33q-80 0 -133 -46t-53 -118q0 -43 21 -69.5t61.5 -26.5t64.5 36t24 84.5t-19 88.5zM306 449l-171 -56l-29 18l132 78z" />
    <glyph glyph-name="ocircumflex" unicode="&#xf4;" 
d="M305 297q26 -43 26 -95q0 -81 -56 -144.5t-132 -63.5q-58 0 -90.5 33.5t-32.5 92.5q0 95 74 170.5t166 75.5q17 0 24 -1l3 -33q-80 0 -133 -46t-53 -118q0 -43 21 -69.5t61.5 -26.5t64.5 36t24 84.5t-19 88.5zM68 407l147 114q108 -86 129 -108l-30 -24q-85 51 -103 64
l-99 -70z" />
    <glyph glyph-name="otilde" unicode="&#xf5;" 
d="M305 297q26 -43 26 -95q0 -81 -56 -144.5t-132 -63.5q-58 0 -90.5 33.5t-32.5 92.5q0 95 74 170.5t166 75.5q17 0 24 -1l3 -33q-80 0 -133 -46t-53 -118q0 -43 21 -69.5t61.5 -26.5t64.5 36t24 84.5t-19 88.5zM315 498l23 -19q-19 -30 -43.5 -51t-45 -21t-44.5 34.5
t-44 34.5q-10 0 -20 -7t-15.5 -11t-15.5 -12t-16 -12l-28 26q74 65 99.5 65t54.5 -35t44 -35q10 0 26.5 18t24.5 25z" />
    <glyph glyph-name="odieresis" unicode="&#xf6;" 
d="M305 297q26 -43 26 -95q0 -81 -56 -144.5t-132 -63.5q-58 0 -90.5 33.5t-32.5 92.5q0 95 74 170.5t166 75.5q17 0 24 -1l3 -33q-80 0 -133 -46t-53 -118q0 -43 21 -69.5t61.5 -26.5t64.5 36t24 84.5t-19 88.5zM111 445q0 17 11.5 28.5t27.5 11.5t28 -11.5t12 -28
t-11.5 -28t-28 -11.5t-28 11t-11.5 28zM238 445q0 17 11.5 28.5t28 11.5t28 -11.5t11.5 -28t-11.5 -28t-28.5 -11.5t-28 11t-11 28z" />
    <glyph glyph-name="divide" unicode="&#xf7;" horiz-adv-x="252" 
d="M241 292v-47l-230 -30l-12 54q87 17 242 23zM101 336.5q-11 11.5 -10.5 28t11 28t27.5 11.5t28.5 -12t11.5 -28t-11.5 -27.5t-28.5 -11.5t-28 11.5zM83 149q0 17 11.5 28.5t27.5 11.5t28 -11.5t12 -28t-11.5 -28t-28 -11.5t-28 11t-11.5 28z" />
    <glyph glyph-name="oslash" unicode="&#xf8;" horiz-adv-x="391" 
d="M263 365l17 1q17 0 24 -1l3 -33q-24 0 -54 -7q-30 -118 -44 -252q35 5 59 36.5t24 75.5q0 22 -8 52.5t-11 43.5l52 16q12 -15 19 -43t7 -45q0 -76 -42 -135t-106 -75q-3 -42 -3 -79l-34 -10q1 34 5 84h-8q-58 0 -90.5 33.5t-32.5 92.5q0 79 54 147.5t130 90.5
q17 67 35 123l39 -9q-21 -56 -35 -107zM145.5 253.5q-24.5 -37.5 -24.5 -79.5q0 -84 56 -99q12 129 36 237q-43 -21 -67.5 -58.5z" />
    <glyph glyph-name="ugrave" unicode="&#xf9;" horiz-adv-x="460" 
d="M421 110l21 -17q-17 -42 -53.5 -71t-66 -29t-46.5 20.5t-17 53.5t11 85q-47 -74 -101 -116t-91 -42q-56 0 -56 80q0 68 46 174t67 123l48 -21q-41 -66 -62 -130t-21 -85.5t13.5 -34.5t31.5 -13q40 0 99.5 73.5t121.5 219.5l51 -23q-2 -8 -45.5 -116t-43.5 -129.5
t9.5 -32.5t19 -11t14.5 1t10 4t8.5 5t8.5 7l8 7q2 3 7.5 9.5t7.5 8.5zM332 397l-171 56l68 40l132 -78z" />
    <glyph glyph-name="uacute" unicode="&#xfa;" horiz-adv-x="460" 
d="M421 110l21 -17q-17 -42 -53.5 -71t-66 -29t-46.5 20.5t-17 53.5t11 85q-47 -74 -101 -116t-91 -42q-56 0 -56 80q0 68 46 174t67 123l48 -21q-41 -66 -62 -130t-21 -85.5t13.5 -34.5t31.5 -13q40 0 99.5 73.5t121.5 219.5l51 -23q-2 -8 -45.5 -116t-43.5 -129.5
t9.5 -32.5t19 -11t14.5 1t10 4t8.5 5t8.5 7l8 7q2 3 7.5 9.5t7.5 8.5zM365 456l-171 -56l-29 18l132 78z" />
    <glyph glyph-name="ucircumflex" unicode="&#xfb;" horiz-adv-x="460" 
d="M421 110l21 -17q-17 -42 -53.5 -71t-66 -29t-46.5 20.5t-17 53.5t11 85q-47 -74 -101 -116t-91 -42q-56 0 -56 80q0 68 46 174t67 123l48 -21q-41 -66 -62 -130t-21 -85.5t13.5 -34.5t31.5 -13q40 0 99.5 73.5t121.5 219.5l51 -23q-2 -8 -45.5 -116t-43.5 -129.5
t9.5 -32.5t19 -11t14.5 1t10 4t8.5 5t8.5 7l8 7q2 3 7.5 9.5t7.5 8.5zM129 416l147 114q108 -86 129 -108l-30 -24q-85 51 -103 64l-99 -70z" />
    <glyph glyph-name="udieresis" unicode="&#xfc;" horiz-adv-x="460" 
d="M421 110l21 -17q-17 -42 -53.5 -71t-66 -29t-46.5 20.5t-17 53.5t11 85q-47 -74 -101 -116t-91 -42q-56 0 -56 80q0 68 46 174t67 123l48 -21q-41 -66 -62 -130t-21 -85.5t13.5 -34.5t31.5 -13q40 0 99.5 73.5t121.5 219.5l51 -23q-2 -8 -45.5 -116t-43.5 -129.5
t9.5 -32.5t19 -11t14.5 1t10 4t8.5 5t8.5 7l8 7q2 3 7.5 9.5t7.5 8.5zM179 453q0 17 11.5 28.5t27.5 11.5t28 -11.5t12 -28t-11.5 -28t-28 -11.5t-28 11t-11.5 28zM306 453q0 17 11.5 28.5t28 11.5t28 -11.5t11.5 -28t-11.5 -28t-28.5 -11.5t-28 11t-11 28z" />
    <glyph glyph-name="yacute" unicode="&#xfd;" horiz-adv-x="471" 
d="M431 63l3 -26q-4 -3 -93 -36q-12 -66 -30.5 -130.5t-37 -98t-43.5 -66.5q-50 -66 -135 -66q-42 0 -67 26t-25 71q0 173 290 278l54 190q-86 -129 -155 -159q-34 -16 -71.5 -16t-60 24t-22.5 70t31.5 128.5t70.5 138.5l49 -21q-3 -3 -28 -53q-44 -91 -44 -135t17 -59
t50 -15t74.5 39.5t128.5 156.5l36 -21q-8 -33 -35.5 -119.5t-37.5 -132.5zM287 -15q-63 -29 -111 -66q-90 -68 -90 -132q0 -24 14 -39t35 -15q100 0 152 252zM418 450l-171 -56l-29 18l132 78z" />
    <glyph glyph-name="thorn" unicode="&#xfe;" horiz-adv-x="515" 
d="M301 339.5q56 41.5 98 41.5t65 -25.5t23 -64.5q0 -108 -77.5 -199.5t-174.5 -91.5q-43 0 -68 15l24 43q53 -7 65 -7q54 0 101 63t47 129q0 25 -14.5 41.5t-37.5 16.5q-56 0 -109.5 -70.5t-97 -182.5t-90.5 -279l-60 21q4 40 40 150q100 306 100 490q0 50 -8 106l50 25
q25 -61 25 -115.5t-14.5 -141t-18.5 -120.5q76 114 132 155.5z" />
    <glyph glyph-name="ydieresis" unicode="&#xff;" horiz-adv-x="471" 
d="M431 63l3 -26q-4 -3 -93 -36q-12 -66 -30.5 -130.5t-37 -98t-43.5 -66.5q-50 -66 -135 -66q-42 0 -67 26t-25 71q0 173 290 278l54 190q-86 -129 -155 -159q-34 -16 -71.5 -16t-60 24t-22.5 70t31.5 128.5t70.5 138.5l49 -21q-3 -3 -28 -53q-44 -91 -44 -135t17 -59
t50 -15t74.5 39.5t128.5 156.5l36 -21q-8 -33 -35.5 -119.5t-37.5 -132.5zM287 -15q-63 -29 -111 -66q-90 -68 -90 -132q0 -24 14 -39t35 -15q100 0 152 252zM241 400.5q-11 11.5 -11 28t11.5 28t28 11.5t28 -12t11.5 -28t-11.5 -27.5t-28.5 -11.5t-28 11.5zM368.5 400.5
q-11.5 11.5 -11.5 28t11.5 28t27.5 11.5t28 -12t12 -28t-11.5 -27.5t-28 -11.5t-28 11.5z" />
    <glyph glyph-name="Amacron" unicode="&#x100;" horiz-adv-x="780" 
d="M741 298l-5 -60q-23 2 -49.5 2t-44.5 -1q-14 -110 -18 -239h-70q-6 26 -6 69t2.5 74.5t6.5 62.5t4 36q-14 1 -66 1t-72 -2q-116 -156 -214 -236.5t-196 -80.5q-48 0 -80.5 29t-32.5 77q0 91 138.5 166t358.5 101q26 40 97 123.5t140 145.5q30 70 47.5 97.5t34.5 27.5
t28 -13t11 -33.5t-22.5 -60t-46.5 -122t-33 -155.5q52 0 88 -9zM231 89q83 79 125 150q-168 -10 -259.5 -63t-91.5 -113q0 -26 17.5 -41t46.5 -15q78 0 162 82zM573 307q7 34 18.5 85.5t13.5 60.5q-48 -46 -67 -67.5t-67 -82.5q17 1 41.5 1.5t40.5 1.5t20 1zM732 779v-36
l-177 -6l-9 31q33 7 186 11z" />
    <glyph glyph-name="amacron" unicode="&#x101;" horiz-adv-x="459" 
d="M434 101l23 -17q-14 -30 -51.5 -57t-68.5 -27q-59 0 -59 62q0 29 15 69l-37 -38q-54 -55 -93.5 -74t-77.5 -19t-57.5 21.5t-19.5 59.5q0 70 54 138.5t138 111.5t168 44l2 -33l-42 -9q-91 -20 -160.5 -80t-69.5 -119.5t48 -59.5q45 0 111 63t110 148l42 -25
q-62 -125 -62 -159q0 -14 9.5 -23.5t19 -9.5t12.5 1t6 2.5t7.5 4.5t8 6t11.5 9t13 10zM411 481v-36l-177 -6l-9 31q33 7 186 11z" />
    <glyph glyph-name="Abreve" unicode="&#x102;" horiz-adv-x="810" 
d="M756 298l-5 -60q-23 2 -49.5 2t-44.5 -1q-14 -110 -18 -239h-70q-6 26 -6 69t2.5 74.5t6.5 62.5t4 36q-14 1 -66 1t-72 -2q-116 -156 -214 -236.5t-196 -80.5q-48 0 -80.5 29t-32.5 77q0 91 138.5 166t358.5 101q26 40 97 123.5t140 145.5q30 70 47.5 97.5t34.5 27.5
t28 -13t11 -33.5t-22.5 -60t-46.5 -122t-33 -155.5q52 0 88 -9zM246 89q83 79 125 150q-168 -10 -259.5 -63t-91.5 -113q0 -26 17.5 -41t46.5 -15q78 0 162 82zM588 307q7 34 18.5 85.5t13.5 60.5q-48 -46 -67 -67.5t-67 -82.5q17 1 41.5 1.5t40.5 1.5t20 1zM751 810l30 -16
q-20 -31 -51.5 -55t-62.5 -24t-65 23.5t-55 47.5l32 27q52 -51 85 -51q51 0 87 48z" />
    <glyph glyph-name="abreve" unicode="&#x103;" horiz-adv-x="489" 
d="M449 101l23 -17q-14 -30 -51.5 -57t-68.5 -27q-59 0 -59 62q0 29 15 69l-37 -38q-54 -55 -93.5 -74t-77.5 -19t-57.5 21.5t-19.5 59.5q0 70 54 138.5t138 111.5t168 44l2 -33l-42 -9q-91 -20 -160.5 -80t-69.5 -119.5t48 -59.5q45 0 111 63t110 148l42 -25
q-62 -125 -62 -159q0 -14 9.5 -23.5t19 -9.5t12.5 1t6 2.5t7.5 4.5t8 6t11.5 9t13 10zM425 509l30 -16q-20 -31 -51.5 -55t-62.5 -24t-65 23.5t-55 47.5l32 27q52 -51 85 -51q51 0 87 48z" />
    <glyph glyph-name="Aogonek" unicode="&#x104;" horiz-adv-x="810" 
d="M683 -70l20 -16q-30 -40 -82.5 -71t-84 -31t-48 13.5t-16.5 32.5q0 39 29 85.5t64 78.5q-2 22 -2 56t2.5 65.5t6.5 62.5t4 36q-14 1 -66 1t-72 -2q-116 -156 -214 -236.5t-196 -80.5q-48 0 -80.5 29t-32.5 77q0 91 138.5 166t358.5 101q26 40 97 123.5t140 145.5
q30 70 47.5 97.5t34.5 27.5t28 -13t11 -33.5t-22.5 -60t-46.5 -122t-33 -155.5q52 0 88 -9l-5 -60q-23 2 -49.5 2t-44.5 -1q-14 -110 -18 -239h-39q-42 -58 -42 -87q0 -8 7 -16t23 -8q36 0 95 41zM246 89q83 79 125 150q-168 -10 -259.5 -63t-91.5 -113q0 -26 17.5 -41
t46.5 -15q78 0 162 82zM588 307q7 34 18.5 85.5t13.5 60.5q-48 -46 -67 -67.5t-67 -82.5q17 1 41.5 1.5t40.5 1.5t20 1z" />
    <glyph glyph-name="aogonek" unicode="&#x105;" horiz-adv-x="489" 
d="M420 -67l20 -16q-30 -40 -82.5 -71t-84 -31t-48 13.5t-16.5 32.5q0 39 28.5 85.5t63.5 77.5q-8 15 -8 41t15 66l-37 -38q-54 -55 -93.5 -74t-77.5 -19t-57.5 21.5t-19.5 59.5q0 70 54 138.5t138 111.5t168 44l2 -33l-42 -9q-91 -20 -160.5 -80t-69.5 -119.5t48 -59.5
q45 0 111 63t110 148l42 -25q-62 -125 -62 -159q0 -14 9.5 -23.5t19 -9.5t12.5 1t6 2.5t7.5 4.5t8 6t11.5 9t13 10l23 -17q-14 -30 -51.5 -57t-68.5 -27q-11 0 -16 1q-17 -23 -29 -48.5t-12 -35t7 -17.5t23 -8q36 0 95 41z" />
    <glyph glyph-name="Cacute" unicode="&#x106;" horiz-adv-x="628" 
d="M510 632q37 0 57.5 -20.5t20.5 -55.5q0 -78 -93 -144.5t-212 -66.5q-52 0 -110 15q-38 -62 -38 -134.5t40 -117t117 -44.5q138 0 181 161h47q-11 -93 -87.5 -164t-201.5 -71q-66 0 -123 48.5t-57 140.5t70 201q-51 30 -81 74l27 30q7 -7 19 -21q23 -27 62 -47
q59 82 171.5 149t190.5 67zM280 385q87 0 153 41t66 96q0 19 -13.5 30.5t-34.5 11.5q-61 0 -136 -48.5t-119 -116.5q36 -14 84 -14zM524 724l-171 -56l-29 18l132 78z" />
    <glyph glyph-name="cacute" unicode="&#x107;" horiz-adv-x="385" 
d="M291 142l24 -20q-24 -55 -77 -88t-102.5 -33t-82 31t-32.5 85t47 117t121.5 104t146.5 41q10 0 30 -2l-3 -39q-110 -5 -182.5 -67t-72.5 -132q0 -29 18 -47t47 -18q46 0 118 68zM379 464l-171 -56l-29 18l132 78z" />
    <glyph glyph-name="Ccircumflex" unicode="&#x108;" horiz-adv-x="598" 
d="M495 632q37 0 57.5 -20.5t20.5 -55.5q0 -78 -93 -144.5t-212 -66.5q-52 0 -110 15q-38 -62 -38 -134.5t40 -117t117 -44.5q138 0 181 161h47q-11 -93 -87.5 -164t-201.5 -71q-66 0 -123 48.5t-57 140.5t70 201q-51 30 -81 74l27 30q7 -7 19 -21q23 -27 62 -47
q59 82 171.5 149t190.5 67zM265 385q87 0 153 41t66 96q0 19 -13.5 30.5t-34.5 11.5q-61 0 -136 -48.5t-119 -116.5q36 -14 84 -14zM275 675l147 114q108 -86 129 -108l-30 -24q-85 51 -103 64l-99 -70z" />
    <glyph glyph-name="ccircumflex" unicode="&#x109;" horiz-adv-x="355" 
d="M276 142l24 -20q-24 -55 -77 -88t-102.5 -33t-82 31t-32.5 85t47 117t121.5 104t146.5 41q10 0 30 -2l-3 -39q-110 -5 -182.5 -67t-72.5 -132q0 -29 18.5 -47t46.5 -18q46 0 118 68zM85 430l147 114q108 -86 129 -108l-30 -24q-85 51 -103 64l-99 -70z" />
    <glyph glyph-name="Cdotaccent" unicode="&#x10a;" horiz-adv-x="598" 
d="M495 632q37 0 57.5 -20.5t20.5 -55.5q0 -78 -93 -144.5t-212 -66.5q-52 0 -110 15q-38 -62 -38 -134.5t40 -117t117 -44.5q138 0 181 161h47q-11 -93 -87.5 -164t-201.5 -71q-66 0 -123 48.5t-57 140.5t70 201q-51 30 -81 74l27 30q7 -7 19 -21q23 -27 62 -47
q59 82 171.5 149t190.5 67zM265 385q87 0 153 41t66 96q0 19 -13.5 30.5t-34.5 11.5q-61 0 -136 -48.5t-119 -116.5q36 -14 84 -14zM381 735q0 17 11.5 28.5t27.5 11.5t28 -11.5t12 -28t-11.5 -28t-28 -11.5t-28 11t-11.5 28z" />
    <glyph glyph-name="cdotaccent" unicode="&#x10b;" horiz-adv-x="355" 
d="M276 142l24 -20q-24 -55 -77 -88t-102.5 -33t-82 31t-32.5 85t47 117t121.5 104t146.5 41q10 0 30 -2l-3 -39q-110 -5 -182.5 -67t-72.5 -132q0 -29 18.5 -47t46.5 -18q46 0 118 68zM245 448.5q-11 11.5 -11 28t11.5 28t28 11.5t28 -12t11.5 -28t-11.5 -27.5t-28.5 -11.5
t-28 11.5z" />
    <glyph glyph-name="Ccaron" unicode="&#x10c;" horiz-adv-x="628" 
d="M510 632q37 0 57.5 -20.5t20.5 -55.5q0 -78 -93 -144.5t-212 -66.5q-52 0 -110 15q-38 -62 -38 -134.5t40 -117t117 -44.5q138 0 181 161h47q-11 -93 -87.5 -164t-201.5 -71q-66 0 -123 48.5t-57 140.5t70 201q-51 30 -81 74l27 30q7 -7 19 -21q23 -27 62 -47
q59 82 171.5 149t190.5 67zM280 385q87 0 153 41t66 96q0 19 -13.5 30.5t-34.5 11.5q-61 0 -136 -48.5t-119 -116.5q36 -14 84 -14zM435 665l-147 114l44 24q55 -42 99 -70q18 13 103 64l30 -24q-15 -17 -102 -86z" />
    <glyph glyph-name="ccaron" unicode="&#x10d;" horiz-adv-x="385" 
d="M291 142l24 -20q-24 -55 -77 -88t-102.5 -33t-82 31t-32.5 85t47 117t121.5 104t146.5 41q10 0 30 -2l-3 -39q-110 -5 -182.5 -67t-72.5 -132q0 -29 18 -47t47 -18q46 0 118 68zM263 406l-147 114l44 24q55 -42 99 -70q18 13 103 64l30 -24q-15 -17 -102 -86z" />
    <glyph glyph-name="Dcaron" unicode="&#x10e;" horiz-adv-x="704" 
d="M243 638q174 0 297.5 -103t123.5 -241t-84 -218t-213 -78q-69 1 -110 1h-47q-29 0 -29 22q0 8 17 41q56 112 85 229q-103 0 -193 57t-90 129.5t68 116.5t175 44zM239 597q-66 0 -104 -28t-38 -82.5t52.5 -97t140.5 -53.5q31 131 36 169l60 -6q0 -62 -26 -164q8 0 93 10
l5 -33q-20 -7 -111 -21q-39 -126 -81 -218q100 -8 166.5 -8t105.5 49.5t39 133.5q0 145 -99 247t-239 102zM361 657l-147 114l44 24q55 -42 99 -70q18 13 103 64l30 -24q-15 -17 -102 -86z" />
    <glyph glyph-name="dcaron" unicode="&#x10f;" horiz-adv-x="662" 
d="M584 739l51 -18l-14 -26q-110 -205 -187 -397q-51 -126 -51 -189q0 -16 8 -25.5t25.5 -9.5t40.5 23l18 -17q-13 -29 -45 -53.5t-62 -24.5q-58 0 -58 68q0 40 22 123q-118 -206 -231 -206q-39 0 -62 24t-23 65q0 65 52 135t128 114.5t142 44.5l3 -35q-86 -11 -160.5 -74.5
t-74.5 -129.5q0 -28 15 -44.5t39 -16.5q49 0 128 105q29 38 66.5 111t60 117.5t44 87t56.5 112t69 136.5zM563.5 512.5q13.5 12.5 33 12.5t30.5 -11.5t11 -30.5q0 -44 -76 -99l-22 32q40 32 41 34q-31 10 -31 32q0 18 13.5 30.5z" />
    <glyph glyph-name="Dcroat" unicode="&#x110;" horiz-adv-x="744" 
d="M283 638q174 0 297.5 -103t123.5 -241t-84 -218t-213 -78q-69 1 -110 1h-47q-29 0 -29 22q0 5 25 58t34 76l-109 -16l10 61q64 11 121 17q12 35 21 74q-103 0 -193 57t-90 129.5t68 116.5t175 44zM496 235v-47l-151 -23q-19 -47 -39 -92q100 -8 166.5 -8t105.5 49.5
t39 133.5q0 145 -99 247t-239 102q-66 0 -104 -28t-38 -82.5t52.5 -97t140.5 -53.5q31 131 36 169l60 -6q0 -62 -26 -164q8 0 93 10l5 -33q-20 -7 -111 -21q-16 -51 -21 -66q50 5 130 10z" />
    <glyph glyph-name="dcroat" unicode="&#x111;" horiz-adv-x="579" 
d="M625 566v-48l-100 -12q-142 -292 -142 -397q0 -16 8 -25.5t25.5 -9.5t40.5 23l18 -17q-13 -29 -45 -53.5t-62 -24.5q-58 0 -58 68q0 40 22 123q-118 -206 -231 -206q-39 0 -62 24t-23 65q0 65 52 135t128 114.5t142 44.5l3 -35q-86 -11 -160.5 -74.5t-74.5 -129.5
q0 -28 15 -44.5t39 -16.5q49 0 128 105q23 29 50.5 80.5t124.5 243.5l-94 -10l-14 55q70 11 138 15l91 180l51 -18l-11 -19q-10 -20 -30.5 -60t-40.5 -79z" />
    <glyph glyph-name="Emacron" unicode="&#x112;" horiz-adv-x="659" 
d="M634 574q0 -50 -47.5 -89t-109 -57t-118.5 -18q-15 0 -22 1v34q2 0 58 9.5t94.5 33.5t38.5 54q0 36 -54 36q-73 0 -138 -50t-65 -105t68 -71q15 -4 20 -8t5 -14t-9.5 -16.5t-43.5 -18.5q-184 -63 -184 -196q0 -27 10 -46q61 78 158 127t187 49q47 0 75 -20.5t28 -56.5
q0 -56 -52 -112t-134.5 -91.5t-164.5 -35.5t-128 30q-1 -1 -8 -15q-21 -40 -35 -56l-33 14q7 28 41 85q-46 52 -46 116.5t52.5 123t146.5 96.5q-47 39 -47 81q0 57 60 116.5t146.5 96.5t162.5 37q40 0 64 -17.5t24 -46.5zM424 169q-59 0 -137.5 -45t-127.5 -107
q40 -45 113.5 -45t144 47.5t70.5 102.5q0 22 -17 34.5t-46 12.5zM563 755v-36l-177 -6l-9 31q33 7 186 11z" />
    <glyph glyph-name="emacron" unicode="&#x113;" horiz-adv-x="371" 
d="M285 118l23 -18q-31 -43 -85 -71.5t-105 -28.5t-82 30t-31 79q0 92 97.5 181t197.5 89q66 0 66 -52q0 -54 -69.5 -109t-195.5 -100q9 -23 28 -36t39 -13q44 0 117 49zM96 148q81 28 139 70t58 77q0 13 -9.5 23t-23.5 10q-47 0 -101.5 -58.5t-62.5 -121.5zM329 459v-36
l-177 -6l-9 31q33 7 186 11z" />
    <glyph glyph-name="Ebreve" unicode="&#x114;" horiz-adv-x="659" 
d="M634 574q0 -50 -47.5 -89t-109 -57t-118.5 -18q-15 0 -22 1v34q2 0 58 9.5t94.5 33.5t38.5 54q0 36 -54 36q-73 0 -138 -50t-65 -105t68 -71q15 -4 20 -8t5 -14t-9.5 -16.5t-43.5 -18.5q-184 -63 -184 -196q0 -27 10 -46q61 78 158 127t187 49q47 0 75 -20.5t28 -56.5
q0 -56 -52 -112t-134.5 -91.5t-164.5 -35.5t-128 30q-1 -1 -8 -15q-21 -40 -35 -56l-33 14q7 28 41 85q-46 52 -46 116.5t52.5 123t146.5 96.5q-47 39 -47 81q0 57 60 116.5t146.5 96.5t162.5 37q40 0 64 -17.5t24 -46.5zM424 169q-59 0 -137.5 -45t-127.5 -107
q40 -45 113.5 -45t144 47.5t70.5 102.5q0 22 -17 34.5t-46 12.5zM578 780l30 -16q-20 -31 -51.5 -55t-62.5 -24t-65 23.5t-55 47.5l32 27q52 -51 85 -51q51 0 87 48z" />
    <glyph glyph-name="ebreve" unicode="&#x115;" horiz-adv-x="371" 
d="M285 118l23 -18q-31 -43 -85 -71.5t-105 -28.5t-82 30t-31 79q0 92 97.5 181t197.5 89q66 0 66 -52q0 -54 -69.5 -109t-195.5 -100q9 -23 28 -36t39 -13q44 0 117 49zM96 148q81 28 139 70t58 77q0 13 -9.5 23t-23.5 10q-47 0 -101.5 -58.5t-62.5 -121.5zM315 514l30 -16
q-20 -31 -51.5 -55t-62.5 -24t-65 23.5t-55 47.5l32 27q52 -51 85 -51q51 0 87 48z" />
    <glyph glyph-name="Edotaccent" unicode="&#x116;" horiz-adv-x="659" 
d="M634 574q0 -50 -47.5 -89t-109 -57t-118.5 -18q-15 0 -22 1v34q2 0 58 9.5t94.5 33.5t38.5 54q0 36 -54 36q-73 0 -138 -50t-65 -105t68 -71q15 -4 20 -8t5 -14t-9.5 -16.5t-43.5 -18.5q-184 -63 -184 -196q0 -27 10 -46q61 78 158 127t187 49q47 0 75 -20.5t28 -56.5
q0 -56 -52 -112t-134.5 -91.5t-164.5 -35.5t-128 30q-1 -1 -8 -15q-21 -40 -35 -56l-33 14q7 28 41 85q-46 52 -46 116.5t52.5 123t146.5 96.5q-47 39 -47 81q0 57 60 116.5t146.5 96.5t162.5 37q40 0 64 -17.5t24 -46.5zM424 169q-59 0 -137.5 -45t-127.5 -107
q40 -45 113.5 -45t144 47.5t70.5 102.5q0 22 -17 34.5t-46 12.5zM439 737q0 17 11.5 28.5t27.5 11.5t28 -11.5t12 -28t-11.5 -28t-28 -11.5t-28 11t-11.5 28z" />
    <glyph glyph-name="edotaccent" unicode="&#x117;" horiz-adv-x="371" 
d="M285 118l23 -18q-31 -43 -85 -71.5t-105 -28.5t-82 30t-31 79q0 92 97.5 181t197.5 89q66 0 66 -52q0 -54 -69.5 -109t-195.5 -100q9 -23 28 -36t39 -13q44 0 117 49zM96 148q81 28 139 70t58 77q0 13 -9.5 23t-23.5 10q-47 0 -101.5 -58.5t-62.5 -121.5zM214 463
q0 17 11.5 28.5t28 11.5t28 -11.5t11.5 -28t-11.5 -28t-28.5 -11.5t-28 11t-11 28z" />
    <glyph glyph-name="Eogonek" unicode="&#x118;" horiz-adv-x="689" 
d="M220 -102l20 -16q-30 -40 -82.5 -71t-84 -31t-48 13.5t-16.5 32.5q0 66 75 147q-44 50 -44 114.5t52.5 123t146.5 96.5q-47 39 -47 81q0 57 60 116.5t146.5 96.5t162.5 37q40 0 64 -17.5t24 -46.5q0 -50 -47.5 -89t-109 -57t-118.5 -18q-15 0 -22 1v34q2 0 58 9.5
t94.5 33.5t38.5 54q0 36 -54 36q-73 0 -138 -50t-65 -105t68 -71q15 -4 20 -8t5 -14t-9.5 -16.5t-43.5 -18.5q-184 -63 -184 -196q0 -27 10 -46q61 78 158 127t187 49q47 0 75 -20.5t28 -56.5q0 -56 -52 -112t-134.5 -91.5t-164 -35.5t-128.5 30l-17 -31q-9 -17 -9 -28
t7 -19t23 -8q36 0 95 41zM439 169q-59 0 -137.5 -45t-127.5 -107q40 -45 113.5 -45t144 47.5t70.5 102.5q0 22 -17 34.5t-46 12.5z" />
    <glyph glyph-name="eogonek" unicode="&#x119;" horiz-adv-x="401" 
d="M226 -74l20 -16q-30 -40 -82.5 -71t-84 -31t-48 13.5t-16.5 32.5q0 69 80 151q-35 10 -55 37t-20 67q0 92 97.5 181t197.5 89q66 0 66 -52q0 -54 -69.5 -109t-195.5 -100q9 -23 28 -36t39 -13q43 0 117 49l23 -18q-29 -40 -79 -68t-98 -32q-19 -24 -32 -51.5t-13 -37.5
t7 -18t23 -8q36 0 95 41zM111 148q81 28 139 70t58 77q0 13 -10 23t-23 10q-47 0 -101.5 -58.5t-62.5 -121.5z" />
    <glyph glyph-name="Ecaron" unicode="&#x11a;" horiz-adv-x="689" 
d="M649 574q0 -50 -47.5 -89t-109 -57t-118.5 -18q-15 0 -22 1v34q2 0 58 9.5t94.5 33.5t38.5 54q0 36 -54 36q-73 0 -138 -50t-65 -105t68 -71q15 -4 20 -8t5 -14t-9.5 -16.5t-43.5 -18.5q-184 -63 -184 -196q0 -27 10 -46q61 78 158 127t187 49q47 0 75 -20.5t28 -56.5
q0 -56 -52 -112t-134.5 -91.5t-164 -35.5t-128.5 30q-1 -1 -9 -15q-20 -40 -34 -56l-33 14q7 28 41 85q-46 52 -46 116.5t52.5 123t146.5 96.5q-47 39 -47 81q0 57 60 116.5t146.5 96.5t162.5 37q40 0 64 -17.5t24 -46.5zM439 169q-59 0 -137.5 -45t-127.5 -107
q40 -45 113.5 -45t144 47.5t70.5 102.5q0 22 -17 34.5t-46 12.5zM494 680l-147 114l44 24q55 -42 99 -70q18 13 103 64l30 -24q-15 -17 -101 -86z" />
    <glyph glyph-name="ecaron" unicode="&#x11b;" horiz-adv-x="401" 
d="M300 118l23 -18q-31 -43 -85 -71.5t-105 -28.5t-82 30t-31 79q0 92 97.5 181t197.5 89q66 0 66 -52q0 -54 -69.5 -109t-195.5 -100q9 -23 28 -36t39 -13q43 0 117 49zM111 148q81 28 139 70t58 77q0 13 -10 23t-23 10q-47 0 -101.5 -58.5t-62.5 -121.5zM274 397l-147 114
l44 24q55 -42 99 -70q18 13 103 64l30 -24q-15 -17 -101 -86z" />
    <glyph glyph-name="Gcircumflex" unicode="&#x11c;" horiz-adv-x="669" 
d="M520 -8l-15 -34q-98 17 -113 18q-49 -133 -140 -210t-204 -77q-61 0 -102 33t-41 82q0 86 118.5 151t287.5 65q23 0 35 -1q18 38 29 81q-65 -43 -137 -43t-120.5 51.5t-48.5 136t56.5 178t149 154.5t188.5 61q56 0 106 -19.5t75 -46.5l-54 -65q-41 32 -58 43
q-44 30 -94 30q-103 0 -191 -99.5t-88 -216.5q0 -64 36 -101t94.5 -37t105.5 28q58 153 108 153q29 0 29 -28t-21.5 -64.5t-55.5 -65.5q-41 -110 -48 -132q70 -8 113 -25zM97 -243q68 0 134.5 63t100.5 158q-135 0 -228.5 -45.5t-93.5 -110.5q0 -30 23.5 -47.5t63.5 -17.5z
M275 710l147 114q108 -86 129 -108l-30 -24q-85 51 -103 64l-99 -70z" />
    <glyph glyph-name="gcircumflex" unicode="&#x11d;" horiz-adv-x="439" 
d="M436 36l1 -24q-10 -6 -91 -36q-32 -191 -94 -276t-152 -85q-42 0 -67 27t-25 70q0 86 79 160.5t211 117.5q15 67 54 189q-67 -102 -121.5 -138t-98.5 -36t-66.5 24t-22.5 64q0 66 55 134.5t138.5 112t161.5 43.5l8 -35q-111 -12 -190.5 -78t-79.5 -127q0 -26 16 -43
t39 -17q34 0 103 72t97 123l37 -21q-55 -147 -76 -248zM292 -40q-87 -40 -144 -96t-57 -102q0 -24 14 -39t35 -15q42 0 83 59t69 193zM157 443l147 114q108 -86 129 -108l-30 -24q-85 51 -103 64l-99 -70z" />
    <glyph glyph-name="Gbreve" unicode="&#x11e;" horiz-adv-x="699" 
d="M535 -8l-15 -34q-98 17 -113 18q-49 -133 -140 -210t-204 -77q-61 0 -102 33t-41 82q0 86 118.5 151t287.5 65q23 0 35 -1q18 38 29 81q-64 -43 -136.5 -43t-121 51.5t-48.5 136t56.5 178t149 154.5t188.5 61q56 0 106 -19.5t75 -46.5l-54 -65q-41 32 -58 43
q-44 30 -94 30q-103 0 -191 -99.5t-88 -216.5q0 -64 36 -101t94.5 -37t105.5 28q58 153 108 153q29 0 29 -28t-21.5 -64.5t-55.5 -65.5q-41 -110 -48 -132q70 -8 113 -25zM112 -243q68 0 134.5 63t100.5 158q-135 0 -228.5 -45.5t-93.5 -110.5q0 -30 23.5 -47.5t63.5 -17.5z
M546 787l30 -16q-20 -31 -51.5 -55t-62.5 -24t-65 23.5t-55 47.5l32 27q52 -51 85 -51q51 0 87 48z" />
    <glyph glyph-name="gbreve" unicode="&#x11f;" horiz-adv-x="469" 
d="M451 36l1 -24q-10 -6 -91 -36q-32 -191 -94 -276t-152 -85q-42 0 -67 27t-25 70q0 86 79 160.5t211 117.5q15 67 54 189q-67 -102 -121.5 -138t-98.5 -36t-66.5 24t-22.5 64q0 66 55 134.5t138.5 112t161.5 43.5l8 -35q-111 -12 -190.5 -78t-79.5 -127q0 -26 16 -43
t39 -17q34 0 103 72t97 123l37 -21q-55 -147 -76 -248zM307 -40q-87 -40 -144 -96t-57 -102q0 -24 14 -39t35 -15q42 0 83 59t69 193zM410 514l30 -16q-20 -31 -51.5 -55t-62.5 -24t-65 23.5t-55 47.5l32 27q52 -51 85 -51q51 0 87 48z" />
    <glyph glyph-name="Gdotaccent" unicode="&#x120;" horiz-adv-x="669" 
d="M520 -8l-15 -34q-98 17 -113 18q-49 -133 -140 -210t-204 -77q-61 0 -102 33t-41 82q0 86 118.5 151t287.5 65q23 0 35 -1q18 38 29 81q-65 -43 -137 -43t-120.5 51.5t-48.5 136t56.5 178t149 154.5t188.5 61q56 0 106 -19.5t75 -46.5l-54 -65q-41 32 -58 43
q-44 30 -94 30q-103 0 -191 -99.5t-88 -216.5q0 -64 36 -101t94.5 -37t105.5 28q58 153 108 153q29 0 29 -28t-21.5 -64.5t-55.5 -65.5q-41 -110 -48 -132q70 -8 113 -25zM97 -243q68 0 134.5 63t100.5 158q-135 0 -228.5 -45.5t-93.5 -110.5q0 -30 23.5 -47.5t63.5 -17.5z
M395 708.5q-11 11.5 -11 28t11.5 28t28 11.5t28 -12t11.5 -28t-11.5 -27.5t-28.5 -11.5t-28 11.5z" />
    <glyph glyph-name="gdotaccent" unicode="&#x121;" horiz-adv-x="439" 
d="M436 36l1 -24q-10 -6 -91 -36q-32 -191 -94 -276t-152 -85q-42 0 -67 27t-25 70q0 86 79 160.5t211 117.5q15 67 54 189q-67 -102 -121.5 -138t-98.5 -36t-66.5 24t-22.5 64q0 66 55 134.5t138.5 112t161.5 43.5l8 -35q-111 -12 -190.5 -78t-79.5 -127q0 -26 16 -43
t39 -17q34 0 103 72t97 123l37 -21q-55 -147 -76 -248zM292 -40q-87 -40 -144 -96t-57 -102q0 -24 14 -39t35 -15q42 0 83 59t69 193zM296.5 428.5q-11.5 11.5 -11.5 28t11.5 28t27.5 11.5t28 -12t12 -28t-11.5 -27.5t-28 -11.5t-28 11.5z" />
    <glyph glyph-name="uni0122" unicode="&#x122;" horiz-adv-x="669" 
d="M420.5 -101.5q13.5 12.5 33 12.5t30.5 -11.5t11 -30.5q0 -44 -76 -99l-22 32q40 32 41 34q-31 10 -31 32q0 18 13.5 30.5zM520 -8l-15 -34q-98 17 -113 18q-49 -133 -140 -210t-204 -77q-61 0 -102 33t-41 82q0 86 118.5 151t287.5 65q23 0 35 -1q18 38 29 81
q-65 -43 -137 -43t-120.5 51.5t-48.5 136t56.5 178t149 154.5t188.5 61q56 0 106 -19.5t75 -46.5l-54 -65q-41 32 -58 43q-44 30 -94 30q-103 0 -191 -99.5t-88 -216.5q0 -64 36 -101t94.5 -37t105.5 28q58 153 108 153q29 0 29 -28t-21.5 -64.5t-55.5 -65.5
q-41 -110 -48 -132q70 -8 113 -25zM97 -243q68 0 134.5 63t100.5 158q-135 0 -228.5 -45.5t-93.5 -110.5q0 -30 23.5 -47.5t63.5 -17.5z" />
    <glyph glyph-name="uni0123" unicode="&#x123;" horiz-adv-x="439" 
d="M436 36l1 -24q-10 -6 -91 -36q-32 -191 -94 -276t-152 -85q-42 0 -67 27t-25 70q0 86 79 160.5t211 117.5q15 67 54 189q-67 -102 -121.5 -138t-98.5 -36t-66.5 24t-22.5 64q0 66 55 134.5t138.5 112t161.5 43.5l8 -35q-111 -12 -190.5 -78t-79.5 -127q0 -26 16 -43
t39 -17q34 0 103 72t97 123l37 -21q-55 -147 -76 -248zM292 -40q-87 -40 -144 -96t-57 -102q0 -24 14 -39t35 -15q42 0 83 59t69 193zM353.5 452.5q-13.5 -12.5 -33 -12.5t-30.5 11.5t-11 30.5q0 45 76 99l22 -32q-4 -3 -15 -11.5t-17.5 -13.5t-8.5 -9q31 -10 31 -32
q0 -18 -13.5 -30.5z" />
    <glyph glyph-name="Hcircumflex" unicode="&#x124;" horiz-adv-x="815" 
d="M755 637l45 -22q-67 -131 -139 -337q46 0 63 -4l-4 -57q-21 -7 -82 -7q-21 -58 -25 -94t-6.5 -70t-3.5 -46h-56q-5 17 -5 35q0 62 33 175q-60 0 -182 -14q-5 -16 -25 -59.5t-39.5 -75.5t-52.5 -70t-69 -64q-103 -74 -200 -74q-40 0 -66 25t-26 63q0 96 110.5 174.5
t306.5 125.5q74 216 208 308q-145 -2 -239 -49t-94 -120q0 -23 7 -39.5t33 -51.5l-34 -32q-44 28 -67 68t-23 77q0 62 66 114.5t164 81t199 28.5q51 0 70.5 -7.5t19.5 -28t-29 -38.5q-125 -78 -201 -296q59 10 183 22q48 140 77.5 207.5t82.5 151.5zM173.5 -45.5
q49.5 32.5 83 85t57.5 144.5q-133 -22 -214.5 -77.5t-81.5 -125.5q0 -28 16.5 -43.5t53 -15.5t86 32.5zM458 703l147 114q108 -86 129 -108l-30 -24q-85 51 -103 64l-99 -70z" />
    <glyph glyph-name="hcircumflex" unicode="&#x125;" horiz-adv-x="423" 
d="M391 73l23 -19q-42 -70 -109 -70q-58 0 -58 57q0 33 28.5 105.5t28.5 95.5q0 29 -37 29t-100.5 -79.5t-106.5 -184.5l-59 21q52 261 272 699l49 -16q-111 -222 -159 -353q-50 -136 -75 -225q77 127 132.5 176t95.5 49q75 0 75 -53q0 -33 -37 -118t-37 -113t27 -28
q14 0 47 27zM201 413l147 114q108 -86 129 -108l-30 -24q-85 51 -103 64l-99 -70z" />
    <glyph glyph-name="Hbar" unicode="&#x126;" horiz-adv-x="815" 
d="M785 441v-47l-94 -7q-18 -45 -40 -109q46 0 63 -4l-4 -57q-21 -7 -82 -7q-21 -58 -25 -94t-6.5 -70t-3.5 -46h-56q-5 17 -5 35q0 62 33 175q-60 0 -182 -14q-5 -16 -25 -59.5t-39.5 -75.5t-52.5 -70t-69 -64q-103 -74 -200 -74q-40 0 -66 25t-26 63q0 96 110.5 174.5
t306.5 125.5q25 72 50 119l-78 -12l-18 35q18 4 61 14.5t63 13.5q56 88 130 138q-145 -2 -239 -49t-94 -120q0 -23 7 -39.5t33 -51.5l-34 -32q-44 28 -67 68t-23 77q0 62 66 114.5t164 81t199 28.5q51 0 70.5 -7.5t19.5 -28t-29 -38.5q-70 -44 -124 -130q82 11 163 14
q40 101 103 201l45 -22q-38 -75 -79 -176q30 2 74 2zM163.5 -45.5q49.5 32.5 83 85t57.5 144.5q-133 -22 -214.5 -77.5t-81.5 -125.5q0 -28 16.5 -43.5t53 -15.5t86 32.5zM585 278q18 53 36 103l-173 -15q-25 -50 -46 -110q59 10 183 22z" />
    <glyph glyph-name="hbar" unicode="&#x127;" horiz-adv-x="423" 
d="M347 565v-53l-124 -11q-82 -182 -135 -368q77 127 132.5 176t95.5 49q75 0 75 -53q0 -33 -37 -118t-37 -113t27 -28q14 0 47 27l23 -19q-42 -70 -109 -70q-58 0 -58 57q0 33 28.5 105.5t28.5 95.5q0 29 -37 29t-100.5 -79.5t-106.5 -184.5l-59 21q37 189 163 471l-105 -8
l-13 46q78 15 143 18q34 74 84 172l49 -16q-10 -21 -35 -73t-39 -82z" />
    <glyph glyph-name="Itilde" unicode="&#x128;" horiz-adv-x="576" 
d="M584 616q17 -5 17 -18q0 -4 -11 -18q-47 -59 -65.5 -88t-44 -97t-46 -130.5t-20.5 -63.5q-41 -92 -113 -145t-151 -53q-56 0 -90.5 27.5t-34.5 73.5q0 72 93 132t186 60l4 -33q-74 -15 -127.5 -55t-53.5 -87q0 -30 17.5 -49t44.5 -19q51 0 88 47.5t75.5 168.5t70 177
t79.5 94q-14 1 -31 1q-86 0 -167.5 -27t-81.5 -72q0 -28 25 -53l-22 -27q-67 47 -67 109q0 41 35.5 71t94.5 46q116 31 259 31q31 0 37 -3zM533 758l23 -19q-19 -30 -43.5 -51t-45 -21t-44.5 34.5t-44 34.5q-10 0 -20 -7t-15.5 -11t-15.5 -12t-16 -12l-28 26q74 65 99.5 65
t54.5 -35t44 -35q10 0 26.5 18t24.5 25z" />
    <glyph glyph-name="itilde" unicode="&#x129;" horiz-adv-x="288" 
d="M211 129l20 -17q-24 -46 -63.5 -78.5t-71.5 -32.5q-56 0 -56 78q0 97 80 253q18 34 21 40l43 -26q-21 -38 -51.5 -121t-30.5 -106.5t10 -33.5t24 -10q27 0 75 54zM257 497l23 -19q-19 -30 -43.5 -51t-45 -21t-44.5 34.5t-44 34.5q-10 0 -20 -7t-15.5 -11t-15.5 -12
t-16 -12l-28 26q74 65 99.5 65t54.5 -35t44 -35q10 0 26.5 18t24.5 25z" />
    <glyph glyph-name="Imacron" unicode="&#x12a;" horiz-adv-x="576" 
d="M584 616q17 -5 17 -18q0 -4 -11 -18q-47 -59 -65.5 -88t-44 -97t-46 -130.5t-20.5 -63.5q-41 -92 -113 -145t-151 -53q-56 0 -90.5 27.5t-34.5 73.5q0 72 93 132t186 60l4 -33q-74 -15 -127.5 -55t-53.5 -87q0 -30 17.5 -49t44.5 -19q51 0 88 47.5t75.5 168.5t70 177
t79.5 94q-14 1 -31 1q-86 0 -167.5 -27t-81.5 -72q0 -28 25 -53l-22 -27q-67 47 -67 109q0 41 35.5 71t94.5 46q116 31 259 31q31 0 37 -3zM553 714v-36l-177 -6l-9 31q33 7 186 11z" />
    <glyph glyph-name="imacron" unicode="&#x12b;" horiz-adv-x="288" 
d="M211 129l20 -17q-24 -46 -63.5 -78.5t-71.5 -32.5q-56 0 -56 78q0 97 80 253q18 34 21 40l43 -26q-21 -38 -51.5 -121t-30.5 -106.5t10 -33.5t24 -10q27 0 75 54zM237 465v-36l-177 -6l-9 31q33 7 186 11z" />
    <glyph glyph-name="Ibreve" unicode="&#x12c;" horiz-adv-x="576" 
d="M584 616q17 -5 17 -18q0 -4 -11 -18q-47 -59 -65.5 -88t-44 -97t-46 -130.5t-20.5 -63.5q-41 -92 -113 -145t-151 -53q-56 0 -90.5 27.5t-34.5 73.5q0 72 93 132t186 60l4 -33q-74 -15 -127.5 -55t-53.5 -87q0 -30 17.5 -49t44.5 -19q51 0 88 47.5t75.5 168.5t70 177
t79.5 94q-14 1 -31 1q-86 0 -167.5 -27t-81.5 -72q0 -28 25 -53l-22 -27q-67 47 -67 109q0 41 35.5 71t94.5 46q116 31 259 31q31 0 37 -3zM529 786l30 -16q-20 -31 -51.5 -55t-62.5 -24t-65 23.5t-55 47.5l32 27q52 -51 85 -51q51 0 87 48z" />
    <glyph glyph-name="ibreve" unicode="&#x12d;" horiz-adv-x="288" 
d="M211 129l20 -17q-24 -46 -63.5 -78.5t-71.5 -32.5q-56 0 -56 78q0 97 80 253q18 34 21 40l43 -26q-21 -38 -51.5 -121t-30.5 -106.5t10 -33.5t24 -10q27 0 75 54zM247 508l30 -16q-20 -31 -51.5 -55t-62.5 -24t-65 23.5t-55 47.5l32 27q52 -51 85 -51q51 0 87 48z" />
    <glyph glyph-name="Iogonek" unicode="&#x12e;" horiz-adv-x="576" 
d="M252 -73l20 -16q-30 -40 -82.5 -71t-84 -31t-48 13.5t-16.5 32.5q0 69 79 150q-44 7 -69.5 33.5t-25.5 65.5q0 72 93 132t186 60l4 -33q-74 -15 -127.5 -55t-53.5 -87q0 -30 17.5 -49t44.5 -19q51 0 88 47.5t75.5 168.5t70 177t79.5 94q-14 1 -31 1q-86 0 -167.5 -27
t-81.5 -72q0 -28 25 -53l-22 -27q-67 47 -67 109q0 41 35.5 71t94.5 46q116 31 259 31q31 0 37 -3q17 -5 17 -18q0 -4 -11 -18q-47 -59 -65.5 -88t-44 -97t-46 -130.5t-20.5 -63.5q-38 -86 -102.5 -137.5t-137.5 -59.5q-19 -24 -33 -53t-14 -39t7 -18t23 -8q36 0 95 41z" />
    <glyph glyph-name="iogonek" unicode="&#x12f;" horiz-adv-x="258" 
d="M224 -79l20 -16q-30 -40 -82.5 -71t-84 -31t-48 13.5t-16.5 32.5q0 36 24.5 78t57.5 76q-10 -2 -14 -2q-56 0 -56 78q0 97 81 253l20 40l43 -26q-21 -38 -51.5 -121t-30.5 -106.5t10 -33.5t24 -10q27 0 75 54l20 -17q-27 -50 -68 -82l27 -3q-27 -20 -51.5 -63t-24.5 -56
q0 -28 33 -28t92 41zM209 424q-56 0 -56 45q0 25 14 42t36 17t36 -13t14 -34t-12 -39t-32 -18z" />
    <glyph glyph-name="Idotaccent" unicode="&#x130;" horiz-adv-x="606" 
d="M599 616q17 -5 17 -18q0 -4 -12 -18q-46 -59 -64.5 -88t-44 -97t-46 -130.5t-20.5 -63.5q-41 -92 -113 -145t-151 -53q-56 0 -90.5 27.5t-34.5 73.5q0 72 93 132t186 60l4 -33q-74 -15 -127.5 -55t-53.5 -87q0 -30 17.5 -49t44.5 -19q51 0 88 47.5t75.5 168.5t70 177
t79.5 94q-14 1 -31 1q-86 0 -167.5 -27t-81.5 -72q0 -28 25 -53l-22 -27q-67 47 -67 109q0 41 35.5 71t95.5 46q115 31 258 31q31 0 37 -3zM417 733q0 17 11.5 28.5t27.5 11.5t28 -11.5t12 -28t-11.5 -28t-28 -11.5t-28 11t-11.5 28z" />
    <glyph glyph-name="dotlessi" unicode="&#x131;" horiz-adv-x="288" 
d="M211 129l20 -17q-24 -46 -63.5 -78.5t-71.5 -32.5q-56 0 -56 78q0 97 80 253q18 34 21 40l43 -26q-21 -38 -51.5 -121t-30.5 -106.5t10 -33.5t24 -10q27 0 75 54z" />
    <glyph glyph-name="ij" unicode="&#x133;" horiz-adv-x="641" 
d="M559 141q2 -18 2 -29q-53 -13 -96 -30q-37 -178 -96 -269t-150 -91q-45 0 -70.5 27t-25.5 74q0 27 5 44q-22 -10 -37 -10q-56 0 -56 78q0 97 81 253l20 40l43 -26q-21 -38 -51.5 -121t-30.5 -106.5t10 -33.5t25.5 -10t36.5 17q70 88 243 149q45 171 108 336q19 50 21 60
l50 -16q-28 -62 -68.5 -183t-48.5 -176zM408 58q-125 -62 -158 -98q-43 -47 -43 -98q0 -22 13 -35t35 -13q45 0 86.5 68.5t66.5 175.5zM655.5 575q-10.5 -19 -34 -19t-40 13t-16.5 36.5t16 42t36.5 18.5t34.5 -14.5t14 -36t-10.5 -40.5zM219 280q-56 0 -56 45q0 25 14 42
t36 17t36 -13t14 -34t-12 -39t-32 -18z" />
    <glyph glyph-name="Jcircumflex" unicode="&#x134;" horiz-adv-x="692" 
d="M569 622q61 0 99.5 -7.5t38.5 -30.5q0 -20 -32 -39q-79 -48 -140.5 -155.5t-126.5 -317.5q59 0 89 -5l-6 -40q-28 5 -50 5t-49 -5q-31 -85 -65.5 -138t-88.5 -99t-120 -76t-112.5 -30t-73.5 25.5t-27 67.5q0 64 60 127t158.5 106t207.5 54q2 4 31 95q46 150 103.5 238.5
t138.5 146.5q-17 2 -45 2q-173 0 -284 -63t-111 -142q0 -51 30.5 -94.5t86.5 -89.5l-24 -33q-163 88 -163 222q0 78 66.5 142t175 99t233.5 35zM160.5 -216q50.5 32 95 94t62.5 142q-130 -13 -220.5 -74.5t-90.5 -137.5q0 -26 15 -41t42 -15q46 0 96.5 32zM337 695l147 114
q108 -86 129 -108l-30 -24q-85 51 -103 64l-99 -70z" />
    <glyph glyph-name="jcircumflex" unicode="&#x135;" horiz-adv-x="393" 
d="M175 530l147 114q108 -86 129 -108l-30 -24q-85 51 -103 64l-99 -70zM311 141q2 -18 2 -29q-53 -13 -96 -30q-37 -178 -96 -269t-150 -91q-45 0 -70.5 27t-25.5 74q0 85 74 154.5t215 119.5q45 171 108 336q19 50 21 60l50 -16q-28 -62 -68.5 -183t-48.5 -176zM160 58
q-125 -62 -158 -98q-43 -47 -43 -98q0 -22 13 -35t35 -13q45 0 86.5 68.5t66.5 175.5z" />
    <glyph glyph-name="uni0136" unicode="&#x136;" horiz-adv-x="787" 
d="M377.5 -63.5q13.5 12.5 33 12.5t30.5 -11.5t11 -30.5q0 -44 -76 -99l-22 32q40 32 41 34q-31 10 -31 32q0 18 13.5 30.5zM819 600l63 -31q-64 -104 -151.5 -185t-232.5 -161q28 -145 69 -232.5t107 -97.5v-46q-8 -1 -21 -1q-67 0 -129.5 93t-112.5 275
q-43 -135 -131 -213.5t-183 -78.5q-49 0 -80.5 26.5t-31.5 73t42 96.5t115 84l23 -36q-90 -64 -90 -120q0 -27 18 -43.5t47 -16.5q68 0 117.5 57.5t88.5 201.5q49 181 100 237q23 26 67 57q-69 -2 -141 -23.5t-126 -64t-54 -94.5q0 -67 61 -107l-20 -31q-56 27 -88 70
t-32 89q0 63 69 119t169.5 87t197.5 31q60 0 60 -26q0 -17 -35 -43q-64 -48 -98.5 -125t-56.5 -180q114 42 218.5 139.5t181.5 219.5z" />
    <glyph glyph-name="uni0137" unicode="&#x137;" horiz-adv-x="443" 
d="M157.5 -42.5q13.5 12.5 33 12.5t30.5 -11.5t11 -30.5q0 -44 -76 -99l-22 32q40 32 41 34q-31 10 -31 32q0 18 13.5 30.5zM409 102l25 -22q-58 -95 -123 -95q-40 0 -82 59t-42 97q0 24 72 48q27 9 49.5 27.5t22.5 38.5t-11 30.5t-28 10.5q-110 -10 -230 -296l-61 21
q0 43 116.5 348t165.5 369l49 -18q-135 -235 -226 -546q78 117 134 156t107 39q31 0 49.5 -19t18.5 -48.5t-14.5 -53.5t-42.5 -42q-38 -26 -95 -51q9 -47 31 -71t50 -24q15 0 65 42z" />
    <glyph glyph-name="kgreenlandic" unicode="&#x138;" horiz-adv-x="454" 
d="M380 111l25 -22q-58 -95 -123 -95q-37 0 -75.5 48t-46.5 93q-6 -11 -34 -58t-40 -77l-60 21q21 123 51.5 232t57.5 153l41 -13q-18 -46 -60 -245q55 113 111 165.5t123 69.5v-66q-72 -3 -139 -97q4 -65 38.5 -108t65.5 -43q15 0 65 42z" />
    <glyph glyph-name="Lacute" unicode="&#x139;" horiz-adv-x="601" 
d="M185 93l208 -6q44 0 85 29l27 -36q-20 -23 -32 -34.5t-35.5 -22.5t-52.5 -11l-187 8q-125 0 -122 -3q-37 1 -37 33q3 20 27 66.5t65 168.5q-62 0 -111 37l21 37q43 -28 105 -28q58 142 147 213t186 71q46 0 74 -23.5t28 -62.5q0 -84 -110.5 -157.5t-251.5 -82.5
q-46 -146 -103 -199q25 3 69 3zM424 561q-62 0 -115 -63t-76 -163q100 7 175 60t75 111q0 23 -17 39t-42 16zM519 720l-171 -56l-29 18l132 78z" />
    <glyph glyph-name="lacute" unicode="&#x13a;" horiz-adv-x="374" 
d="M176 96l21 -17q-34 -53 -58.5 -76.5t-54.5 -23.5t-49 24t-19 60q0 70 92 301.5t189 407.5l44 -24q-98 -190 -177 -377.5t-79 -269.5q0 -47 35 -47q28 0 56 42zM318.5 653.5q13.5 12.5 33 12.5t30.5 -11.5t11 -30.5q0 -44 -76 -99l-22 32q4 3 15 11.5t17.5 13.5t8.5 9
q-31 10 -31 32q0 18 13.5 30.5z" />
    <glyph glyph-name="uni013B" unicode="&#x13b;" horiz-adv-x="571" 
d="M278.5 -54.5q13.5 12.5 33 12.5t30.5 -11.5t11 -30.5q0 -44 -76 -99l-22 32q4 3 15 11.5t17.5 13.5t8.5 9q-31 10 -31 32q0 18 13.5 30.5zM170 93l208 -6q44 0 85 29l27 -36q-20 -23 -32 -34.5t-35.5 -22.5t-52.5 -11l-187 8q-125 0 -122 -3q-37 1 -37 33q3 20 27 66.5
t65 168.5q-62 0 -111 37l21 37q43 -28 105 -28q58 142 147 213t186 71q46 0 74 -23.5t28 -62.5q0 -84 -110.5 -157.5t-251.5 -82.5q-46 -146 -103 -199q25 3 69 3zM409 561q-62 0 -115 -63t-76 -163q100 7 175 60t75 111q0 23 -17 39t-42 16z" />
    <glyph glyph-name="uni013C" unicode="&#x13c;" horiz-adv-x="261" 
d="M5.5 -77.5q13.5 12.5 33 12.5t30.5 -11.5t11 -30.5q0 -44 -76 -99l-22 32q40 32 41 34q-31 10 -31 32q0 18 13.5 30.5zM161 96l21 -17q-34 -53 -58.5 -76.5t-54.5 -23.5t-49 24t-19 60q0 70 92 301.5t189 407.5l44 -24q-98 -190 -177 -377.5t-79 -269.5q0 -47 35 -47
q28 0 56 42z" />
    <glyph glyph-name="Lcaron" unicode="&#x13d;" horiz-adv-x="601" 
d="M185 93l208 -6q44 0 85 29l27 -36q-20 -23 -32 -34.5t-35.5 -22.5t-52.5 -11l-187 8q-125 0 -122 -3q-37 1 -37 33q3 20 27 66.5t65 168.5q-62 0 -111 37l21 37q43 -28 105 -28q58 142 147 213t186 71q46 0 74 -23.5t28 -62.5q0 -84 -110.5 -157.5t-251.5 -82.5
q-46 -146 -103 -199q25 3 69 3zM424 561q-62 0 -115 -63t-76 -163q100 7 175 60t75 111q0 23 -17 39t-42 16zM438 650l-147 114l44 24q55 -42 99 -70q18 13 103 64l30 -24q-15 -17 -101 -86z" />
    <glyph glyph-name="lcaron" unicode="&#x13e;" horiz-adv-x="374" 
d="M176 96l21 -17q-34 -53 -58.5 -76.5t-54.5 -23.5t-49 24t-19 60q0 70 92 301.5t189 407.5l44 -24q-98 -190 -177 -377.5t-79 -269.5q0 -47 35 -47q28 0 56 42zM318.5 653.5q13.5 12.5 33 12.5t30.5 -11.5t11 -30.5q0 -44 -76 -99l-22 32q4 3 15 11.5t17.5 13.5t8.5 9
q-31 10 -31 32q0 18 13.5 30.5z" />
    <glyph glyph-name="Ldot" unicode="&#x13f;" horiz-adv-x="571" 
d="M170 93l208 -6q44 0 85 29l27 -36q-20 -23 -32 -34.5t-35.5 -22.5t-52.5 -11l-187 8q-125 0 -122 -3q-37 1 -37 33q3 20 27 66.5t65 168.5q-62 0 -111 37l21 37q43 -28 105 -28q58 142 147 213t186 71q46 0 74 -23.5t28 -62.5q0 -84 -110.5 -157.5t-251.5 -82.5
q-46 -146 -103 -199q25 3 69 3zM409 561q-62 0 -115 -63t-76 -163q100 7 175 60t75 111q0 23 -17 39t-42 16zM403 240q0 19 13.5 32.5t32.5 13.5t32.5 -13.5t13.5 -32.5t-13.5 -32.5t-32.5 -13.5t-32.5 13.5t-13.5 32.5z" />
    <glyph glyph-name="ldot" unicode="&#x140;" horiz-adv-x="320" 
d="M158 96l21 -17q-34 -53 -58.5 -76.5t-54.5 -23.5t-49 24t-19 60q0 70 92 301.5t189 407.5l44 -24q-98 -190 -177 -377.5t-79 -269.5q0 -47 35 -47q28 0 56 42zM184 307q0 19 13.5 32.5t32.5 13.5t32.5 -13.5t13.5 -32.5t-13.5 -32.5t-32.5 -13.5t-32.5 13.5t-13.5 32.5z
" />
    <glyph glyph-name="Lslash" unicode="&#x141;" horiz-adv-x="601" 
d="M185 93l208 -6q44 0 85 29l27 -36q-20 -23 -32 -34.5t-35.5 -22.5t-52.5 -11l-187 8q-125 0 -122 -3q-37 1 -37 33q2 20 53 122l-75 -7l-12 54q30 6 108 13l18 53q-62 0 -111 37l21 37q43 -28 105 -28q58 142 147 213t186 71q46 0 74 -23.5t28 -62.5q0 -84 -110.5 -157.5
t-251.5 -82.5l-17 -50q39 2 139 5v-47l-163 -16q-30 -62 -62 -91q25 3 69 3zM424 561q-62 0 -115 -63t-76 -163q100 7 175 60t75 111q0 23 -17 39t-42 16z" />
    <glyph glyph-name="lslash" unicode="&#x142;" horiz-adv-x="291" 
d="M294 407v-45l-140 -16q-69 -176 -69 -245q0 -47 35 -47q28 0 56 42l21 -17q-34 -53 -58.5 -76.5t-54.5 -23.5t-49 24t-19 60q0 65 83 277l-85 -9l-11 52q50 9 118 15q91 220 176 374l44 -24q-99 -191 -164 -346q33 2 117 5z" />
    <glyph glyph-name="Nacute" unicode="&#x143;" horiz-adv-x="744" 
d="M686 611l58 -7q-18 -78 -48.5 -182.5t-55.5 -169t-54.5 -128t-62.5 -100t-64 -36.5t-45.5 23t-14.5 81.5t17 246t17.5 204t-8.5 16.5q-11 0 -26 -30.5t-23 -46.5q-21 -47 -27 -66q-56 -126 -100 -208t-101 -152q-20 -24 -57 -49t-69 -38l-22 59q83 35 150 121.5
t138.5 241.5t102.5 209q35 57 71 57q23 0 36 -16t13 -41.5t-17.5 -210.5t-17.5 -237t4.5 -67.5t15.5 -15.5q14 0 30 30q55 107 160 512zM696 733l-171 -56l-29 18l132 78z" />
    <glyph glyph-name="nacute" unicode="&#x144;" horiz-adv-x="484" 
d="M439 121l21 -16q-22 -44 -60.5 -74t-69.5 -30t-49 18t-18 45t34.5 94.5t34.5 99.5q0 14 -11.5 25.5t-27.5 11.5q-51 0 -103 -77.5t-116 -223.5l-60 21q19 116 54.5 226.5t65.5 158.5l41 -13q-28 -71 -71 -245q138 236 254 236q25 0 41.5 -17t16.5 -40t-6 -41.5t-37.5 -86
t-31.5 -84.5t10 -26.5t19 -9.5t15 3t13.5 9t13.5 11t14.5 13.5t12.5 11.5zM420 463l-171 -56l-29 18l132 78z" />
    <glyph glyph-name="uni0145" unicode="&#x145;" horiz-adv-x="714" 
d="M278.5 -54.5q13.5 12.5 33 12.5t30.5 -11.5t11 -30.5q0 -44 -76 -99l-22 32q4 3 15 11.5t17.5 13.5t8.5 9q-31 10 -31 32q0 18 13.5 30.5zM671 611l58 -7q-18 -78 -48.5 -182.5t-55.5 -169t-54.5 -128t-62.5 -100t-64 -36.5t-45.5 23t-14.5 81.5t17 246t17.5 204
t-8.5 16.5q-11 0 -26 -30.5t-22 -46.5q-22 -47 -28 -66q-56 -126 -100 -208t-101 -152q-20 -24 -57 -49t-69 -38l-22 59q83 35 150 121.5t138.5 241.5t102.5 209q35 57 71 57q23 0 36 -16t13 -41.5t-17.5 -210.5t-17.5 -237t4.5 -67.5t15.5 -15.5q14 0 29 30q56 107 161 512
z" />
    <glyph glyph-name="uni0146" unicode="&#x146;" horiz-adv-x="454" 
d="M135.5 -52.5q13.5 12.5 33 12.5t30.5 -11.5t11 -30.5q0 -44 -76 -99l-22 32q4 3 15 11.5t17.5 13.5t8.5 9q-31 10 -31 32q0 18 13.5 30.5zM424 121l21 -16q-22 -44 -60.5 -74t-69.5 -30t-49 18t-18 45t34.5 94.5t34.5 99.5q0 14 -11.5 25.5t-27.5 11.5q-51 0 -103 -77.5
t-116 -223.5l-60 21q19 116 54.5 226.5t65.5 158.5l41 -13q-28 -71 -71 -245q138 236 254 236q25 0 41.5 -17t16.5 -40t-6 -41.5t-37.5 -86t-31.5 -84.5t10 -26.5t19 -9.5t15 3t13.5 9t13.5 11t14.5 13.5t12.5 11.5z" />
    <glyph glyph-name="Ncaron" unicode="&#x147;" horiz-adv-x="744" 
d="M686 611l58 -7q-18 -78 -48.5 -182.5t-55.5 -169t-54.5 -128t-62.5 -100t-64 -36.5t-45.5 23t-14.5 81.5t17 246t17.5 204t-8.5 16.5q-11 0 -26 -30.5t-23 -46.5q-21 -47 -27 -66q-56 -126 -100 -208t-101 -152q-20 -24 -57 -49t-69 -38l-22 59q83 35 150 121.5
t138.5 241.5t102.5 209q35 57 71 57q23 0 36 -16t13 -41.5t-17.5 -210.5t-17.5 -237t4.5 -67.5t15.5 -15.5q14 0 30 30q55 107 160 512zM610 676l-147 114l44 24q55 -42 99 -70q18 13 103 64l30 -24q-15 -17 -101 -86z" />
    <glyph glyph-name="ncaron" unicode="&#x148;" horiz-adv-x="484" 
d="M439 121l21 -16q-22 -44 -60.5 -74t-69.5 -30t-49 18t-18 45t34.5 94.5t34.5 99.5q0 14 -11.5 25.5t-27.5 11.5q-51 0 -103 -77.5t-116 -223.5l-60 21q19 116 54.5 226.5t65.5 158.5l41 -13q-28 -71 -71 -245q138 236 254 236q25 0 41.5 -17t16.5 -40t-6 -41.5t-37.5 -86
t-31.5 -84.5t10 -26.5t19 -9.5t15 3t13.5 9t13.5 11t14.5 13.5t12.5 11.5zM311 402l-147 114l44 24q55 -42 99 -70q18 13 103 64l30 -24q-15 -17 -102 -86z" />
    <glyph glyph-name="napostrophe" unicode="&#x149;" horiz-adv-x="454" 
d="M265.5 548.5q13.5 12.5 33 12.5t30.5 -11.5t11 -30.5q0 -44 -76 -99l-22 32q4 3 15 11.5t17.5 13.5t8.5 9q-31 10 -31 32q0 18 13.5 30.5zM424 121l21 -16q-22 -44 -60.5 -74t-69.5 -30t-49 18t-18 45t34.5 94.5t34.5 99.5q0 14 -11.5 25.5t-27.5 11.5q-51 0 -103 -77.5
t-116 -223.5l-60 21q19 116 54.5 226.5t65.5 158.5l41 -13q-28 -71 -71 -245q138 236 254 236q25 0 41.5 -17t16.5 -40t-6 -41.5t-37.5 -86t-31.5 -84.5t10 -26.5t19 -9.5t15 3t13.5 9t13.5 11t14.5 13.5t12.5 11.5z" />
    <glyph glyph-name="Omacron" unicode="&#x14c;" horiz-adv-x="684" 
d="M699 492v-48q-45 -26 -166 -71q-54 -135 -171 -251t-214 -116q-55 0 -89 39t-34 107.5t46 165t121 181t153 124.5q32 21 100 21q51 0 83.5 -39.5t32.5 -93t-8 -80.5q76 25 146 61zM302 527q-33 -34 -33 -65.5t32 -50t80.5 -18.5t84.5 9q6 30 6 58q0 99 -85 99
q-39 0 -85 -32zM315 149q98 97 137 202q-25 -5 -64 -5q-168 0 -190 75q-84 -117 -84 -230q0 -45 21.5 -72t63.5 -27q59 0 116 57zM501 756v-36l-177 -6l-9 31q33 7 186 11z" />
    <glyph glyph-name="omacron" unicode="&#x14d;" horiz-adv-x="321" 
d="M290 297q26 -43 26 -95q0 -81 -56 -144.5t-132 -63.5q-58 0 -90.5 33.5t-32.5 92.5q0 95 74 170.5t166 75.5q17 0 24 -1l3 -33q-80 0 -133 -46t-53 -118q0 -43 21 -69.5t61.5 -26.5t64.5 36t24 84.5t-19 88.5zM305 476v-36l-177 -6l-9 31q33 7 186 11z" />
    <glyph glyph-name="Obreve" unicode="&#x14e;" horiz-adv-x="684" 
d="M699 492v-48q-45 -26 -166 -71q-54 -135 -171 -251t-214 -116q-55 0 -89 39t-34 107.5t46 165t121 181t153 124.5q32 21 100 21q51 0 83.5 -39.5t32.5 -93t-8 -80.5q76 25 146 61zM302 527q-33 -34 -33 -65.5t32 -50t80.5 -18.5t84.5 9q6 30 6 58q0 99 -85 99
q-39 0 -85 -32zM315 149q98 97 137 202q-25 -5 -64 -5q-168 0 -190 75q-84 -117 -84 -230q0 -45 21.5 -72t63.5 -27q59 0 116 57zM526 802l30 -16q-20 -31 -51.5 -55t-62.5 -24t-65 23.5t-55 47.5l32 27q52 -51 85 -51q51 0 87 48z" />
    <glyph glyph-name="obreve" unicode="&#x14f;" horiz-adv-x="321" 
d="M290 297q26 -43 26 -95q0 -81 -56 -144.5t-132 -63.5q-58 0 -90.5 33.5t-32.5 92.5q0 95 74 170.5t166 75.5q17 0 24 -1l3 -33q-80 0 -133 -46t-53 -118q0 -43 21 -69.5t61.5 -26.5t64.5 36t24 84.5t-19 88.5zM313 509l30 -16q-20 -31 -51.5 -55t-62.5 -24t-65 23.5
t-55 47.5l32 27q52 -51 85 -51q51 0 87 48z" />
    <glyph glyph-name="Ohungarumlaut" unicode="&#x150;" horiz-adv-x="714" 
d="M714 492v-48q-45 -26 -166 -71q-54 -135 -171 -251t-214 -116q-55 0 -89 39t-34 107.5t46 165t121 181t153 124.5q32 21 100 21q51 0 83.5 -39.5t32.5 -93t-8 -80.5q76 25 146 61zM317 527q-33 -34 -33 -65.5t32 -50t80.5 -18.5t84.5 9q6 30 6 58q0 99 -85 99
q-39 0 -85 -32zM330 149q98 97 137 202q-25 -5 -64 -5q-168 0 -190 75q-84 -117 -84 -230q0 -45 21.5 -72t63.5 -27q59 0 116 57zM472 770l-136 -85l-41 14l92 96zM608 760l-140 -77l-42 16l113 89z" />
    <glyph glyph-name="ohungarumlaut" unicode="&#x151;" 
d="M305 297q26 -43 26 -95q0 -81 -56 -144.5t-132 -63.5q-58 0 -90.5 33.5t-32.5 92.5q0 95 74 170.5t166 75.5q17 0 24 -1l3 -33q-80 0 -133 -46t-53 -118q0 -43 21 -69.5t61.5 -26.5t64.5 36t24 84.5t-19 88.5zM255 489l-136 -85l-41 14l92 96zM391 479l-140 -77l-42 16
l113 89z" />
    <glyph glyph-name="OE" unicode="&#x152;" horiz-adv-x="1087" 
d="M1090 659q0 -50 -47.5 -89t-109 -57t-118.5 -18q-15 0 -22 1v34q2 0 58 9.5t94.5 33.5t38.5 54q0 36 -54 36q-73 0 -138 -50t-65 -105t68 -71q15 -4 20 -8t5 -14t-9.5 -16.5t-43.5 -18.5q-184 -63 -184 -196q0 -27 10 -46q61 78 158 127t187 49q47 0 75 -20.5t28 -56.5
q0 -56 -52 -112t-134.5 -91.5t-164.5 -35.5t-128 30q-1 -1 -8 -16q-21 -39 -35 -55l-33 14q7 28 41 85q-46 52 -46 116.5t52.5 123t146.5 96.5q-23 19 -33 34q-40 -19 -132 -53q-54 -135 -171 -251t-214 -116q-55 0 -89 39t-34 107.5t46 165t121 181t153 124.5q32 21 100 21
q51 0 83.5 -39.5t32.5 -93t-8 -80.5q41 14 69.5 27.5t28.5 14.5q0 56 60 115t147 97t162 38q40 0 64 -17.5t24 -46.5zM297 149q98 97 137 202q-25 -5 -64 -5q-168 0 -190 75q-84 -117 -84 -230q0 -45 21.5 -72t63.5 -27q59 0 116 57zM880 254q-59 0 -137.5 -45t-127.5 -107
q40 -45 113.5 -45t144 47.5t70.5 102.5q0 22 -17 34.5t-46 12.5zM284 527q-33 -34 -33 -65.5t32 -50t80.5 -18.5t84.5 9q6 30 6 58q0 99 -85 99q-39 0 -85 -32z" />
    <glyph glyph-name="oe" unicode="&#x153;" horiz-adv-x="606" 
d="M530 123l23 -18q-31 -43 -85 -71.5t-104 -28.5q-77 0 -104 59q-57 -70 -137 -70q-58 0 -90.5 33.5t-32.5 92.5q0 95 74 170.5t166 75.5q17 0 24 -1l3 -33q-80 0 -133 -46t-53 -118q0 -43 21 -69.5t61.5 -26.5t64.5 36t24 84.5t-19 88.5l52 16q15 -27 20 -48
q46 58 112 96.5t130 38.5t64 -52q0 -54 -69.5 -109t-195.5 -100q9 -23 28 -36t39 -13q43 0 117 49zM341 153q81 28 139 70t58 77q0 14 -10 23.5t-23 9.5q-47 0 -101.5 -58.5t-62.5 -121.5z" />
    <glyph glyph-name="Racute" unicode="&#x154;" horiz-adv-x="655" 
d="M510 -65l5 -47q-28 -5 -49 -5q-47 0 -90 62.5t-67.5 146.5t-30.5 162q-50 -130 -94.5 -188.5t-91.5 -58.5q-24 0 -38 19.5t-14 51.5q0 74 68.5 188t160.5 187q2 6 17.5 73t18.5 74l58 5q0 -17 -9 -71q135 103 222 103q41 0 65 -22.5t24 -60.5q0 -95 -96 -191.5
t-205 -113.5q8 -145 50.5 -227t95.5 -87zM219 269q27 72 37 115q-55 -51 -101.5 -136t-46.5 -126q0 -21 17 -21q30 0 94 168zM287 283q106 0 190 74t84 147q0 27 -13.5 42t-42.5 15t-84 -32.5t-79 -53.5q-31 -123 -55 -192zM567 741l-171 -56l-29 18l132 78z" />
    <glyph glyph-name="racute" unicode="&#x155;" horiz-adv-x="375" 
d="M300 354q25 0 41 -17t16 -44q0 -54 -62 -114l-24 19q14 31 14 45q0 27 -30 27t-57 -38t-63.5 -117.5t-55.5 -112.5l-57 25q55 125 63 147q27 78 27 198l56 15q-3 -65 -9 -100.5t-29 -115.5q101 183 170 183zM384 452l-171 -56l-29 18l132 78z" />
    <glyph glyph-name="uni0156" unicode="&#x156;" horiz-adv-x="625" 
d="M191.5 -49.5q13.5 12.5 33 12.5t30.5 -11.5t11 -30.5q0 -44 -76 -99l-22 32q40 32 41 34q-31 10 -31 32q0 18 13.5 30.5zM495 -65l5 -47q-28 -5 -49 -5q-47 0 -90 62.5t-67.5 146.5t-30.5 162q-50 -130 -94.5 -188.5t-91.5 -58.5q-24 0 -38 19.5t-14 51.5q0 74 68.5 188
t160.5 187q2 6 17.5 73t18.5 74l58 5q0 -17 -9 -71q135 103 222 103q41 0 65 -22.5t24 -60.5q0 -95 -96 -191.5t-205 -113.5q8 -145 50.5 -227t95.5 -87zM204 269q27 72 37 115q-55 -51 -101.5 -136t-46.5 -126q0 -21 17 -21q30 0 94 168zM272 283q106 0 190 74t84 147
q0 27 -13.5 42t-42.5 15t-84 -32.5t-79 -53.5q-31 -123 -55 -192z" />
    <glyph glyph-name="uni0157" unicode="&#x157;" horiz-adv-x="345" 
d="M88.5 -52.5q13.5 12.5 33 12.5t30.5 -11.5t11 -30.5q0 -44 -76 -99l-22 32q40 32 41 34q-31 10 -31 32q0 18 13.5 30.5zM285 354q25 0 41 -17t16 -44q0 -54 -62 -114l-24 19q14 31 14 45q0 27 -30 27t-57 -38t-63.5 -117.5t-55.5 -112.5l-57 25q55 125 63 147
q27 78 27 198l56 15q-3 -65 -9 -100.5t-29 -115.5q101 183 170 183z" />
    <glyph glyph-name="Rcaron" unicode="&#x158;" horiz-adv-x="655" 
d="M510 -65l5 -47q-28 -5 -49 -5q-47 0 -90 62.5t-67.5 146.5t-30.5 162q-50 -130 -94.5 -188.5t-91.5 -58.5q-24 0 -38 19.5t-14 51.5q0 74 68.5 188t160.5 187q2 6 17.5 73t18.5 74l58 5q0 -17 -9 -71q135 103 222 103q41 0 65 -22.5t24 -60.5q0 -95 -96 -191.5
t-205 -113.5q8 -145 50.5 -227t95.5 -87zM219 269q27 72 37 115q-55 -51 -101.5 -136t-46.5 -126q0 -21 17 -21q30 0 94 168zM287 283q106 0 190 74t84 147q0 27 -13.5 42t-42.5 15t-84 -32.5t-79 -53.5q-31 -123 -55 -192zM498 671l-147 114l44 24q55 -42 99 -70
q18 13 103 64l30 -24q-15 -17 -101 -86z" />
    <glyph glyph-name="rcaron" unicode="&#x159;" horiz-adv-x="375" 
d="M300 354q25 0 41 -17t16 -44q0 -54 -62 -114l-24 19q14 31 14 45q0 27 -30 27t-57 -38t-63.5 -117.5t-55.5 -112.5l-57 25q55 125 63 147q27 78 27 198l56 15q-3 -65 -9 -100.5t-29 -115.5q101 183 170 183zM254 390l-147 114l44 24q55 -42 99 -70q18 13 103 64l30 -24
q-15 -17 -101 -86z" />
    <glyph glyph-name="Sacute" unicode="&#x15a;" horiz-adv-x="647" 
d="M536 181l71 1v-41q-12 2 -28 2t-36 -2q0 -77 -74 -156t-178.5 -128.5t-194.5 -49.5q-47 0 -76.5 24t-29.5 63q0 58 77 121t180 104t186 48q-10 15 -31 26t-86 34.5t-92 52t-27 80.5t56 119t132.5 112.5t134.5 45.5q26 0 43 -18.5t17 -45.5q0 -44 -53 -110.5t-118 -101.5
l-24 34q39 20 68.5 62.5t29.5 73.5t-33 31q-47 0 -107.5 -58.5t-60.5 -109.5q0 -35 18 -55t91 -49.5t104 -52t41 -56.5zM90 -80q0 -48 78 -48q43 0 111.5 31.5t121 88t52.5 115.5q0 7 -3 21q-137 -13 -248.5 -77t-111.5 -131zM528 737l-171 -56l-29 18l132 78z" />
    <glyph glyph-name="sacute" unicode="&#x15b;" 
d="M347 391l-9 -39q-17 2 -44 2q-100 0 -100 -66q0 -14 40.5 -82t40.5 -91q0 -54 -36.5 -84.5t-97.5 -30.5q-84 0 -135 93l38 27q14 -11 30 -26.5t24 -21.5q19 -17 42 -17t40 16.5t17 41t-43.5 91.5t-43.5 94q0 49 41.5 75t109 26t86.5 -8zM336 472l-171 -56l-29 18l132 78z
" />
    <glyph glyph-name="Scircumflex" unicode="&#x15c;" horiz-adv-x="617" 
d="M521 181l71 1v-41q-12 2 -28 2t-36 -2q0 -77 -74 -156t-178.5 -128.5t-194.5 -49.5q-47 0 -76.5 24t-29.5 63q0 58 77 121t180 104t186 48q-10 15 -31 26t-86 34.5t-92 52t-27 80.5t56 119t132.5 112.5t134.5 45.5q26 0 43 -18.5t17 -45.5q0 -44 -53 -110.5t-118 -101.5
l-24 34q39 20 68.5 62.5t29.5 73.5t-33 31q-47 0 -107.5 -58.5t-60.5 -109.5q0 -35 18 -55t91 -49.5t104 -52t41 -56.5zM75 -80q0 -48 79 -48q42 0 110.5 31.5t121 88t52.5 115.5q0 7 -3 21q-137 -13 -248.5 -77t-111.5 -131zM273 700l147 114q108 -86 129 -108l-30 -24
q-85 51 -103 64l-99 -70z" />
    <glyph glyph-name="scircumflex" unicode="&#x15d;" horiz-adv-x="321" 
d="M332 391l-9 -39q-17 2 -44 2q-100 0 -100 -66q0 -14 40.5 -82t40.5 -91q0 -54 -36.5 -84.5t-97.5 -30.5q-84 0 -135 93l38 27q14 -11 30 -26.5t23 -21.5q20 -17 43 -17t40 16.5t17 41t-43.5 91.5t-43.5 94q0 49 41.5 75t109 26t86.5 -8zM99 463l147 114q108 -86 129 -108
l-30 -24q-85 51 -103 64l-99 -70z" />
    <glyph glyph-name="Scedilla" unicode="&#x15e;" horiz-adv-x="538" 
d="M137 -133q24 13 56.5 13t49 -13t16.5 -33q0 -37 -53 -73t-115 -36q-11 0 -24 3l1 24q51 0 86 22t35 46q0 8 -7.5 14t-18 6t-31.5 -14q-24 -13 -31 -13t-12 4t-5 14t33 76q-54 9 -76 39.5t-22 63.5q0 62 67.5 116t180.5 60l-10 -28q-74 -10 -114.5 -47t-40.5 -80
q0 -27 15 -48.5t42 -21.5q78 0 139.5 64.5t61.5 122.5q0 29 -24.5 51.5t-82.5 38t-86 48.5t-28 71q0 60 59 127.5t135 110t129 42.5q34 0 50 -19t16 -43q0 -46 -52.5 -112.5t-118.5 -101.5l-24 34q39 20 68.5 62.5t29.5 73.5t-32 31q-49 0 -109 -58.5t-60 -118.5
q0 -25 20 -45.5t82.5 -47t93.5 -51t31 -60t-27 -84t-69 -91.5t-98.5 -72.5t-108.5 -29.5z" />
    <glyph glyph-name="scedilla" unicode="&#x15f;" 
d="M126 -51q24 13 56.5 13t49 -13t16.5 -33q0 -37 -53 -73t-115 -36q-10 0 -24 3l1 24q51 0 86 22t35 46q0 8 -7.5 14t-18 6t-31.5 -14q-24 -13 -31 -13t-12 4t-5 9q0 17 40 94q-65 13 -107 91l38 27q14 -11 30 -26.5t24 -21.5q19 -17 42 -17t40 16.5t17 41t-43.5 91.5
t-43.5 94q0 49 41.5 75t109 26t86.5 -8l-9 -39q-17 2 -44 2q-100 0 -100 -66q0 -14 40.5 -82t40.5 -91q0 -52 -34 -82.5t-91 -32.5z" />
    <glyph glyph-name="Scaron" unicode="&#x160;" horiz-adv-x="647" 
d="M536 181l71 1v-41q-12 2 -28 2t-36 -2q0 -77 -74 -156t-178.5 -128.5t-194.5 -49.5q-47 0 -76.5 24t-29.5 63q0 58 77 121t180 104t186 48q-10 15 -31 26t-86 34.5t-92 52t-27 80.5t56 119t132.5 112.5t134.5 45.5q26 0 43 -18.5t17 -45.5q0 -44 -53 -110.5t-118 -101.5
l-24 34q39 20 68.5 62.5t29.5 73.5t-33 31q-47 0 -107.5 -58.5t-60.5 -109.5q0 -35 18 -55t91 -49.5t104 -52t41 -56.5zM90 -80q0 -48 78 -48q43 0 111.5 31.5t121 88t52.5 115.5q0 7 -3 21q-137 -13 -248.5 -77t-111.5 -131zM414 672l-147 114l44 24q55 -42 99 -70
q18 13 103 64l30 -24q-15 -17 -101 -86z" />
    <glyph glyph-name="scaron" unicode="&#x161;" 
d="M347 391l-9 -39q-17 2 -44 2q-100 0 -100 -66q0 -14 40.5 -82t40.5 -91q0 -54 -36.5 -84.5t-97.5 -30.5q-84 0 -135 93l38 27q14 -11 30 -26.5t24 -21.5q19 -17 42 -17t40 16.5t17 41t-43.5 91.5t-43.5 94q0 49 41.5 75t109 26t86.5 -8zM214 427l-147 114l44 24
q55 -42 99 -70q18 13 103 64l30 -24q-15 -17 -101 -86z" />
    <glyph glyph-name="uni0162" unicode="&#x162;" horiz-adv-x="560" 
d="M216.5 -38.5q13.5 12.5 33 12.5t30.5 -11.5t11 -30.5q0 -44 -76 -99l-22 32q40 32 41 34q-31 10 -31 32q0 18 13.5 30.5zM444 555l-143 3q-219 0 -219 -96q0 -25 18.5 -40.5t55.5 -15.5t97 34l15 -26q-31 -33 -70 -52t-78 -19t-67 26t-28 65q0 79 85.5 138t231.5 59
q12 0 86 -4t117 -4t79 13q14 4 17 4q14 0 14 -18q0 -26 -45.5 -47t-104.5 -21q-66 -64 -115.5 -223.5t-118 -243t-162.5 -83.5q-37 0 -70 24l23 38q12 -6 27 -11l14 -2q5 -1 15 -1q50 0 89.5 48t83 181.5t68 177t85.5 96.5z" />
    <glyph glyph-name="uni0163" unicode="&#x163;" horiz-adv-x="320" 
d="M57.5 -69.5q13.5 12.5 33 12.5t30.5 -11.5t11 -30.5q0 -44 -76 -99l-22 32q40 32 41 34q-31 10 -31 32q0 18 13.5 30.5zM239 112l22 -25q-25 -39 -60.5 -61t-71.5 -22t-57 20.5t-21 56.5q0 84 63 232q-51 -8 -102 -24l-7 39l-1 1q50 21 131 34q8 15 36 73q56 115 80 149
l43 -17q-10 -22 -35 -73.5t-56 -116.5q45 3 71 3t40 -8v-43q-14 3 -41 3t-94 -9q-59 -132 -59 -192q0 -23 14.5 -38t39 -15t65.5 33z" />
    <glyph glyph-name="Tcaron" unicode="&#x164;" horiz-adv-x="590" 
d="M459 555l-143 3q-219 0 -219 -96q0 -25 18.5 -40.5t55.5 -15.5t97 34l15 -26q-31 -33 -70 -52t-78 -19t-67 26t-28 65q0 79 85.5 138t231.5 59q12 0 86 -4t117 -4t79 13q14 4 17 4q14 0 14 -18q0 -26 -45.5 -47t-104.5 -21q-66 -64 -115.5 -223.5t-118 -243t-162.5 -83.5
q-37 0 -70 24l23 38q12 -6 27 -11l14 -2q5 -1 15 -1q50 0 89.5 48t83 181.5t68 177t85.5 96.5zM449 667l-147 114l44 24q55 -42 99 -70q18 13 103 64l30 -24q-15 -17 -102 -86z" />
    <glyph glyph-name="tcaron" unicode="&#x165;" horiz-adv-x="433" 
d="M254 112l22 -25q-25 -39 -60.5 -61t-71.5 -22t-57 20.5t-21 56.5q0 84 63 232q-51 -8 -102 -24l-7 39l-1 1q50 21 131 34q8 15 36 73q56 115 80 149l43 -17q-10 -22 -35 -73.5t-56 -116.5q45 3 71 3t40 -8v-43q-14 3 -40.5 3t-94.5 -9q-59 -132 -59 -192q0 -23 14.5 -38
t39 -15t65.5 33zM343.5 573.5q13.5 12.5 33 12.5t30.5 -11.5t11 -30.5q0 -44 -76 -99l-22 32q40 32 41 34q-31 10 -31 32q0 18 13.5 30.5z" />
    <glyph glyph-name="Tbar" unicode="&#x166;" horiz-adv-x="560" 
d="M444 555l-143 3q-219 0 -219 -96q0 -25 18.5 -40.5t55.5 -15.5t97 34l15 -26q-31 -33 -70 -52t-78 -19t-67 26t-28 65q0 79 85.5 138t231.5 59q12 0 86 -4t117 -4t79 13q14 4 17 4q14 0 14 -18q0 -26 -45.5 -47t-104.5 -21q-66 -64 -112 -213q-18 -58 -37 -104l118 9v-56
l-143 -7q-88 -179 -222 -179q-37 0 -70 24l23 38q12 -6 27 -11l14 -2q5 -1 15 -1q40 0 71.5 28t64.5 103l-119 -8l-16 41q10 1 43 6q77 13 113 13l16 48q45 133 68.5 176t84.5 96z" />
    <glyph glyph-name="tbar" unicode="&#x167;" horiz-adv-x="320" 
d="M340 505l3 -52l-109 -10l-31 -65q45 3 71 3t40 -8v-43q-14 3 -41 3t-94 -9q-59 -132 -59 -192q0 -23 14.5 -38t39 -15t65.5 33l22 -25q-25 -39 -60.5 -61t-71.5 -22t-57 20.5t-21 56.5q0 84 63 232q-51 -8 -102 -24l-7 39l-1 1q50 21 131 34l36 74l-112 -10l-17 45
q54 13 158 22q29 59 51 91l43 -17q-11 -28 -33 -69z" />
    <glyph glyph-name="Utilde" unicode="&#x168;" horiz-adv-x="691" 
d="M558 78l32 -26q-12 -34 -41 -62.5t-63 -28.5q-46 0 -75 45t-38 130q-46 -50 -115 -94.5t-121 -44.5t-82 35t-30 90q0 125 122 297t247 245l27 -38q-114 -85 -209 -224t-95 -244q0 -39 18.5 -60.5t52 -21.5t93.5 39t90 73q5 97 46.5 197t99 163.5t107.5 63.5q42 0 42 -51
t-75 -170.5t-149 -189.5q-2 -16 -2 -26q0 -44 17.5 -91.5t46.5 -47.5q25 0 54 42zM573 518q-33 0 -73 -77.5t-51 -164.5q62 74 99.5 136.5t37.5 90.5q0 15 -13 15zM644 796l23 -19q-19 -30 -43.5 -51t-45 -21t-44.5 34.5t-44 34.5q-10 0 -20 -7t-15.5 -11t-15.5 -12t-16 -12
l-28 26q74 65 99.5 65t54.5 -35t44 -35q10 0 26.5 18t24.5 25z" />
    <glyph glyph-name="utilde" unicode="&#x169;" horiz-adv-x="430" 
d="M406 110l21 -17q-17 -42 -53.5 -71t-66 -29t-46.5 20.5t-17 53.5t11 85q-47 -74 -101 -116t-91 -42q-56 0 -56 80q0 68 46 174t67 123l48 -21q-41 -66 -62 -130t-21 -85.5t13.5 -34.5t31.5 -13q40 0 99.5 73.5t121.5 219.5l51 -23q-2 -8 -45.5 -116t-43.5 -129.5
t9.5 -32.5t19 -11t14.5 1t10 4t8.5 5t8.5 7l7 7q3 3 8.5 9.5t7.5 8.5zM376 516l23 -19q-19 -30 -43.5 -51t-45 -21t-44.5 34.5t-44 34.5q-10 0 -20 -7t-15.5 -11t-15.5 -12t-16 -12l-28 26q74 65 99.5 65t54.5 -35t44 -35q10 0 26.5 18t24.5 25z" />
    <glyph glyph-name="Umacron" unicode="&#x16a;" horiz-adv-x="691" 
d="M558 78l32 -26q-12 -34 -41 -62.5t-63 -28.5q-46 0 -75 45t-38 130q-46 -50 -115 -94.5t-121 -44.5t-82 35t-30 90q0 125 122 297t247 245l27 -38q-114 -85 -209 -224t-95 -244q0 -39 18.5 -60.5t52 -21.5t93.5 39t90 73q5 97 46.5 197t99 163.5t107.5 63.5q42 0 42 -51
t-75 -170.5t-149 -189.5q-2 -16 -2 -26q0 -44 17.5 -91.5t46.5 -47.5q25 0 54 42zM573 518q-33 0 -73 -77.5t-51 -164.5q62 74 99.5 136.5t37.5 90.5q0 15 -13 15zM626 747v-36l-177 -6l-9 31q33 7 186 11z" />
    <glyph glyph-name="umacron" unicode="&#x16b;" horiz-adv-x="430" 
d="M406 110l21 -17q-17 -42 -53.5 -71t-66 -29t-46.5 20.5t-17 53.5t11 85q-47 -74 -101 -116t-91 -42q-56 0 -56 80q0 68 46 174t67 123l48 -21q-41 -66 -62 -130t-21 -85.5t13.5 -34.5t31.5 -13q40 0 99.5 73.5t121.5 219.5l51 -23q-2 -8 -45.5 -116t-43.5 -129.5
t9.5 -32.5t19 -11t14.5 1t10 4t8.5 5t8.5 7l7 7q3 3 8.5 9.5t7.5 8.5zM381 479v-36l-177 -6l-9 31q33 7 186 11z" />
    <glyph glyph-name="Ubreve" unicode="&#x16c;" horiz-adv-x="691" 
d="M558 78l32 -26q-12 -34 -41 -62.5t-63 -28.5q-46 0 -75 45t-38 130q-46 -50 -115 -94.5t-121 -44.5t-82 35t-30 90q0 125 122 297t247 245l27 -38q-114 -85 -209 -224t-95 -244q0 -39 18.5 -60.5t52 -21.5t93.5 39t90 73q5 97 46.5 197t99 163.5t107.5 63.5q42 0 42 -51
t-75 -170.5t-149 -189.5q-2 -16 -2 -26q0 -44 17.5 -91.5t46.5 -47.5q25 0 54 42zM573 518q-33 0 -73 -77.5t-51 -164.5q62 74 99.5 136.5t37.5 90.5q0 15 -13 15zM610 792l30 -16q-20 -31 -51.5 -55t-62.5 -24t-65 23.5t-55 47.5l32 27q52 -51 85 -51q51 0 87 48z" />
    <glyph glyph-name="ubreve" unicode="&#x16d;" horiz-adv-x="430" 
d="M406 110l21 -17q-17 -42 -53.5 -71t-66 -29t-46.5 20.5t-17 53.5t11 85q-47 -74 -101 -116t-91 -42q-56 0 -56 80q0 68 46 174t67 123l48 -21q-41 -66 -62 -130t-21 -85.5t13.5 -34.5t31.5 -13q40 0 99.5 73.5t121.5 219.5l51 -23q-2 -8 -45.5 -116t-43.5 -129.5
t9.5 -32.5t19 -11t14.5 1t10 4t8.5 5t8.5 7l7 7q3 3 8.5 9.5t7.5 8.5zM365 522l30 -16q-20 -31 -51.5 -55t-62.5 -24t-65 23.5t-55 47.5l32 27q52 -51 85 -51q51 0 87 48z" />
    <glyph glyph-name="Uring" unicode="&#x16e;" horiz-adv-x="721" 
d="M573 78l32 -26q-12 -34 -41 -62.5t-63 -28.5q-46 0 -75 45t-38 130q-46 -50 -115 -94.5t-121 -44.5t-82 35t-30 90q0 125 122 297t247 245l27 -38q-114 -85 -209 -224t-95 -244q0 -39 18.5 -60.5t52 -21.5t93.5 39t90 73q5 97 46.5 197t99 163.5t107.5 63.5q42 0 42 -51
t-75 -170.5t-149 -189.5q-2 -16 -2 -26q0 -44 17.5 -91.5t46.5 -47.5q25 0 54 42zM588 518q-33 0 -73 -77.5t-51 -164.5q62 74 99.5 136.5t37.5 90.5q0 15 -13 15zM605.5 779q15.5 -13 15.5 -39.5t-26 -49.5t-56 -23t-45.5 13.5t-15.5 40.5t25.5 49t56 22t46 -13zM569 706
q13 19 13 43t-21 24q-17 0 -31 -19.5t-14 -43t24 -23.5q16 0 29 19z" />
    <glyph glyph-name="uring" unicode="&#x16f;" horiz-adv-x="460" 
d="M421 110l21 -17q-17 -42 -53.5 -71t-66 -29t-46.5 20.5t-17 53.5t11 85q-47 -74 -101 -116t-91 -42q-56 0 -56 80q0 68 46 174t67 123l48 -21q-41 -66 -62 -130t-21 -85.5t13.5 -34.5t31.5 -13q40 0 99.5 73.5t121.5 219.5l51 -23q-2 -8 -45.5 -116t-43.5 -129.5
t9.5 -32.5t19 -11t14.5 1t10 4t8.5 5t8.5 7l8 7q2 3 7.5 9.5t7.5 8.5zM358.5 511q15.5 -13 15.5 -39.5t-26 -49.5t-56 -23t-45.5 13.5t-15.5 40.5t25.5 49t56 22t46 -13zM322 438q13 19 13 43t-21 24q-17 0 -31 -19.5t-14 -43t24 -23.5q16 0 29 19z" />
    <glyph glyph-name="Uhungarumlaut" unicode="&#x170;" horiz-adv-x="721" 
d="M573 78l32 -26q-12 -34 -41 -62.5t-63 -28.5q-46 0 -75 45t-38 130q-46 -50 -115 -94.5t-121 -44.5t-82 35t-30 90q0 125 122 297t247 245l27 -38q-114 -85 -209 -224t-95 -244q0 -39 18.5 -60.5t52 -21.5t93.5 39t90 73q5 97 46.5 197t99 163.5t107.5 63.5q42 0 42 -51
t-75 -170.5t-149 -189.5q-2 -16 -2 -26q0 -44 17.5 -91.5t46.5 -47.5q25 0 54 42zM588 518q-33 0 -73 -77.5t-51 -164.5q62 74 99.5 136.5t37.5 90.5q0 15 -13 15zM585 764l-136 -85l-41 14l92 96zM721 754l-140 -77l-42 16l113 89z" />
    <glyph glyph-name="uhungarumlaut" unicode="&#x171;" horiz-adv-x="460" 
d="M421 110l21 -17q-17 -42 -53.5 -71t-66 -29t-46.5 20.5t-17 53.5t11 85q-47 -74 -101 -116t-91 -42q-56 0 -56 80q0 68 46 174t67 123l48 -21q-41 -66 -62 -130t-21 -85.5t13.5 -34.5t31.5 -13q40 0 99.5 73.5t121.5 219.5l51 -23q-2 -8 -45.5 -116t-43.5 -129.5
t9.5 -32.5t19 -11t14.5 1t10 4t8.5 5t8.5 7l8 7q2 3 7.5 9.5t7.5 8.5zM333 498l-136 -85l-41 14l92 96zM469 488l-140 -77l-42 16l113 89z" />
    <glyph glyph-name="Uogonek" unicode="&#x172;" horiz-adv-x="691" 
d="M541 -96l20 -16q-30 -40 -82.5 -71t-84 -31t-48 13.5t-16.5 32.5q0 38 27.5 83.5t62.5 78.5q-36 43 -47 142q-46 -50 -115 -94.5t-121 -44.5t-82 35t-30 90q0 125 122 297t247 245l27 -38q-114 -85 -209 -224t-95 -244q0 -39 18.5 -60.5t52 -21.5t93.5 39t90 73
q5 97 46.5 197t99 163.5t107.5 63.5q42 0 42 -51t-75 -170.5t-149 -189.5q-2 -16 -2 -26q0 -44 17.5 -91.5t46.5 -47.5q25 0 54 42l32 -26q-12 -34 -41 -62.5t-63 -28.5q-19 0 -33 7q-37 -56 -37 -81q0 -8 7 -16t23 -8q36 0 95 41zM573 518q-33 0 -73 -77.5t-51 -164.5
q62 74 99.5 136.5t37.5 90.5q0 15 -13 15z" />
    <glyph glyph-name="uogonek" unicode="&#x173;" horiz-adv-x="430" 
d="M382 -90l20 -16q-30 -40 -82.5 -71t-84 -31t-48 13.5t-16.5 32.5q0 40 30.5 88t66.5 80q-24 21 -24 57.5t11 88.5q-47 -74 -101 -116t-91 -42q-56 0 -56 80q0 68 46 174t67 123l48 -21q-41 -66 -62 -130t-21 -85.5t13.5 -34.5t31.5 -13q40 0 99.5 73.5t121.5 219.5
l51 -23q-2 -8 -45.5 -116t-43.5 -129.5t9.5 -32.5t19 -11t14.5 1t10 4t8.5 5t8.5 7l7 7q3 3 8.5 9.5t7.5 8.5l21 -17q-17 -41 -52 -69.5t-66 -30.5q-21 -24 -36.5 -55.5t-15.5 -42t7 -18.5t23 -8q36 0 95 41z" />
    <glyph glyph-name="Wcircumflex" unicode="&#x174;" horiz-adv-x="779" 
d="M714 620l74 10q6 -27 6 -59q0 -80 -37.5 -182t-90.5 -185.5t-113 -141t-101 -57.5q-88 0 -88 138q0 66 47 274q-116 -164 -214 -287.5t-118.5 -123.5t-37 16t-16.5 33t6 34q43 129 56.5 242t13.5 202.5t-1 110.5h78q6 -32 6 -99.5t-16.5 -188t-40.5 -223.5q75 96 310 422
q27 39 43.5 51.5t40 12.5t23.5 -23q0 -9 -25 -86t-48 -191t-23 -173t30 -59q21 0 52 30q77 74 131 203.5t54 266.5q0 22 -1 33zM365 692l147 114q108 -86 129 -108l-30 -24q-85 51 -103 64l-99 -70z" />
    <glyph glyph-name="wcircumflex" unicode="&#x175;" horiz-adv-x="587" 
d="M573 389l28 -26l-60 -73q-106 -131 -157 -260q-14 -27 -27 -27t-21.5 3.5t-19 25.5t-14.5 53t-7 53t-4 32.5t-2.5 22t-2.5 17.5l-2 12t-3 11.5t-3 10t-4.5 15.5t-5.5 19q-52 -56 -89 -132q-14 -29 -55 -116q-9 -19 -24.5 -19t-25 3.5t-19.5 23.5t-15 60q-24 201 -46 274
q29 8 58 8q5 -9 13 -55q17 -89 43 -209q49 94 108.5 173.5t78.5 79.5q22 0 30.5 -30.5t15 -102t17.5 -119.5q94 161 215 272zM155 411l147 114q108 -86 129 -108l-30 -24q-85 51 -103 64l-99 -70z" />
    <glyph glyph-name="Ycircumflex" unicode="&#x176;" horiz-adv-x="650" 
d="M315 9l30 -1q6 21 27.5 80t30.5 78q-104 -98 -161 -118q-31 -11 -63 -11q-53 0 -82 35t-29 98q0 90 83 240.5t189 235.5l40 -37q-222 -239 -222 -399q0 -93 73 -93t142 80t143 248q30 69 46 91t31 22t23.5 -9t8.5 -24q0 -64 -92 -190q-64 -132 -129 -328q47 -3 100 -23
l-10 -34l-106 15q-59 -144 -142.5 -215.5t-199.5 -71.5q-60 0 -100.5 32.5t-40.5 81.5q0 90 121 153.5t289 63.5zM91 -253q81 0 143.5 65.5t92.5 153.5q-134 0 -225 -45.5t-91 -110.5q0 -28 22.5 -45.5t57.5 -17.5zM315 708l147 114q108 -86 129 -108l-30 -24
q-85 51 -103 64l-99 -70z" />
    <glyph glyph-name="ycircumflex" unicode="&#x177;" horiz-adv-x="441" 
d="M416 63l3 -26q-4 -3 -93 -36q-12 -66 -30.5 -130.5t-37 -98t-42.5 -66.5q-51 -66 -136 -66q-42 0 -67 26t-25 71q0 173 290 278l54 190q-86 -129 -154 -159q-35 -16 -72.5 -16t-60 24t-22.5 70t31.5 128.5t70.5 138.5l49 -21q-3 -3 -28 -53q-44 -91 -44 -135t17 -59
t50 -15t74.5 39.5t128.5 156.5l36 -21q-8 -33 -35.5 -119.5t-37.5 -132.5zM272 -15q-63 -29 -111 -66q-90 -68 -90 -132q0 -24 14 -39t35 -15q100 0 152 252zM209 423l147 114q108 -86 129 -108l-30 -24q-85 51 -103 64l-99 -70z" />
    <glyph glyph-name="Ydieresis" unicode="&#x178;" horiz-adv-x="680" 
d="M330 9l30 -1q6 21 27.5 80t30.5 78q-104 -98 -161 -118q-31 -11 -63 -11q-53 0 -82 35t-29 98q0 90 83 240.5t189 235.5l40 -37q-222 -239 -222 -399q0 -93 73 -93t142 80t143 248q30 69 46 91t31 22t23.5 -9t8.5 -24q0 -64 -92 -190q-64 -132 -129 -328q47 -3 100 -23
l-10 -34l-106 15q-59 -144 -142.5 -215.5t-199.5 -71.5q-60 0 -100.5 32.5t-40.5 81.5q0 90 121 153.5t289 63.5zM106 -253q81 0 143.5 65.5t92.5 153.5q-134 0 -225 -45.5t-91 -110.5q0 -28 22.5 -45.5t57.5 -17.5zM427 743q0 17 11.5 28.5t27.5 11.5t28 -11.5t12 -28
t-11.5 -28t-28 -11.5t-28 11t-11.5 28zM554 743q0 17 11.5 28.5t28 11.5t28 -11.5t11.5 -28t-11.5 -28t-28.5 -11.5t-28 11t-11 28z" />
    <glyph glyph-name="Zacute" unicode="&#x179;" horiz-adv-x="678" 
d="M233 479l5 -45q0 -8 -5.5 -14.5t-12.5 -6.5q-19 0 -39 33t-20 62q0 63 74 85t208 22t164.5 -8.5t30.5 -47.5q0 -17 -16.5 -38t-65 -66t-165 -142t-177.5 -160t-78 -88q42 -2 54 -2q135 0 195 15t60 52l-5 45q0 8 5.5 14.5t12.5 6.5q19 0 39 -33t20 -62q0 -63 -74 -85
t-208 -22t-164.5 8.5t-30.5 47.5q0 27 77.5 101t196.5 174.5t162 142.5t66 76q-42 2 -54 2q-135 0 -195 -15t-60 -52zM501 720l-171 -56l-29 18l132 78z" />
    <glyph glyph-name="zacute" unicode="&#x17a;" horiz-adv-x="439" 
d="M365 74l-1 -42q-23 -1 -63 -2t-55.5 -1.5t-42.5 -2.5q-46 -3 -85 -12q-49 -11 -53 -11q-19 0 -38.5 23t-19.5 45q0 42 300 253q-13 1 -59.5 1t-161.5 -20l-6 34q68 41 254 41q39 0 55.5 -6t16.5 -27q0 -23 -26 -42q-5 -4 -16.5 -11t-41.5 -28t-60.5 -43.5t-77.5 -67.5
t-90 -99q138 22 186.5 22t84.5 -4zM335 466l-171 -56l-29 18l132 78z" />
    <glyph glyph-name="Zdotaccent" unicode="&#x17b;" horiz-adv-x="678" 
d="M233 479l5 -45q0 -8 -5.5 -14.5t-12.5 -6.5q-19 0 -39 33t-20 62q0 63 74 85t208 22t164.5 -8.5t30.5 -47.5q0 -17 -16.5 -38t-65 -66t-165 -142t-177.5 -160t-78 -88q42 -2 54 -2q135 0 195 15t60 52l-5 45q0 8 5.5 14.5t12.5 6.5q19 0 39 -33t20 -62q0 -63 -74 -85
t-208 -22t-164.5 8.5t-30.5 47.5q0 27 77.5 101t196.5 174.5t162 142.5t66 76q-42 2 -54 2q-135 0 -195 -15t-60 -52zM399 721q0 17 11.5 28.5t27.5 11.5t28 -11.5t12 -28t-11.5 -28t-28 -11.5t-28 11t-11.5 28z" />
    <glyph glyph-name="zdotaccent" unicode="&#x17c;" horiz-adv-x="439" 
d="M365 74l-1 -42q-23 -1 -63 -2t-55.5 -1.5t-42.5 -2.5q-46 -3 -85 -12q-49 -11 -53 -11q-19 0 -38.5 23t-19.5 45q0 42 300 253q-13 1 -59.5 1t-161.5 -20l-6 34q68 41 254 41q39 0 55.5 -6t16.5 -27q0 -23 -26 -42q-5 -4 -16.5 -11t-41.5 -28t-60.5 -43.5t-77.5 -67.5
t-90 -99q138 22 186.5 22t84.5 -4zM180 453q0 17 11.5 28.5t28 11.5t28 -11.5t11.5 -28t-11.5 -28t-28.5 -11.5t-28 11t-11 28z" />
    <glyph glyph-name="Zcaron" unicode="&#x17d;" horiz-adv-x="678" 
d="M233 479l5 -45q0 -8 -5.5 -14.5t-12.5 -6.5q-19 0 -39 33t-20 62q0 63 74 85t208 22t164.5 -8.5t30.5 -47.5q0 -17 -16.5 -38t-65 -66t-165 -142t-177.5 -160t-78 -88q42 -2 54 -2q135 0 195 15t60 52l-5 45q0 8 5.5 14.5t12.5 6.5q19 0 39 -33t20 -62q0 -63 -74 -85
t-208 -22t-164.5 8.5t-30.5 47.5q0 27 77.5 101t196.5 174.5t162 142.5t66 76q-42 2 -54 2q-135 0 -195 -15t-60 -52zM431 674l-147 114l44 24q55 -42 99 -70q18 13 103 64l30 -24q-15 -17 -102 -86z" />
    <glyph glyph-name="zcaron" unicode="&#x17e;" horiz-adv-x="439" 
d="M365 74l-1 -42q-23 -1 -63 -2t-55.5 -1.5t-42.5 -2.5q-46 -3 -85 -12q-49 -11 -53 -11q-19 0 -38.5 23t-19.5 45q0 42 300 253q-13 1 -59.5 1t-161.5 -20l-6 34q68 41 254 41q39 0 55.5 -6t16.5 -27q0 -23 -26 -42q-5 -4 -16.5 -11t-41.5 -28t-60.5 -43.5t-77.5 -67.5
t-90 -99q138 22 186.5 22t84.5 -4zM240 398l-147 114l44 24q55 -42 99 -70q18 13 103 64l30 -24q-15 -17 -101 -86z" />
    <glyph glyph-name="florin" unicode="&#x192;" horiz-adv-x="623" 
d="M549 608q37 0 61.5 -18.5t24.5 -46.5q0 -54 -58.5 -112t-125.5 -61l-9 33q64 22 97.5 50.5t32.5 66.5q-1 17 -15 29t-39 12t-57.5 -29t-60.5 -78q-50 -88 -90 -199q53 -3 81.5 -3t68.5 17l22 -39q-1 0 -12.5 -9.5t-17.5 -12.5t-22 -9q-28 -11 -75.5 -11t-70.5 2
q-65 -180 -121 -247.5t-158 -67.5q-72 0 -141 38l19 33q8 -3 23 -9t22 -9l18 -6q20 -6 36 -6q124 0 228 276q-14 2 -23 2q-40 0 -78 -19l-26 46q26 22 59.5 29t93.5 7q61 182 144 266.5t169 84.5z" />
    <glyph glyph-name="AEacute" unicode="&#x1fc;" horiz-adv-x="1177" 
d="M1178 575q0 -50 -47.5 -89t-109 -57t-118.5 -18q-15 0 -22 1v34q2 0 58 9.5t94.5 33.5t38.5 54q0 36 -54 36q-73 0 -138 -50t-65 -105t68 -71q15 -4 20 -8t5 -14t-9.5 -16.5t-43.5 -18.5q-184 -63 -184 -196q0 -27 10 -46q61 78 158 127t187 49q47 0 75 -20.5t28 -56.5
q0 -56 -52 -112t-134.5 -91.5t-164.5 -35.5t-128 30q-1 -1 -8 -16q-21 -39 -35 -55l-33 14q7 28 41 85q-54 40 -54 144q0 51 15 126q-14 1 -66 1t-72 -2q-116 -156 -214 -236.5t-196 -80.5q-48 0 -80.5 29t-32.5 77q0 91 138.5 166t358.5 101q26 40 97 123.5t140 145.5
q30 70 47.5 97.5t34.5 27.5t28 -13t11 -33.5t-19 -53.5q-59 -104 -93 -345q46 37 110 62q-47 39 -47 81q0 57 60 116.5t146.5 96.5t162.5 37q40 0 64 -17.5t24 -46.5zM246 89q83 79 125 150q-168 -10 -259.5 -63t-91.5 -113q0 -26 17.5 -41t46.5 -15q78 0 162 82zM968 170
q-59 0 -137.5 -45t-127.5 -107q40 -45 113.5 -45t144 47.5t70.5 102.5q0 22 -17 34.5t-46 12.5zM588 307q7 34 18.5 85.5t13.5 60.5q-48 -46 -67 -67.5t-67 -82.5q17 1 41.5 1.5t40.5 1.5t20 1zM1019 752l-171 -56l-29 18l132 78z" />
    <glyph glyph-name="aeacute" unicode="&#x1fd;" horiz-adv-x="761" 
d="M677 118l23 -18q-31 -43 -85 -71.5t-108.5 -28.5t-86.5 38q-45 -38 -83 -38q-59 0 -59 62q0 29 15 69l-37 -38q-54 -55 -93.5 -74t-77.5 -19t-57.5 21.5t-19.5 59.5q0 70 54 138.5t138 111.5t168 44l2 -33l-42 -9q-91 -20 -160.5 -80t-69.5 -119.5t48 -59.5q45 0 111 63
t110 148l42 -25q-62 -125 -62 -159q0 -14 9.5 -23.5t21.5 -9.5t23 7q-4 15 -4 34q0 92 97.5 181t197.5 89q66 0 66 -52q0 -54 -69.5 -109t-195.5 -100q9 -23 28 -36t39 -13q44 0 117 49zM488 148q81 28 139 70t58 77q0 13 -9.5 23t-23.5 10q-47 0 -101.5 -58.5t-62.5 -121.5
zM610 462l-171 -56l-29 18l132 78z" />
    <glyph glyph-name="Oslashacute" unicode="&#x1fe;" horiz-adv-x="684" 
d="M583 721l39 -21q-42 -55 -82 -112q21 -37 21 -83.5t-8 -73.5q76 25 146 61v-48q-45 -26 -166 -71q-50 -125 -156 -236.5t-201 -128.5q-24 -42 -71 -134l-44 13q28 56 63 121q-45 8 -72 45.5t-27 102.5t46 161.5t121 181t153 124.5q32 21 100 21q37 0 65 -22zM114 191
q0 -80 58 -96q69 125 152 254q-110 15 -126 72q-84 -117 -84 -230zM302 527q-33 -34 -33 -63q0 -56 84 -69q36 54 96 140q-22 24 -61.5 24t-85.5 -32zM315 149q98 97 137 202q-25 -5 -64 -5h-14q-86 -136 -151 -251q47 9 92 54zM488 733l-171 -56l-29 18l132 78zM466 402
q6 30 6 49.5t-2 37.5q-34 -49 -65 -96q34 2 61 9z" />
    <glyph glyph-name="oslashacute" unicode="&#x1ff;" horiz-adv-x="321" 
d="M402 721l39 -21q-131 -174 -238 -339q23 5 41 5t25 -1l3 -33q-60 0 -104 -26q-36 -56 -82 -135v-3q0 -43 21 -69.5t61.5 -26.5t64.5 36t24 84.5t-19 88.5l52 16q26 -43 26 -95q0 -81 -56 -144.5t-134 -63.5t-107 59q-62 -114 -95 -179l-44 13q59 114 125 233
q0 63 35.5 121t92.5 92q123 194 269 388zM38 471l171 56l-68 40l-132 -78z" />
    <glyph glyph-name="uni0218" unicode="&#x218;" horiz-adv-x="617" 
d="M403.5 -93.5q13.5 12.5 33 12.5t30.5 -11.5t11 -30.5q0 -44 -76 -99l-22 32q40 32 41 34q-31 10 -31 32q0 18 13.5 30.5zM521 181l71 1v-41q-12 2 -28 2t-36 -2q0 -77 -74 -156t-178.5 -128.5t-194.5 -49.5q-47 0 -76.5 24t-29.5 63q0 58 77 121t180 104t186 48
q-10 15 -31 26t-86 34.5t-92 52t-27 80.5t56 119t132.5 112.5t134.5 45.5q26 0 43 -18.5t17 -45.5q0 -44 -53 -110.5t-118 -101.5l-24 34q39 20 68.5 62.5t29.5 73.5t-33 31q-47 0 -107.5 -58.5t-60.5 -109.5q0 -35 18 -55t91 -49.5t104 -52t41 -56.5zM75 -80q0 -48 79 -48
q42 0 110.5 31.5t121 88t52.5 115.5q0 7 -3 21q-137 -13 -248.5 -77t-111.5 -131z" />
    <glyph glyph-name="uni0219" unicode="&#x219;" horiz-adv-x="321" 
d="M68.5 -63.5q13.5 12.5 33 12.5t30.5 -11.5t11 -30.5q0 -44 -76 -99l-22 32q4 3 15 11.5t17.5 13.5t8.5 9q-31 10 -31 32q0 18 13.5 30.5zM332 391l-9 -39q-17 2 -44 2q-100 0 -100 -66q0 -14 40.5 -82t40.5 -91q0 -54 -36.5 -84.5t-97.5 -30.5q-84 0 -135 93l38 27
q14 -11 30 -26.5t23 -21.5q20 -17 43 -17t40 16.5t17 41t-43.5 91.5t-43.5 94q0 49 41.5 75t109 26t86.5 -8z" />
    <glyph glyph-name="circumflex" unicode="&#x2c6;" horiz-adv-x="263" 
d="M-10 411l147 114q108 -86 129 -108l-30 -24q-85 51 -103 64l-99 -70z" />
    <glyph glyph-name="caron" unicode="&#x2c7;" horiz-adv-x="263" 
d="M137 387l-147 114l44 24q55 -42 99 -70q18 13 103 64l30 -24q-15 -17 -102 -86z" />
    <glyph glyph-name="breve" unicode="&#x2d8;" horiz-adv-x="216" 
d="M195 498l30 -16q-20 -31 -51.5 -55t-62.5 -24t-65 23.5t-55 47.5l32 27q52 -51 85 -51q51 0 87 48z" />
    <glyph glyph-name="dotaccent" unicode="&#x2d9;" horiz-adv-x="66" 
d="M-4 453q0 17 11.5 28.5t28 11.5t28 -11.5t11.5 -28t-11.5 -28t-28.5 -11.5t-28 11t-11 28z" />
    <glyph glyph-name="ring" unicode="&#x2da;" horiz-adv-x="126" 
d="M119.5 505q15.5 -13 15.5 -39.5t-26 -49.5t-56 -23t-45.5 13.5t-15.5 40.5t25.5 49t56 22t46 -13zM83 432q13 19 13 43t-21 24q-17 0 -31 -19.5t-14 -43t24 -23.5q16 0 29 19z" />
    <glyph glyph-name="ogonek" unicode="&#x2db;" horiz-adv-x="219" 
d="M205 -79l20 -16q-30 -40 -82.5 -71t-84 -31t-48 13.5t-16.5 32.5q0 47 40.5 103.5t76.5 79.5l45 -5q-27 -20 -51.5 -63t-24.5 -56q0 -28 33 -28t92 41z" />
    <glyph glyph-name="tilde" unicode="&#x2dc;" horiz-adv-x="244" 
d="M236 497l23 -19q-19 -30 -43.5 -51t-45 -21t-44.5 34.5t-44 34.5q-10 0 -20 -7t-15.5 -11t-15.5 -12t-16 -12l-28 26q74 65 99.5 65t54.5 -35t44 -35q10 0 26.5 18t24.5 25z" />
    <glyph glyph-name="hungarumlaut" unicode="&#x2dd;" horiz-adv-x="304" 
d="M169 483l-136 -85l-41 14l92 96zM305 473l-140 -77l-42 16l113 89z" />
    <glyph glyph-name="uni0401" unicode="&#x401;" horiz-adv-x="689" 
d="M649 574q0 -50 -47.5 -89t-109 -57t-118.5 -18q-15 0 -22 1v34q2 0 58 9.5t94.5 33.5t38.5 54q0 36 -54 36q-73 0 -138 -50t-65 -105t68 -71q15 -4 20 -8t5 -14t-9.5 -16.5t-43.5 -18.5q-184 -63 -184 -196q0 -27 10 -46q61 78 158 127t187 49q47 0 75 -20.5t28 -56.5
q0 -56 -52 -112t-134.5 -91.5t-164 -35.5t-128.5 30q-1 -1 -9 -15q-20 -40 -34 -56l-33 14q7 28 41 85q-46 52 -46 116.5t52.5 123t146.5 96.5q-47 39 -47 81q0 57 60 116.5t146.5 96.5t162.5 37q40 0 64 -17.5t24 -46.5zM439 169q-59 0 -137.5 -45t-127.5 -107
q40 -45 113.5 -45t144 47.5t70.5 102.5q0 22 -17 34.5t-46 12.5zM435 729q0 17 11.5 28.5t27.5 11.5t28 -11.5t12 -28t-11.5 -28t-28 -11.5t-28 11t-11.5 28zM562 729q0 17 11.5 28.5t28 11.5t28 -11.5t11.5 -28t-11.5 -28t-28.5 -11.5t-28 11t-11 28z" />
    <glyph glyph-name="uni0402" unicode="&#x402;" horiz-adv-x="813" 
d="M319 633l237 -7q18 0 45.5 8.5t36.5 8.5t14.5 -5.5t5.5 -13.5q0 -69 -217 -69q-99 -226 -151 -404q141 202 264 202q105 0 105 -112q0 -69 -43 -181h63v-39l-84 -17q-80 -148 -193 -231t-202 -83q-48 0 -76 26t-28 79t77.5 114t183 102.5t202.5 55.5q39 65 39 131
q0 72 -86 72q-62 0 -138 -81t-117 -186l-59 21q20 103 74.5 263t101.5 267l-111 7q-99 6 -149.5 -22t-50.5 -73q0 -23 19 -38.5t38 -15.5t28.5 1.5t24 7t20.5 7.5q21 7 51 22l21 -26q-76 -76 -166 -76q-40 0 -66 25t-26 63q0 83 85 140t227 57zM532 10q-151 -18 -244.5 -75
t-93.5 -112q0 -15 17 -29.5t46 -14.5q50 0 119.5 53t155.5 178z" />
    <glyph glyph-name="uni0403" unicode="&#x403;" horiz-adv-x="610" 
d="M459 555l-143 3q-219 0 -219 -96q0 -25 18.5 -40.5t55.5 -15.5t97 34l15 -26q-31 -33 -70 -52t-78 -19t-67 26t-28 65q0 79 85.5 138t231.5 59q12 0 86 -4t117 -4t79 13q14 4 17 4q14 0 14 -18q0 -26 -45.5 -47t-104.5 -21q-66 -64 -115.5 -223.5t-118 -243t-162.5 -83.5
q-37 0 -70 24l23 38q12 -6 27 -11l14 -2q5 -1 15 -1q50 0 89.5 48t83 181.5t68 177t85.5 96.5zM586 717l-171 -56l-29 18l132 78z" />
    <glyph glyph-name="uni0404" unicode="&#x404;" horiz-adv-x="525" 
d="M332 329v-40l-226 -16q-7 -24 -7 -52q0 -61 39.5 -101.5t106.5 -40.5t101.5 17.5t34.5 65.5q0 11 -1 18l45 6q8 -29 8 -50q0 -64 -55.5 -100t-151 -36t-151.5 43t-56 123t45.5 165t111.5 146t140 100.5t131 39.5q35 0 55 -19.5t20 -59.5t-35 -72q-60 -56 -152 -56l-5 33
q3 1 21.5 2.5t29 4.5t25.5 10q30 12 30 51q0 18 -13.5 29.5t-33.5 11.5q-72 0 -150 -71t-117 -162q74 8 210 10z" />
    <glyph glyph-name="uni0405" unicode="&#x405;" horiz-adv-x="647" 
d="M536 181l71 1v-41q-12 2 -28 2t-36 -2q0 -77 -74 -156t-178.5 -128.5t-194.5 -49.5q-47 0 -76.5 24t-29.5 63q0 58 77 121t180 104t186 48q-10 15 -31 26t-86 34.5t-92 52t-27 80.5t56 119t132.5 112.5t134.5 45.5q26 0 43 -18.5t17 -45.5q0 -44 -53 -110.5t-118 -101.5
l-24 34q39 20 68.5 62.5t29.5 73.5t-33 31q-47 0 -107.5 -58.5t-60.5 -109.5q0 -35 18 -55t91 -49.5t104 -52t41 -56.5zM90 -80q0 -48 78 -48q43 0 111.5 31.5t121 88t52.5 115.5q0 7 -3 21q-137 -13 -248.5 -77t-111.5 -131z" />
    <glyph glyph-name="uni0406" unicode="&#x406;" horiz-adv-x="606" 
d="M599 616q17 -5 17 -18q0 -4 -12 -18q-46 -59 -64.5 -88t-44 -97t-46 -130.5t-20.5 -63.5q-41 -92 -113 -145t-151 -53q-56 0 -90.5 27.5t-34.5 73.5q0 72 93 132t186 60l4 -33q-74 -15 -127.5 -55t-53.5 -87q0 -30 17.5 -49t44.5 -19q51 0 88 47.5t75.5 168.5t70 177
t79.5 94q-14 1 -31 1q-86 0 -167.5 -27t-81.5 -72q0 -28 25 -53l-22 -27q-67 47 -67 109q0 41 35.5 71t95.5 46q115 31 258 31q31 0 37 -3z" />
    <glyph glyph-name="uni0407" unicode="&#x407;" horiz-adv-x="606" 
d="M599 616q17 -5 17 -18q0 -4 -12 -18q-46 -59 -64.5 -88t-44 -97t-46 -130.5t-20.5 -63.5q-41 -92 -113 -145t-151 -53q-56 0 -90.5 27.5t-34.5 73.5q0 72 93 132t186 60l4 -33q-74 -15 -127.5 -55t-53.5 -87q0 -30 17.5 -49t44.5 -19q51 0 88 47.5t75.5 168.5t70 177
t79.5 94q-14 1 -31 1q-86 0 -167.5 -27t-81.5 -72q0 -28 25 -53l-22 -27q-67 47 -67 109q0 41 35.5 71t95.5 46q115 31 258 31q31 0 37 -3zM381 690.5q-11 11.5 -11 28t11.5 28t28 11.5t28 -12t11.5 -28t-11.5 -27.5t-28.5 -11.5t-28 11.5zM508.5 690.5q-11.5 11.5 -11.5 28
t11.5 28t27.5 11.5t28 -12t12 -28t-11.5 -27.5t-28 -11.5t-28 11.5z" />
    <glyph glyph-name="uni0408" unicode="&#x408;" horiz-adv-x="722" 
d="M584 622q61 0 99.5 -7.5t38.5 -30.5q0 -20 -32 -39q-79 -48 -140.5 -155.5t-126.5 -317.5q59 0 89 -5l-6 -40q-28 5 -50 5t-49 -5q-31 -85 -65.5 -138t-88.5 -99t-120 -76t-112.5 -30t-73.5 25.5t-27 67.5q0 64 60 127t158.5 106t207.5 54q2 4 31 95q46 150 103.5 238.5
t138.5 146.5q-17 2 -45 2q-173 0 -284 -63t-111 -142q0 -51 30.5 -94.5t86.5 -89.5l-24 -33q-163 88 -163 222q0 78 66.5 142t175 99t233.5 35zM175.5 -216q50.5 32 95 94t62.5 142q-130 -13 -220.5 -74.5t-90.5 -137.5q0 -26 15 -41t42 -15q46 0 96.5 32z" />
    <glyph glyph-name="uni0409" unicode="&#x409;" horiz-adv-x="886" 
d="M776 242q47 0 75 -20.5t28 -56.5q0 -86 -104.5 -160t-228.5 -74q-83 0 -129 30q-1 -1 -9 -15q-20 -40 -34 -56l-33 14q7 28 41 85l-8 13q-35 58 -35 129q2 217 30 377q10 56 10 59q0 10 -8 10q-16 0 -51 -100l-29 -83q-64 -181 -129.5 -282t-150.5 -142l-26 55
q97 72 149.5 147t114.5 242l34 91q35 95 61 135.5t58 40.5q53 0 53 -64q0 -34 -18 -163.5t-18 -220t29 -162.5q62 78 150 124.5t178 46.5zM470 35q40 -45 113.5 -45t135.5 45t62 100q0 22 -17 34.5t-46 12.5q-58 0 -128 -42t-120 -105z" />
    <glyph glyph-name="uni040A" unicode="&#x40a;" horiz-adv-x="991" 
d="M16 21l14 48q51 0 88 47.5t75.5 168.5t70 177t79.5 94q-14 1 -31 1q-86 0 -167.5 -27t-81.5 -72q0 -28 25 -53l-22 -27q-67 47 -67 109q0 41 35.5 71t95.5 46q115 31 258 31q32 0 43 -5t11 -12.5t-12 -21.5q-46 -59 -67 -91.5t-62 -147.5q70 20 190 40q39 129 93 228
l65 -37q-1 -4 -5 -11q-47 -95 -69 -168.5t-22 -148t14 -112.5q62 78 150 124.5t178 46.5q47 0 75 -20.5t28 -56.5q0 -86 -104.5 -160t-228.5 -74q-83 0 -129 30q-1 -1 -8 -16q-21 -39 -35 -55l-33 14q7 28 41 85q-42 63 -42 163q0 43 18 117q-55 -6 -196 -50
q-46 -139 -108.5 -207t-156.5 -68zM589 96q40 -45 113.5 -45t135.5 45t62 100q0 22 -17 34.5t-46 12.5q-58 0 -128 -42t-120 -105z" />
    <glyph glyph-name="uni040B" unicode="&#x40b;" horiz-adv-x="660" 
d="M310 630l237 -7q18 0 45.5 8.5t36.5 8.5t14.5 -5.5t5.5 -13.5q0 -20 -19.5 -35t-49.5 -22q-56 -12 -103 -12h-45q-99 -226 -151 -404q87 124 141.5 173t98.5 49q29 0 47 -15.5t18 -40t-10.5 -51.5t-55.5 -121q-14 -28 -14 -44t9 -26.5t21.5 -10.5t38.5 20l9 7l23 -19
q-47 -78 -116 -78q-28 0 -46 15t-18 37t39 96.5t39 109.5q0 15 -12.5 26t-28.5 11q-39 0 -107 -91t-109 -195l-59 21q20 103 74.5 263t101.5 267l-111 7q-99 6 -149.5 -22t-50.5 -73q0 -23 19 -38.5t38 -15.5t28.5 1.5t24 7t20.5 7.5q21 7 51 22l21 -26q-76 -76 -166 -76
q-40 0 -66 25t-26 63q0 83 85 140t227 57z" />
    <glyph glyph-name="uni040C" unicode="&#x40c;" horiz-adv-x="817" 
d="M834 600l63 -31q-64 -104 -151.5 -185t-232.5 -161q28 -145 69 -232.5t107 -97.5v-46q-8 -1 -21 -1q-67 0 -129.5 93t-112.5 275q-43 -135 -131 -213.5t-183 -78.5q-49 0 -80.5 26.5t-31.5 73t42 96.5t115 84l23 -36q-90 -64 -90 -120q0 -27 18 -43.5t47 -16.5
q68 0 117.5 57.5t88.5 201.5q49 181 100 237q23 26 67 57q-69 -2 -141 -23.5t-126 -64t-54 -94.5q0 -67 61 -107l-20 -31q-56 27 -88 70t-32 89q0 63 69 119t169.5 87t197.5 31q60 0 60 -26q0 -17 -35 -43q-64 -48 -98.5 -125t-56.5 -180q114 42 218.5 139.5t181.5 219.5z
M847 708l-171 -56l-29 18l132 78z" />
    <glyph glyph-name="uni040E" unicode="&#x40e;" horiz-adv-x="700" 
d="M350 9l30 -1q6 21 27.5 80t30.5 78q-104 -98 -161 -118q-31 -11 -63 -11q-53 0 -82 35t-29 98q0 90 83 240.5t189 235.5l40 -37q-222 -239 -222 -399q0 -93 73 -93t142 80t143 248q30 69 46 91t31 22t23.5 -9t8.5 -24q0 -64 -92 -190q-64 -132 -129 -328q47 -3 100 -23
l-10 -34l-106 15q-59 -144 -142.5 -215.5t-199.5 -71.5q-60 0 -100.5 32.5t-40.5 81.5q0 90 121 153.5t289 63.5zM126 -253q81 0 143.5 65.5t92.5 153.5q-134 0 -225 -45.5t-91 -110.5q0 -28 22.5 -45.5t57.5 -17.5zM654 736l30 -16q-20 -31 -51.5 -55t-62.5 -24t-65 23.5
t-55 47.5l32 27q52 -51 85 -51q51 0 87 48z" />
    <glyph glyph-name="uni040F" unicode="&#x40f;" horiz-adv-x="503" 
d="M159 65h15q60 0 132.5 58t109.5 149q19 46 19 88t-28 51l36 83q57 -20 57 -113t-54.5 -182.5t-138.5 -144.5t-166 -55q-3 -13 -22 -129l-33 -8q0 54 19 140q-52 6 -81 54t-29 108q0 101 84.5 230.5t228.5 239.5l40 -37q-118 -78 -196.5 -209.5t-78.5 -218.5q0 -44 23 -74
t63 -30z" />
    <glyph glyph-name="uni0410" unicode="&#x410;" horiz-adv-x="935" 
d="M881 298l-5 -60q-23 2 -49.5 2t-44.5 -1q-14 -110 -18 -239h-70q-6 26 -6 69t2.5 74.5t6.5 62.5t4 36q-14 1 -66 1t-72 -2q-116 -156 -214 -236.5t-196 -80.5q-48 0 -80.5 29t-32.5 77q0 91 138.5 166t358.5 101q26 40 97 123.5t140 145.5q30 70 47.5 97.5t34.5 27.5
t28 -13t11 -33.5t-22.5 -60t-46.5 -122t-33 -155.5q52 0 88 -9zM371 89q83 79 125 150q-168 -10 -259.5 -63t-91.5 -113q0 -26 17.5 -41t46.5 -15q78 0 162 82zM713 307q7 34 18.5 85.5t13.5 60.5q-48 -46 -67 -67.5t-67 -82.5q17 1 41.5 1.5t40.5 1.5t20 1z" />
    <glyph glyph-name="uni0411" unicode="&#x411;" horiz-adv-x="813" 
d="M523 546l-160 20q-103 0 -155.5 -27t-52.5 -73q0 -20 17.5 -34.5t34.5 -14.5t27 2t17 3.5t20.5 6.5t18.5 7q21 10 44 19l19 -26q-82 -75 -171 -75q-41 0 -69.5 21.5t-28.5 58.5q0 90 79.5 145t230.5 55q15 0 96.5 -8.5t120 -8.5t90.5 11t63 11q21 0 21 -17q0 -28 -43 -46
q-61 -27 -157 -30q-20 -13 -31 -24q-31 -27 -66 -112q78 44 138.5 44t98.5 -26.5t38 -86.5q0 -84 -62 -166t-159.5 -133t-195.5 -51q-47 0 -94 14q-41 -32 -74 -32t-50.5 19t-17.5 48q0 60 80.5 155.5t202.5 166.5q68 147 130 184zM241 77q60 67 120 201q4 9 4 10
q-62 -42 -119 -112.5t-57 -96t15.5 -25.5t36.5 23zM608.5 174.5q45.5 62.5 45.5 115t-19 67t-71.5 14.5t-111.5 -31q-12 -24 -35 -76t-38 -84q-41 -87 -90 -140q31 -11 62 -11q69 0 140.5 41.5t117 104z" />
    <glyph glyph-name="uni0412" unicode="&#x412;" horiz-adv-x="687" 
d="M647 181l-1 -39l-55 -2q-12 -70 -38.5 -113t-88.5 -93t-148.5 -83.5t-144.5 -33.5t-88 23.5t-30 61.5q0 58 68.5 116.5t166 98t193.5 53.5q-15 25 -45.5 41t-103.5 36q-40 11 -40 36q0 15 12.5 27.5t42 30t56 36t59 44.5t54.5 54t22 49q0 35 -35 35q-27 0 -73.5 -25.5
t-91.5 -65.5l-43 -136q-45 -143 -99.5 -222t-103.5 -79q-52 0 -52 64t62 163.5t172 204.5q0 1 5.5 18.5t10.5 35.5q17 54 26 69l49 -8q0 -19 -8 -45q56 42 118.5 73.5t92 31.5t47.5 -18.5t18 -54t-33.5 -81.5t-83.5 -83q-91 -68 -155 -98q104 -16 152 -42.5t70 -79.5h64z
M127 124q27 0 81 129q23 57 34.5 95t11.5 42q-54 -59 -98 -135t-44 -110q0 -21 15 -21zM393 -56q49 33 78 74t29 77q0 17 -5 34q-150 -18 -247 -78.5t-97 -115.5q0 -24 19 -38.5t52 -14.5q81 0 171 62z" />
    <glyph glyph-name="uni0413" unicode="&#x413;" horiz-adv-x="610" 
d="M459 555l-143 3q-219 0 -219 -96q0 -25 18.5 -40.5t55.5 -15.5t97 34l15 -26q-31 -33 -70 -52t-78 -19t-67 26t-28 65q0 79 85.5 138t231.5 59q12 0 86 -4t117 -4t79 13q14 4 17 4q14 0 14 -18q0 -26 -45.5 -47t-104.5 -21q-66 -64 -115.5 -223.5t-118 -243t-162.5 -83.5
q-37 0 -70 24l23 38q12 -6 27 -11l14 -2q5 -1 15 -1q50 0 89.5 48t83 181.5t68 177t85.5 96.5z" />
    <glyph glyph-name="uni0414" unicode="&#x414;" horiz-adv-x="744" 
d="M283 638q174 0 297.5 -103t123.5 -241t-84 -218t-213 -78q-69 1 -110 1h-47q-29 0 -29 22q0 8 17 41q56 112 85 229q-103 0 -193 57t-90 129.5t68 116.5t175 44zM279 597q-66 0 -104 -28t-38 -82.5t52.5 -97t140.5 -53.5q31 131 36 169l60 -6q0 -62 -26 -164q8 0 93 10
l5 -33q-20 -7 -111 -21q-39 -126 -81 -218q100 -8 166.5 -8t105.5 49.5t39 133.5q0 145 -99 247t-239 102z" />
    <glyph glyph-name="uni0415" unicode="&#x415;" horiz-adv-x="689" 
d="M649 574q0 -50 -47.5 -89t-109 -57t-118.5 -18q-15 0 -22 1v34q2 0 58 9.5t94.5 33.5t38.5 54q0 36 -54 36q-73 0 -138 -50t-65 -105t68 -71q15 -4 20 -8t5 -14t-9.5 -16.5t-43.5 -18.5q-184 -63 -184 -196q0 -27 10 -46q61 78 158 127t187 49q47 0 75 -20.5t28 -56.5
q0 -56 -52 -112t-134.5 -91.5t-164 -35.5t-128.5 30q-1 -1 -9 -15q-20 -40 -34 -56l-33 14q7 28 41 85q-46 52 -46 116.5t52.5 123t146.5 96.5q-47 39 -47 81q0 57 60 116.5t146.5 96.5t162.5 37q40 0 64 -17.5t24 -46.5zM439 169q-59 0 -137.5 -45t-127.5 -107
q40 -45 113.5 -45t144 47.5t70.5 102.5q0 22 -17 34.5t-46 12.5z" />
    <glyph glyph-name="uni0416" unicode="&#x416;" horiz-adv-x="956" 
d="M610.5 127.5q40.5 -42.5 107.5 -40.5t113.5 50.5t68.5 121.5l44 3q-10 -86 -88.5 -161.5t-186.5 -75.5q-63 0 -109 41.5t-50 125.5q-43 -76 -58 -127q-13 -73 -52 -73q-12 0 -21 10.5t-9 24t9.5 40t19.5 42.5q27 157 57 279q-73 -174 -122 -240q-21 -29 -53.5 -63.5
t-65.5 -53.5q-78 -45 -170 -45q-52 0 -52 46q0 86 96.5 154.5t237.5 83.5q24 66 24 141q0 127 -95 127q-77 0 -127 -48.5t-71 -122.5l-45 -3q10 81 83 156q34 36 84.5 58.5t105 22.5t95 -41.5t40.5 -115.5q0 -28 -7 -59q75 140 113.5 202.5t57.5 62.5q10 0 20 -9.5t10 -28
t-21 -50.5q-50 -78 -74.5 -157.5t-45.5 -198.5q152 406 404 406q83 0 83 -66q0 -45 -27 -79.5t-71 -52.5q-84 -36 -172 -40l-2 30q87 9 135 37.5t50 72.5q2 30 -43 30q-66 0 -127 -53.5t-95 -126.5t-36.5 -133.5t38 -103zM315 228q-89 -16 -159.5 -59.5t-70.5 -92.5
q0 -32 32 -31q61 3 121 65.5t77 117.5z" />
    <glyph glyph-name="uni0417" unicode="&#x417;" horiz-adv-x="656" 
d="M188 487l-16 33q166 125 256 125t90 -68q0 -42 -33.5 -88t-82.5 -83q-92 -68 -156 -98q104 -16 152 -42.5t70 -79.5h63v-39l-55 -2q-12 -70 -38.5 -113t-88.5 -93t-148.5 -83.5t-144.5 -33.5t-88 23.5t-30 61.5q0 58 68.5 116.5t166 98t193.5 53.5q-15 25 -45.5 41.5
t-78 29t-56.5 20.5t-9 22.5t12.5 27t47.5 33t73 47t79 68t41 68.5q0 46 -39 46q-42 0 -99.5 -26t-103.5 -65zM278 -51q49 33 78 74t29 77q0 16 -5 34q-150 -18 -247 -78.5t-97 -115.5q0 -24 19 -38.5t52 -14.5q81 0 171 62z" />
    <glyph glyph-name="uni0418" unicode="&#x418;" horiz-adv-x="721" 
d="M573 78l32 -26q-12 -34 -41 -62.5t-63 -28.5q-46 0 -75 45t-38 130q-46 -50 -115 -94.5t-121 -44.5t-82 35t-30 90q0 125 122 297t247 245l27 -38q-114 -85 -209 -224t-95 -244q0 -39 18.5 -60.5t52 -21.5t93.5 39t90 73q5 97 46.5 197t99 163.5t107.5 63.5q42 0 42 -51
t-75 -170.5t-149 -189.5q-2 -16 -2 -26q0 -44 17.5 -91.5t46.5 -47.5q25 0 54 42zM588 518q-33 0 -73 -77.5t-51 -164.5q62 74 99.5 136.5t37.5 90.5q0 15 -13 15z" />
    <glyph glyph-name="uni0419" unicode="&#x419;" horiz-adv-x="721" 
d="M573 78l32 -26q-12 -34 -41 -62.5t-63 -28.5q-46 0 -75 45t-38 130q-46 -50 -115 -94.5t-121 -44.5t-82 35t-30 90q0 125 122 297t247 245l27 -38q-114 -85 -209 -224t-95 -244q0 -39 18.5 -60.5t52 -21.5t93.5 39t90 73q5 97 46.5 197t99 163.5t107.5 63.5q42 0 42 -51
t-75 -170.5t-149 -189.5q-2 -16 -2 -26q0 -44 17.5 -91.5t46.5 -47.5q25 0 54 42zM588 518q-33 0 -73 -77.5t-51 -164.5q62 74 99.5 136.5t37.5 90.5q0 15 -13 15zM667 750l30 -16q-20 -31 -51.5 -55t-62.5 -24t-65 23.5t-55 47.5l32 27q52 -51 85 -51q51 0 87 48z" />
    <glyph glyph-name="uni041A" unicode="&#x41a;" horiz-adv-x="837" 
d="M834 600l63 -31q-64 -104 -151.5 -185t-232.5 -161q28 -145 69 -232.5t107 -97.5v-46q-8 -1 -21 -1q-67 0 -129.5 93t-112.5 275q-43 -135 -131 -213.5t-183 -78.5q-49 0 -80.5 26.5t-31.5 73t42 96.5t115 84l23 -36q-90 -64 -90 -120q0 -27 18 -43.5t47 -16.5
q68 0 117.5 57.5t88.5 201.5q49 181 100 237q23 26 67 57q-69 -2 -141 -23.5t-126 -64t-54 -94.5q0 -67 61 -107l-20 -31q-56 27 -88 70t-32 89q0 63 69 119t169.5 87t197.5 31q60 0 60 -26q0 -17 -35 -43q-64 -48 -98.5 -125t-56.5 -180q114 42 218.5 139.5t181.5 219.5z
" />
    <glyph glyph-name="uni041B" unicode="&#x41b;" horiz-adv-x="710" 
d="M481 78q0 -65 24 -92.5t84 -38.5l-12 -37q-26 -2 -39 -2q-60 0 -97.5 50.5t-37.5 131.5q0 208 30 377q10 56 10 59q0 10 -8 10q-16 0 -51 -100l-29 -83q-64 -181 -129.5 -282t-150.5 -142l-26 55q97 72 149.5 147t114.5 242l34 91q35 95 61 135.5t58 40.5q53 0 53 -64
q0 -10 -9 -90q-29 -238 -29 -408z" />
    <glyph glyph-name="uni041C" unicode="&#x41c;" horiz-adv-x="883" 
d="M827 -103l-12 -37q-26 -2 -39 -2q-60 0 -97.5 50.5t-37.5 131.5q0 49 22.5 185.5t52.5 249.5q6 25 6 33t-7 8t-44.5 -74.5t-89.5 -183t-59.5 -124t-12 -25t-18 -34t-25.5 -43.5q-33 -50 -52 -50q-13 0 -28.5 7t-20.5 15q-11 17 -11 106q0 186 30 355q10 56 10 59
q0 10 -8 10q-16 0 -51 -100l-29 -83q-64 -181 -129.5 -282t-150.5 -142l-26 55q97 72 149.5 147t114.5 242l34 91q35 95 61 135.5t58 40.5q53 0 53 -64q0 -5 -19 -202.5t-19 -260.5q0 -18 6 -19q5 0 11 10q81 135 155 294q9 20 31 69t43 87t32 46.5t35 8.5t41.5 -17.5
t17.5 -41.5t-7 -55q-78 -381 -78 -455.5t24 -102t84 -38.5z" />
    <glyph glyph-name="uni041D" unicode="&#x41d;" horiz-adv-x="865" 
d="M780 637l45 -22q-67 -131 -139 -337q46 0 63 -4l-4 -57q-21 -7 -82 -7q-21 -58 -25 -94t-6.5 -70t-3.5 -46h-56q-5 17 -5 35q0 62 33 175q-60 0 -182 -14q-5 -16 -25 -59.5t-39.5 -75.5t-52.5 -70t-69 -64q-103 -74 -200 -74q-40 0 -66 25t-26 63q0 96 110.5 174.5
t306.5 125.5q74 216 208 308q-145 -2 -239 -49t-94 -120q0 -23 7 -39.5t33 -51.5l-34 -32q-44 28 -67 68t-23 77q0 62 66 114.5t164 81t199 28.5q51 0 70.5 -7.5t19.5 -28t-29 -38.5q-125 -78 -201 -296q59 10 183 22q48 140 77.5 207.5t82.5 151.5zM198.5 -45.5
q49.5 32.5 83 85t57.5 144.5q-133 -22 -214.5 -77.5t-81.5 -125.5q0 -28 16.5 -43.5t53 -15.5t86 32.5z" />
    <glyph glyph-name="uni041E" unicode="&#x41e;" horiz-adv-x="700" 
d="M698 492v-48q-45 -26 -166 -71q-54 -135 -171 -251t-214 -116q-55 0 -89 39t-34 107.5t46 165t121 181t153 124.5q32 21 100 21q51 0 83.5 -39.5t32.5 -93t-8 -80.5q76 25 146 61zM301 527q-33 -34 -33 -65.5t32 -50t80.5 -18.5t84.5 9q6 30 6 58q0 99 -85 99
q-39 0 -85 -32zM314 149q98 97 137 202q-25 -5 -64 -5q-168 0 -190 75q-84 -117 -84 -230q0 -45 21.5 -72t63.5 -27q59 0 116 57z" />
    <glyph glyph-name="uni041F" unicode="&#x41f;" horiz-adv-x="748" 
d="M590 615l41 1q17 0 68.5 5.5t67.5 11t19 5.5q14 0 14 -18q0 -26 -45.5 -47t-104.5 -21q-31 -20 -65.5 -82.5t-66.5 -176t-32 -160.5t22.5 -65t69.5 -27l-21 -37q-26 -2 -39 -2q-48 0 -74.5 32.5t-26.5 76.5t8 73q61 243 102 302q21 31 61 67l-94 -2
q-66 -64 -115.5 -223.5t-118 -243t-162.5 -83.5q-37 0 -70 24l23 38q12 -6 27 -11l14 -2q5 -1 15 -1q50 0 89.5 48t83 181.5t68 177t85.5 96.5l-143 3q-219 0 -219 -96q0 -25 18.5 -40.5t55.5 -15.5t97 34l15 -26q-31 -33 -70 -52t-78 -19t-67 26t-28 65q0 79 85.5 138
t231.5 59q3 0 47 -3q149 -10 212 -10z" />
    <glyph glyph-name="uni0420" unicode="&#x420;" horiz-adv-x="678" 
d="M483 618.5q30 12.5 70.5 12.5t62.5 -28t22 -80q0 -93 -60 -200t-150 -179.5t-170 -72.5q-20 0 -46 2q-49 -104 -89 -157t-80 -53q-25 0 -39 18t-14 50q0 103 95 275.5t209 276.5q16 66 16 96.5t-2 46.5l72 12q0 -7 -9 -88q82 56 112 68.5zM142 145l28 -14q63 123 106 276
q-92 -115 -151 -234t-59 -183q0 -19 12 -19q9 0 32 37.5t39 76.5q-13 6 -25 18zM233 117l19 -1q97 0 182 102q48 59 81.5 135t33.5 129q0 29 -15.5 46t-42.5 17q-49 0 -130 -54q-18 -135 -128 -374z" />
    <glyph glyph-name="uni0421" unicode="&#x421;" horiz-adv-x="628" 
d="M510 632q37 0 57.5 -20.5t20.5 -55.5q0 -78 -93 -144.5t-212 -66.5q-52 0 -110 15q-38 -62 -38 -134.5t40 -117t117 -44.5q138 0 181 161h47q-11 -93 -87.5 -164t-201.5 -71q-66 0 -123 48.5t-57 140.5t70 201q-51 30 -81 74l27 30q7 -7 19 -21q23 -27 62 -47
q59 82 171.5 149t190.5 67zM280 385q87 0 153 41t66 96q0 19 -13.5 30.5t-34.5 11.5q-61 0 -136 -48.5t-119 -116.5q36 -14 84 -14z" />
    <glyph glyph-name="uni0422" unicode="&#x422;" horiz-adv-x="777" 
d="M436 553l-143 3q-219 0 -219 -96q0 -25 18.5 -40.5t55.5 -15.5t97 34l15 -26q-31 -33 -70 -52t-78 -19t-67 26t-28 65q0 79 85.5 138t231.5 59q3 0 64 -3q166 -10 237 -10q157 0 193 14q14 4 17 4q14 0 14 -22.5t-31.5 -40.5t-88.5 -18q-31 -20 -65.5 -82.5t-67 -178
t-32.5 -160t22.5 -63t70.5 -27.5l-21 -37q-26 -2 -39 -2q-47 0 -72.5 31.5t-25.5 86.5q0 104 54 241.5t114 191.5h-62q-36 -36 -59.5 -84.5t-43 -115.5t-26.5 -92t-20.5 -67t-22 -60.5t-21.5 -46.5t-24.5 -39.5t-27.5 -25.5q-26 -23 -72 -23l4 51q46 8 65.5 46t64.5 186
t63.5 185.5t71.5 84.5l-58 -1h-12q-66 -64 -115.5 -223.5t-118 -243t-162.5 -83.5q-37 0 -70 24l23 38q28 -14 56 -14q50 0 89.5 48t83 181.5t68 177t85.5 96.5z" />
    <glyph glyph-name="uni0423" unicode="&#x423;" horiz-adv-x="700" 
d="M350 9l30 -1q6 21 27.5 80t30.5 78q-104 -98 -161 -118q-31 -11 -63 -11q-53 0 -82 35t-29 98q0 90 83 240.5t189 235.5l40 -37q-222 -239 -222 -399q0 -93 73 -93t142 80t143 248q30 69 46 91t31 22t23.5 -9t8.5 -24q0 -64 -92 -190q-64 -132 -129 -328q47 -3 100 -23
l-10 -34l-106 15q-59 -144 -142.5 -215.5t-199.5 -71.5q-60 0 -100.5 32.5t-40.5 81.5q0 90 121 153.5t289 63.5zM126 -253q81 0 143.5 65.5t92.5 153.5q-134 0 -225 -45.5t-91 -110.5q0 -28 22.5 -45.5t57.5 -17.5z" />
    <glyph glyph-name="uni0424" unicode="&#x424;" horiz-adv-x="686" 
d="M523 659q12 2 27.5 2t36 -7t41.5 -22.5t34.5 -47.5t13.5 -77q0 -105 -87.5 -236t-203.5 -203q-6 -47 -6 -80t10 -73l-50 -7q-12 29 -12 101q0 18 2 34q-38 -13 -55 -13q-67 0 -110 45.5t-43 118.5q0 32 8 63q-93 30 -93 129.5t112.5 181t273.5 93.5q1 0 20.5 25.5
t43.5 50t35.5 24.5t24 -9.5t12.5 -19.5q0 -15 -26 -59zM151 342q18 70 68.5 136t121.5 115q-100 -20 -156.5 -72t-56.5 -115q0 -33 23 -64zM211 249l-1 -13q0 -58 27 -89t77 -31l22 5q9 113 35 260t64 218q-39 0 -80 -40t-69.5 -92t-47.5 -96.5t-19 -59.5q0 -1 17 -1
q56 0 72 21l26 -27q-20 -19 -56 -35.5t-67 -19.5zM393 140q77 45 139 159t62 195q0 47 -28.5 75t-77.5 28q-62 -157 -95 -457z" />
    <glyph glyph-name="uni0425" unicode="&#x425;" horiz-adv-x="744" 
d="M376 345q50 49 286 295l42 -44q-47 -60 -170.5 -181.5t-132.5 -130.5q33 -71 66.5 -123t58.5 -89t30 -45l-54 -51q-74 76 -159 252q-34 -32 -81 -78t-70 -68q-55 -53 -119 -96l-33 45q3 3 103 88.5t174 167.5q-69 185 -92 310l76 14q48 -203 75 -266z" />
    <glyph glyph-name="uni0426" unicode="&#x426;" horiz-adv-x="721" 
d="M611 158q22 16 41.5 16t32 -14t12.5 -35q0 -55 -88 -235l-50 3q0 1 31.5 73.5t31.5 100.5t-18 28q-13 0 -46 -49q-12 -18 -35 -33t-50 -15q-47 0 -73.5 49.5t-27.5 100.5l-12 -11q-150 -139 -239 -139q-49 0 -79 35t-30 90q0 125 122 297t247 245l27 -38
q-114 -85 -209 -224t-95 -244q0 -39 18.5 -60.5t52 -21.5t93.5 39t90 73q5 97 46.5 197t99 163.5t107.5 63.5q42 0 42 -51t-73 -167.5t-147 -188.5q0 -98 55 -127q12 -6 22.5 -6t28.5 16t34 34.5t38 34.5zM560 519q-33 0 -73 -77.5t-51 -164.5q62 74 99.5 136.5t37.5 90.5
q0 15 -13 15z" />
    <glyph glyph-name="uni0427" unicode="&#x427;" horiz-adv-x="504" 
d="M280 336q-25 -51 -41.5 -134.5t-16.5 -151.5t33 -68q21 0 57 32l28 -21q-13 -26 -43 -52t-65 -26q-71 0 -71 126q0 101 48 257q-69 -36 -120 -36t-76.5 27.5t-23.5 77.5q5 126 153 272l31 -37q-54 -49 -80.5 -103.5t-27.5 -90.5t21 -58t59 -22t91 33q49 137 112.5 208.5
t109.5 71.5q18 0 30 -10.5t10.5 -35t-15.5 -57t-30 -55t-46.5 -50.5t-45.5 -39.5t-47.5 -34t-33.5 -23.5zM425 567q-26 0 -48.5 -33.5t-62.5 -122.5q56 41 88.5 82t32.5 57.5t-10 16.5z" />
    <glyph glyph-name="uni0428" unicode="&#x428;" horiz-adv-x="900" 
d="M852 117l27 -30q-15 -29 -45 -52.5t-61 -23.5q-43 0 -70 42.5t-27 115.5q1 2 1 3q-31 -32 -47 -48t-48 -42q-64 -52 -128 -52q-48 0 -77 30.5t-34 87.5q-47 -50 -115 -93.5t-119.5 -43.5t-81.5 35t-30 90q0 125 122 297t247 245l27 -38q-114 -85 -209 -224t-95 -244
q0 -39 18.5 -60.5t52 -21.5t93.5 39t90 73q5 97 46.5 197t99 163.5t107.5 63.5q42 0 42 -50t-69 -162t-142 -187q12 -80 27 -95q19 -19 51 -19q72 0 138 85t131 259q26 71 40.5 94t29.5 23t24.5 -8t9.5 -23q0 -69 -81 -195q-5 -12 -21 -38q-37 -59 -37 -103.5t15 -84
t40 -39.5t58 34zM545 532q-33 0 -73 -77.5t-51 -164.5q62 74 99.5 136.5t37.5 90.5q0 15 -13 15z" />
    <glyph glyph-name="uni0429" unicode="&#x429;" horiz-adv-x="1031" 
d="M914 153q28 25 50 25t34.5 -14t12.5 -38.5t-23 -96t-64 -155.5l-51 3q63 138 63 195q0 27 -19 27q-9 0 -22 -16t-26.5 -35.5t-38.5 -35.5t-54 -16q-71 0 -71 64q0 34 12 89q-37 -38 -62 -61t-68.5 -46.5t-87 -23.5t-72.5 30.5t-34 87.5q-47 -50 -115 -93.5t-119.5 -43.5
t-81.5 35t-30 90q0 125 122 297t247 245l27 -38q-114 -85 -209 -224t-95 -244q0 -39 18.5 -60.5t52 -21.5t93.5 39t90 73q5 97 46.5 197t99 163.5t107.5 63.5q42 0 42 -50t-69 -162t-142 -187q12 -80 27 -95q19 -19 51 -19q72 0 138 85t131 259q26 71 40.5 94t29.5 23
t24.5 -8t9.5 -23q0 -57 -61 -162q-52 -124 -66.5 -172t-14.5 -72t10 -36t26 -12t40 25.5t52 50.5zM595 520q-33 0 -73 -77.5t-51 -164.5q62 74 99.5 136.5t37.5 90.5q0 15 -13 15z" />
    <glyph glyph-name="uni042A" unicode="&#x42a;" horiz-adv-x="798" 
d="M653 315q47 0 75 -20.5t28 -56.5q0 -56 -52 -112t-134.5 -91.5t-164 -35.5t-128.5 30q-1 -1 -9 -15q-20 -40 -34 -56l-33 14q7 28 41 85q-33 49 -33 174t43.5 219t100.5 118q-14 1 -31 1q-86 0 -167.5 -27t-81.5 -72q0 -28 25 -53l-22 -27q-67 47 -67 109q0 41 35.5 71
t95.5 46q115 31 258 31q32 0 43 -5t11 -12.5t-12 -21.5q-46 -59 -78 -109.5t-50 -109.5t-18 -135.5t14 -114.5q61 78 158 127t187 49zM330 103q40 -45 113.5 -45t144 47.5t70.5 102.5q0 22 -17 34.5t-46 12.5q-59 0 -137.5 -45t-127.5 -107z" />
    <glyph glyph-name="uni042B" unicode="&#x42b;" horiz-adv-x="911" 
d="M518 313q47 0 75 -20.5t28 -56.5q0 -56 -52 -112t-134.5 -91.5t-164.5 -35.5t-128 30q-1 -1 -8 -15q-21 -40 -35 -56l-33 14q7 28 41 85q-42 63 -42 161.5t35 201.5q-15 -9 -41 -35t-44 -55l-51 29q44 66 165 174q30 70 47.5 97.5t34.5 27.5t28 -13t11 -33t-18 -54
q-73 -142 -73 -324q0 -57 14 -95q61 78 158 127t187 49zM742 168q0 -65 24 -92.5t84 -38.5l-12 -37q-26 -2 -39 -2q-60 0 -97.5 50.5t-37.5 131.5q0 228 45 458h69q-2 -33 -12 -125q-24 -221 -24 -325v-20zM195 101q40 -45 113.5 -45t144 47.5t70.5 102.5q0 22 -17 34.5
t-46 12.5q-59 0 -137.5 -45t-127.5 -107z" />
    <glyph glyph-name="uni042C" unicode="&#x42c;" horiz-adv-x="641" 
d="M526 310q47 0 75 -20.5t28 -56.5q0 -86 -104.5 -160t-228.5 -74q-82 0 -129 30q-1 -1 -9 -15q-20 -40 -34 -56l-33 14q7 28 41 85q-42 63 -42 163q0 43 9.5 78t13.5 48.5t14 40.5t12 33q-15 -9 -41 -35t-43 -55l-51 29q44 66 165 174q30 70 47.5 97.5t34.5 27.5t28 -13
t11 -31t-30 -78q-76 -149 -76 -302q0 -57 14 -95q62 78 150 124.5t178 46.5zM220 103q40 -45 113.5 -45t135.5 45t62 100q0 22 -17 34.5t-46 12.5q-58 0 -128 -42t-120 -105z" />
    <glyph glyph-name="uni042D" unicode="&#x42d;" horiz-adv-x="687" 
d="M573 375q-10 -70 -46 -132.5t-84 -105t-102 -73.5q-105 -62 -182 -62t-114 28.5t-37 82t47 124.5h47q-32 -61 -32 -99q0 -62 87 -62q104 0 218.5 92.5t129.5 190.5q-45 -9 -101.5 -9t-105.5 13l2 56q64 -21 119 -21t97 13q1 6 1 20q0 59 -34.5 102t-92.5 43
q-23 0 -47.5 -13.5t-38.5 -35.5h-82q22 51 69.5 84t93.5 33q83 0 137.5 -68t54.5 -148q57 20 80.5 35.5t30.5 19.5l5 -39q-31 -33 -120 -69z" />
    <glyph glyph-name="uni042E" unicode="&#x42e;" horiz-adv-x="1129" 
d="M1066 434q86 31 142 59l4 -45q-44 -27 -166 -72q-54 -135 -171 -251t-214 -116q-55 0 -89 39t-34 102t27 128h-114q-37 -118 -111 -193t-143 -75q-40 0 -64 23t-24 61q0 79 90.5 156t184.5 78q31 94 61 144t75 85q-14 1 -31 1q-86 0 -167.5 -27t-81.5 -72q0 -28 25 -53
l-22 -27q-67 47 -67 109q0 41 35.5 71t94.5 46q116 31 259 31q32 0 43 -5t11 -12.5t-11 -22.5q-47 -58 -70 -93t-68 -169q118 5 122 5q68 129 167 218.5t199 89.5q59 0 87 -44t28 -108q0 -28 -7 -61zM224 51q68 0 143 224q-63 -1 -125 -52.5t-62 -114.5q0 -25 12.5 -41
t31.5 -16zM648.5 122q21.5 -27 67.5 -27t100 47q100 87 149 212q-25 -5 -64 -5q-165 0 -190 75q-84 -117 -84 -230q0 -45 21.5 -72zM979 405q5 27 5 52q0 105 -84 105q-39 0 -78.5 -30.5t-39.5 -64.5t31.5 -52.5t80.5 -18.5t85 9z" />
    <glyph glyph-name="uni042F" unicode="&#x42f;" horiz-adv-x="813" 
d="M794 574q0 -55 -66.5 -142t-165.5 -147q-4 -17 -18 -71q-32 -132 -32 -154t9 -32.5t18.5 -10.5t14.5 1t10 4t8.5 5t8.5 7q9 9 14.5 15.5t7.5 8.5l20 -17q-17 -41 -52.5 -69.5t-65.5 -28.5q-62 0 -62 91q0 55 24 135t24 82q-109 -127 -205 -207q-121 -102 -233 -102
q-22 0 -45 5l27 68q6 -2 20 -2q60 0 147.5 60t175.5 150q-5 -1 -14 -1q-58 0 -90.5 29.5t-32.5 90.5t50.5 131t126.5 113.5t149 43.5q38 0 97 -17q34 28 64.5 28t48 -19t17.5 -48zM709 569q-27 0 -74 -93q-25 -50 -40 -88l-15 -37q49 36 97.5 102.5t48.5 91t-17 24.5z
M507 316q12 60 47 137.5t80 128.5q-52 9 -57 9q-90 0 -170 -82.5t-80 -160.5q0 -26 19 -44.5t50 -18.5q20 0 39.5 6.5t39.5 13.5t32 11z" />
    <glyph glyph-name="uni0430" unicode="&#x430;" horiz-adv-x="489" 
d="M449 101l23 -17q-14 -30 -51.5 -57t-68.5 -27q-59 0 -59 62q0 29 15 69l-37 -38q-54 -55 -93.5 -74t-77.5 -19t-57.5 21.5t-19.5 59.5q0 70 54 138.5t138 111.5t168 44l2 -33l-42 -9q-91 -20 -160.5 -80t-69.5 -119.5t48 -59.5q45 0 111 63t110 148l42 -25
q-62 -125 -62 -159q0 -14 9.5 -23.5t19 -9.5t12.5 1t6 2.5t7.5 4.5t8 6t11.5 9t13 10z" />
    <glyph glyph-name="uni0431" unicode="&#x431;" horiz-adv-x="371" 
d="M152 643q40 29 113.5 29.5t99.5 -11.5l-9 -42q-35 5 -76 5q-88 0 -88 -73q0 -20 53.5 -118t62 -118t15 -52.5t6.5 -48.5q0 -88 -55 -151.5t-133 -63.5q-58 0 -90.5 33.5t-32.5 97t41 125.5t104 93l13 -39q-77 -48 -77 -136q0 -43 21 -69.5t58 -26.5t64.5 33t27.5 83
t-13.5 80t-50.5 93q-94 165 -94 194q0 54 40 83z" />
    <glyph glyph-name="uni0432" unicode="&#x432;" horiz-adv-x="441" 
d="M140 314q-24 -114 -25 -166q0 -71 41 -71q44 0 79 38t35 89t-38 51q-11 0 -48 -13l-12 30q64 45 101 45q69 0 69 -69q0 -81 -67.5 -164.5t-141.5 -83.5q-81 0 -81 116q0 55 31 182l-81 -30l-1 24q10 6 91 36q34 200 94 280.5t152 80.5q42 0 67 -27t25 -70
q0 -86 -79 -160.5t-211 -117.5zM146 344q87 40 144 96t57 102q0 24 -14 39t-35 15q-42 0 -83 -59t-69 -193z" />
    <glyph glyph-name="uni0433" unicode="&#x433;" horiz-adv-x="324" 
d="M253 118l20 -16q-30 -40 -82.5 -71t-84 -31t-48 13.5t-16.5 35.5t38 65.5t76.5 87.5t38.5 64t-10.5 33.5t-34.5 13.5t-87 -41l-9 35q45 35 95.5 57t78.5 22t43.5 -13t15.5 -41t-63 -118q-13 -18 -27 -38t-20.5 -29t-12.5 -19q-10 -15 -10 -23.5t8.5 -16.5t17 -8t14.5 1.5
t13 6t12 7.5z" />
    <glyph glyph-name="uni0434" unicode="&#x434;" horiz-adv-x="469" 
d="M451 36l1 -24q-10 -6 -91 -36q-32 -191 -94 -276t-152 -85q-42 0 -67 27t-25 70q0 86 79 160.5t211 117.5q15 67 54 189q-67 -102 -121.5 -138t-98.5 -36t-66.5 24t-22.5 64q0 66 55 134.5t138.5 112t161.5 43.5l8 -35q-111 -12 -190.5 -78t-79.5 -127q0 -26 16 -43
t39 -17q34 0 103 72t97 123l37 -21q-55 -147 -76 -248zM307 -40q-87 -40 -144 -96t-57 -102q0 -24 14 -39t35 -15q42 0 83 59t69 193z" />
    <glyph glyph-name="uni0435" unicode="&#x435;" horiz-adv-x="401" 
d="M300 118l23 -18q-31 -43 -85 -71.5t-105 -28.5t-82 30t-31 79q0 92 97.5 181t197.5 89q66 0 66 -52q0 -54 -69.5 -109t-195.5 -100q9 -23 28 -36t39 -13q43 0 117 49zM111 148q81 28 139 70t58 77q0 13 -10 23t-23 10q-47 0 -101.5 -58.5t-62.5 -121.5z" />
    <glyph glyph-name="uni0436" unicode="&#x436;" horiz-adv-x="566" 
d="M24 8q54 101 199 213q-45 34 -89.5 82.5t-49.5 84.5l60 7q6 -31 113 -132q4 60 4 140l65 -6l-10 -119q123 87 162 101l44 -39q-35 -11 -113 -62t-91 -64q27 -36 80 -82.5t93 -75.5l40 -28l-29 -36q-29 17 -96.5 65.5t-102.5 85.5q-14 -111 -28 -160l-61 -8q24 48 38 196
q-22 -7 -71 -54.5t-87 -92.5l-39 -44z" />
    <glyph glyph-name="uni0437" unicode="&#x437;" horiz-adv-x="402" 
d="M387 341q0 -73 -134 -121q36 -22 53.5 -39.5t17.5 -39.5q0 -56 -63 -98.5t-135 -42.5q-35 0 -70 11t-48 27l38 35q12 -12 32.5 -21t34.5 -9q50 0 91.5 25.5t41.5 62.5q0 20 -15 33.5t-32.5 19t-32.5 14t-15 19.5t23.5 20.5t52.5 16t52.5 22t23.5 34.5t-13 30t-32.5 11
t-60.5 -21t-83 -54l-14 28q36 42 97.5 74.5t99 32.5t64 -20.5t26.5 -49.5z" />
    <glyph glyph-name="uni0438" unicode="&#x438;" horiz-adv-x="500" 
d="M436 117l21 -17q-17 -42 -53.5 -71t-66 -29t-46.5 20.5t-17 53.5t11 85q-47 -74 -101 -116t-91 -42q-56 0 -56 67t46.5 180.5t66.5 129.5l48 -21q-41 -66 -62 -130t-21 -85.5t13.5 -34.5t31.5 -13q40 0 99.5 73.5t121.5 219.5l51 -23q-2 -8 -45.5 -116t-43.5 -129.5
t9.5 -32.5t19 -11t14.5 1t10 4t8.5 5t8.5 7l7 8q3 2 8.5 8.5t7.5 8.5z" />
    <glyph glyph-name="uni0439" unicode="&#x439;" horiz-adv-x="500" 
d="M427 117l21 -17q-17 -42 -53.5 -71t-66 -29t-46.5 20.5t-17 53.5t11 85q-47 -74 -101 -116t-91 -42q-56 0 -56 67t46.5 180.5t66.5 129.5l48 -21q-41 -66 -62 -130t-21 -85.5t13.5 -34.5t31.5 -13q40 0 99.5 73.5t121.5 219.5l51 -23q-2 -8 -45.5 -116t-43.5 -129.5
t9.5 -32.5t19 -11t14.5 1t10 4t8.5 5t8.5 7l8 8q2 2 7.5 8.5t7.5 8.5zM369 498l30 -16q-20 -31 -51.5 -55t-62.5 -24t-65 23.5t-55 47.5l32 27q52 -51 85 -51q51 0 87 48z" />
    <glyph glyph-name="uni043A" unicode="&#x43a;" horiz-adv-x="454" 
d="M380 111l25 -22q-58 -95 -123 -95q-37 0 -75.5 48t-46.5 93q-6 -11 -34 -58t-40 -77l-60 21q21 123 51.5 232t57.5 153l41 -13q-18 -46 -60 -245q55 113 111 165.5t123 69.5v-66q-72 -3 -139 -97q4 -65 38.5 -108t65.5 -43q15 0 65 42z" />
    <glyph glyph-name="uni043B" unicode="&#x43b;" horiz-adv-x="576" 
d="M65 88l50 25q0 -18 13.5 -31t31.5 -13q85 0 194 224q6 13 14 29.5t12 25t9.5 19.5t9 16.5t7.5 10.5q9 9 20.5 9t20.5 -11t9 -25.5t-37.5 -124t-37.5 -132.5t9.5 -34t19 -11t14.5 1t10 4t8.5 5t8.5 7l7 8q3 2 8.5 8.5t7.5 8.5l21 -17q-17 -42 -53.5 -71t-66 -29
t-46.5 20.5t-17 53.5t11 85q-46 -72 -101 -109.5t-89 -37.5t-51 25t-17 61z" />
    <glyph glyph-name="uni043C" unicode="&#x43c;" horiz-adv-x="697" 
d="M632 116l21 -17q-17 -42 -53.5 -71t-66 -29t-46.5 20.5t-17 53.5t11 85q-47 -74 -101 -116t-91 -42q-56 0 -56 71q0 7 14 86q-47 -73 -94.5 -109.5t-85.5 -36.5q-56 0 -56 71l38 36q0 -18 13.5 -31t31.5 -13q33 0 89.5 56t103.5 147q10 20 23.5 47.5t19.5 39.5t14 26
q13 22 27 22t23 -11t9 -25.5t-8.5 -33.5t-27.5 -51.5t-30 -53.5q-26 -68 -26 -93t13.5 -38t31.5 -13q34 0 81.5 52.5t98.5 156.5q6 13 14 29.5t12 25t9.5 19.5t9 16.5t7.5 10.5q9 9 20.5 9t20.5 -11t9 -25.5t-49.5 -124t-49.5 -132.5t9.5 -34t19 -11t14.5 1t10 4t8.5 5
t8.5 7l7 7q3 3 8.5 9.5t7.5 8.5z" />
    <glyph glyph-name="uni043D" unicode="&#x43d;" horiz-adv-x="487" 
d="M423 389l39 -9q-1 -7 -28.5 -60.5t-58.5 -140t-40 -174.5l-64 5q0 55 35 142q-9 1 -36.5 1t-100.5 -13q-51 -114 -51 -195l-67 9q0 71 53 175q-51 -8 -102 -24l-10 39q0 3 53.5 17t79.5 18q80 184 109 213l43 -17q-5 -10 -23 -45q-45 -87 -61 -136q87 9 104.5 9t29.5 -1
q70 161 96 187z" />
    <glyph glyph-name="uni043E" unicode="&#x43e;" 
d="M305 297q26 -43 26 -95q0 -81 -56 -144.5t-132 -63.5q-58 0 -90.5 33.5t-32.5 92.5q0 95 74 170.5t166 75.5q17 0 24 -1l3 -33q-80 0 -133 -46t-53 -118q0 -43 21 -69.5t61.5 -26.5t64.5 36t24 84.5t-19 88.5z" />
    <glyph glyph-name="uni043F" unicode="&#x43f;" horiz-adv-x="484" 
d="M439 121l21 -16q-22 -44 -60.5 -74t-69.5 -30t-49 18t-18 45t34.5 94.5t34.5 99.5q0 14 -11.5 25.5t-27.5 11.5q-51 0 -103 -77.5t-116 -223.5l-60 21q19 116 54.5 226.5t65.5 158.5l41 -13q-28 -71 -71 -245q138 236 254 236q25 0 41.5 -17t16.5 -40t-6 -41.5t-37.5 -86
t-31.5 -84.5t10 -26.5t19 -9.5t15 3t13.5 9t13.5 11t14.5 13.5t12.5 11.5z" />
    <glyph glyph-name="uni0440" unicode="&#x440;" horiz-adv-x="515" 
d="M301 339.5q56 41.5 98 41.5t65 -25.5t23 -64.5q0 -108 -77.5 -199.5t-174.5 -91.5q-43 0 -68 15l24 43q53 -7 65 -7q54 0 101 63t47 129q0 25 -14.5 41.5t-37.5 16.5q-55 0 -124.5 -97t-130 -240.5t-105.5 -305.5l-60 21q2 6 37.5 103.5t69.5 193.5q94 264 94 289
q0 64 -26 116l50 25q31 -43 31 -90.5t-19 -131.5q76 114 132 155.5z" />
    <glyph glyph-name="uni0441" unicode="&#x441;" horiz-adv-x="385" 
d="M291 142l24 -20q-24 -55 -77 -88t-102.5 -33t-82 31t-32.5 85t47 117t121.5 104t146.5 41q10 0 30 -2l-3 -39q-110 -5 -182.5 -67t-72.5 -132q0 -29 18 -47t47 -18q46 0 118 68z" />
    <glyph glyph-name="uni0442" unicode="&#x442;" horiz-adv-x="742" 
d="M697 130l21 -20q-57 -102 -131 -102q-30 0 -46.5 16.5t-16.5 44t33 94.5t35 102q1 16 -9.5 26t-28.5 10t-36.5 -8.5t-36 -27.5t-32 -37t-32 -51t-29.5 -55q-21 -41 -60 -123l-60 21q0 3 33 113t33 131t-10 30.5t-25 9.5q-45 0 -124.5 -112t-101.5 -191l-57 19
q5 53 47 190.5t71 187.5l45 -16q-31 -69 -43 -116.5t-21 -101.5q86 123 144 172.5t105 49.5q51 0 51 -51q0 -20 -17.5 -79t-27.5 -93q138 222 247 222q27 0 43 -16.5t16 -49t-37.5 -107.5t-37.5 -94.5t8 -28.5t20 -9q26 0 68 50z" />
    <glyph glyph-name="uni0443" unicode="&#x443;" horiz-adv-x="471" 
d="M431 63l3 -26q-4 -3 -93 -36q-12 -66 -30.5 -130.5t-37 -98t-43.5 -66.5q-50 -66 -135 -66q-42 0 -67 26t-25 71q0 173 290 278l54 190q-86 -129 -155 -159q-34 -16 -71.5 -16t-60 24t-22.5 70t31.5 128.5t70.5 138.5l49 -21q-3 -3 -28 -53q-44 -91 -44 -135t17 -59
t50 -15t74.5 39.5t128.5 156.5l36 -21q-8 -33 -35.5 -119.5t-37.5 -132.5zM287 -15q-63 -29 -111 -66q-90 -68 -90 -132q0 -24 14 -39t35 -15q100 0 152 252z" />
    <glyph glyph-name="uni0444" unicode="&#x444;" horiz-adv-x="407" 
d="M389 263q0 -72 -52.5 -135t-121.5 -82q-12 -80 -18 -145l-47 34q10 90 12 104q-62 2 -109 35.5t-47 87.5q0 85 57.5 156.5t148.5 89.5q19 134 23 145l55 -17q0 -12 -26.5 -176.5t-37.5 -239.5q51 13 78 55t27 88.5t-20 71.5l52 16q12 -15 19 -43t7 -45zM87 210
q0 -30 26 -53t59 -34l35 248q-53 -15 -86.5 -59.5t-33.5 -101.5z" />
    <glyph glyph-name="uni0445" unicode="&#x445;" horiz-adv-x="464" 
d="M207 167q-59 -53 -159 -173l-28 23q19 46 163 192q-38 92 -42 151l66 12q5 -7 39 -121q126 90 179 115l19 -27q-17 -14 -60 -43q-115 -78 -121 -84q54 -115 129 -198l-47 -30q-82 60 -138 183z" />
    <glyph glyph-name="uni0446" unicode="&#x446;" horiz-adv-x="550" 
d="M452 145.5q26 23.5 46.5 23.5t32 -12.5t11.5 -32.5q0 -51 -82 -219l-47 3q0 1 29.5 68.5t29.5 93.5t-17 26q-13 0 -45 -48q-12 -18 -35.5 -33t-50 -15t-43.5 21t-17 53t11 81q-47 -73 -100.5 -114t-90.5 -41q-56 0 -56 67t46.5 180.5t66.5 129.5l48 -21q-41 -66 -62 -130
t-21 -85.5t13.5 -34.5t31.5 -13q40 0 99.5 73.5t121.5 219.5l51 -23q-2 -8 -45.5 -116t-43.5 -129.5t9.5 -32t23.5 -10.5t36.5 23.5t48.5 47z" />
    <glyph glyph-name="uni0447" unicode="&#x447;" horiz-adv-x="373" 
d="M337 115l28 -21q-10 -21 -42.5 -48t-75.5 -27q-58 0 -58 59q0 34 14.5 75.5t28.5 76t17 43.5q-24 -34 -77.5 -70.5t-97.5 -36.5q-65 0 -65 74q0 48 26.5 106t55.5 81l44 -16q-47 -87 -47 -129t39 -42q45 0 103 50t82 125l52 -29q-108 -191 -108 -265q0 -34 26.5 -34
t54.5 28z" />
    <glyph glyph-name="uni0448" unicode="&#x448;" horiz-adv-x="639" 
d="M534.5 88q9.5 -11 19.5 -11t15 1t10 4.5t8.5 5.5t9 7.5l7.5 7.5q4 6 14 16l21 -17q-18 -42 -54.5 -71t-65.5 -29t-46 21t-17 53.5t11 84.5q-48 -76 -96.5 -117t-87.5 -41q-54 0 -54 69q0 22 14 88q-48 -75 -97.5 -116.5t-88.5 -41.5q-54 0 -54 67t46 179.5t67 130.5
l48 -21q-34 -55 -58.5 -126.5t-24.5 -91t11 -34t24 -14.5q37 0 114.5 108t104.5 184l60 -26q-20 -27 -54 -108.5t-34 -104.5t14 -36t28 -13q36 0 106.5 91.5t108.5 194.5l59 -26q-6 -13 -33 -66q-65 -123 -65 -171q0 -20 9.5 -31z" />
    <glyph glyph-name="uni0449" unicode="&#x449;" horiz-adv-x="813" 
d="M667 145.5q26 23.5 46.5 23.5t32 -12.5t11.5 -32.5q0 -51 -82 -219l-47 3q0 1 29.5 68.5t29.5 93.5t-17 26q-13 0 -45 -48q-12 -18 -35.5 -33t-50 -15t-43.5 21t-17 53.5t11 84.5q-48 -76 -96.5 -117t-87.5 -41q-54 0 -54 69q0 22 14 88q-48 -75 -97.5 -116.5
t-88.5 -41.5q-54 0 -54 67t46 179.5t67 130.5l48 -21q-34 -55 -58.5 -126.5t-24.5 -91t10.5 -33t23.5 -13.5q37 0 115 107.5t105 182.5l60 -26q-20 -27 -54 -108.5t-34 -104.5t14 -36t28 -13q36 0 106.5 91.5t108.5 194.5l59 -26q-6 -13 -34 -66q-64 -123 -64 -171
q0 -20 9.5 -31t24 -11t37 23.5t48.5 47z" />
    <glyph glyph-name="uni044A" unicode="&#x44a;" horiz-adv-x="342" 
d="M154 203q81 36 116 36t48 -11t13 -35q0 -63 -74 -127t-143 -64q-28 0 -45.5 16t-17.5 41t39 122t39 127q0 38 -36 38q-21 0 -39.5 -13.5t-34.5 -25t-20 -14.5l-14 33q37 34 79.5 54.5t72.5 20.5q66 0 66 -40q0 -32 -49 -158zM219 83q27 21 36.5 44t9.5 33q-3 28 -48 28
q-22 0 -75 -18q-13 -49 -13 -64t12 -29.5t31.5 -14.5t46.5 21z" />
    <glyph glyph-name="uni044B" unicode="&#x44b;" horiz-adv-x="451" 
d="M231 233q55 2 55 -45q0 -62 -66.5 -122.5t-133.5 -60.5q-63 0 -63 85q0 67 33.5 166.5t55.5 140.5l45 -15q-26 -76 -53 -186l13 6q67 31 114 31zM215 130q6 14 6 26q-3 27 -47 27q-21 0 -78 -18q-8 -30 -8 -53.5t11.5 -37.5t31 -14t46.5 20.5t38 49.5zM382 142l-30 -132
l-57 9q20 121 50.5 225t58.5 149l49 -6q-36 -93 -71 -245z" />
    <glyph glyph-name="uni044C" unicode="&#x44c;" horiz-adv-x="272" 
d="M216 228q55 2 55 -45q0 -62 -66.5 -122.5t-133.5 -60.5q-63 0 -63 85q0 67 33.5 166.5t55.5 140.5l45 -15q-26 -76 -53 -186q80 37 127 37zM200 125q6 13 6 26q-3 27 -47 27q-21 0 -78 -18q-8 -30 -8 -53.5t11.5 -37.5t31 -14t46.5 20.5t38 49.5z" />
    <glyph glyph-name="uni044D" unicode="&#x44d;" horiz-adv-x="397" 
d="M249 226l8 36q0 51 -60 51q-72 0 -135 -60l6 54q63 49 106.5 66t85.5 17t64.5 -28t22.5 -65.5t-13 -74.5q28 0 44 -1l-14 -56q-28 1 -58 1q-39 -61 -106 -110t-144 -74l6 50q111 48 165 136q-78 4 -112 11l-2 46q15 3 41.5 3t94.5 -2z" />
    <glyph glyph-name="uni044E" unicode="&#x44e;" horiz-adv-x="549" 
d="M516 308q12 -15 19 -42.5t7 -45.5q0 -88 -55 -151.5t-133 -63.5q-58 0 -90.5 33.5t-32.5 92.5q0 19 2 29q-18 -2 -78 -11q-41 -73 -41 -147l-60 5q0 56 36 131q-28 -2 -82 -19l-10 39q0 4 43.5 15t69.5 15q80 184 109 213l43 -17q-10 -22 -34 -73.5t-50 -107.5l67 7
q27 71 90 119t135 48q17 0 24 -1l3 -33q-80 0 -133 -46t-53 -118q0 -43 21 -69.5t58 -26.5t64.5 33t27.5 80q0 22 -8 52.5t-11 43.5z" />
    <glyph glyph-name="uni044F" unicode="&#x44f;" horiz-adv-x="476" 
d="M27 75l37 20q3 -4 8 -18q10 -32 26 -32q35 2 66.5 32t37.5 63q-32 -6 -52 -6t-36.5 2.5t-33.5 9.5q-36 14 -36 70.5t59 117.5t138 61q42 0 64 -30t22 -105q0 -26 -7 -79q45 107 47 204l62 -11q0 -70 -43.5 -212t-68.5 -181l-63 12q30 78 30 174t-14 126q-15 33 -49.5 33
t-66 -23t-32.5 -54t22.5 -47.5t51.5 -21.5q76 -15 76 -38q0 -19 -37 -60t-85.5 -75.5t-74 -34.5t-38 23.5t-12.5 43.5t2 36z" />
    <glyph glyph-name="uni0451" unicode="&#x451;" horiz-adv-x="401" 
d="M300 118l23 -18q-31 -43 -85 -71.5t-105 -28.5t-82 30t-31 79q0 92 97.5 181t197.5 89q66 0 66 -52q0 -54 -69.5 -109t-195.5 -100q9 -23 28 -36t39 -13q43 0 117 49zM111 148q81 28 139 70t58 77q0 13 -10 23t-23 10q-47 0 -101.5 -58.5t-62.5 -121.5zM188 449
q0 17 11.5 28.5t28 11.5t28 -11.5t11.5 -28t-11.5 -28t-28.5 -11.5t-28 11t-11 28zM315 449q0 17 11.5 28.5t27.5 11.5t28 -11.5t12 -28t-11.5 -28t-28 -11.5t-28 11t-11.5 28z" />
    <glyph glyph-name="uni0452" unicode="&#x452;" horiz-adv-x="491" 
d="M403 561v-47l-145 -20q-105 -232 -128 -342q117 207 240 207q34 0 59.5 -26.5t25.5 -67.5t-33 -122t-83 -162t-121 -140.5t-136 -59.5q-32 0 -48 12l24 44q30 -8 33 -8q52 0 117.5 74.5t109 170.5t43.5 158q0 21 -13.5 34.5t-34.5 13.5q-46 0 -107.5 -74t-107.5 -193
l-61 25q35 176 150 446l-121 -17l-12 54q69 12 160 22q52 116 93 179l51 -18q-38 -78 -73 -153q81 9 118 10z" />
    <glyph glyph-name="uni0453" unicode="&#x453;" horiz-adv-x="324" 
d="M253 118l20 -16q-30 -40 -82.5 -71t-84 -31t-48 13.5t-16.5 35.5t38 65.5t76.5 87.5t38.5 64t-10.5 33.5t-34.5 13.5t-87 -41l-9 35q45 35 95.5 57t78.5 22t43.5 -13t15.5 -41t-63 -118q-13 -18 -27 -38t-20.5 -29t-12.5 -19q-10 -15 -10 -23.5t8.5 -16.5t17 -8t14.5 1.5
t13 6t12 7.5zM295 470l-171 -56l-29 18l132 78z" />
    <glyph glyph-name="uni0454" unicode="&#x454;" horiz-adv-x="385" 
d="M257 228l-1 -37l-145 -26q-3 -14 -3 -26q0 -29 18 -47t47 -18q46 0 118 68l24 -20q-24 -55 -77 -88t-102.5 -33t-82 31t-32.5 85t47 117t121.5 104t146.5 41q10 0 30 -2l-3 -39q-77 -4 -137 -37t-92 -82q43 6 123 9z" />
    <glyph glyph-name="uni0455" unicode="&#x455;" 
d="M347 391l-9 -39q-17 2 -44 2q-100 0 -100 -66q0 -14 40.5 -82t40.5 -91q0 -54 -36.5 -84.5t-97.5 -30.5q-84 0 -135 93l38 27q14 -11 30 -26.5t24 -21.5q19 -17 42 -17t40 16.5t17 41t-43.5 91.5t-43.5 94q0 49 41.5 75t109 26t86.5 -8z" />
    <glyph glyph-name="uni0456" unicode="&#x456;" horiz-adv-x="288" 
d="M224 424q-56 0 -56 45q0 25 14 42t36 17t36 -13t14 -34t-12 -39t-32 -18zM211 129l20 -17q-24 -46 -63.5 -78.5t-71.5 -32.5q-56 0 -56 78q0 97 80 253q18 34 21 40l43 -26q-21 -38 -51.5 -121t-30.5 -106.5t10 -33.5t24 -10q27 0 75 54z" />
    <glyph glyph-name="uni0457" unicode="&#x457;" horiz-adv-x="288" 
d="M211 129l20 -17q-24 -46 -63.5 -78.5t-71.5 -32.5q-56 0 -56 78q0 97 80 253q18 34 21 40l43 -26q-21 -38 -51.5 -121t-30.5 -106.5t10 -33.5t24 -10q27 0 75 54zM83 422.5q-11 11.5 -11 28t11.5 28t28 11.5t28 -12t11.5 -28t-11.5 -27.5t-28.5 -11.5t-28 11.5z
M210.5 422.5q-11.5 11.5 -11.5 28t11.5 28t27.5 11.5t28 -12t12 -28t-11.5 -27.5t-28 -11.5t-28 11.5z" />
    <glyph glyph-name="uni0458" unicode="&#x458;" horiz-adv-x="423" 
d="M326 141q2 -18 2 -29q-53 -13 -96 -30q-37 -178 -96 -269t-150 -91q-45 0 -70.5 27t-25.5 74q0 85 74 154.5t215 119.5q45 171 108 336q19 50 21 60l50 -16q-28 -62 -68.5 -183t-48.5 -176zM175 58q-125 -62 -158 -98q-43 -47 -43 -98q0 -22 13 -35t35 -13
q45 0 86.5 68.5t66.5 175.5zM422.5 575q-10.5 -19 -34 -19t-40 13t-16.5 36.5t16 42t36.5 18.5t34.5 -14.5t14 -36t-10.5 -40.5z" />
    <glyph glyph-name="uni0459" unicode="&#x459;" horiz-adv-x="544" 
d="M487 211q55 2 55 -45q0 -62 -66.5 -122.5t-133.5 -60.5q-33 0 -49 24.5t-16 59t10 82.5q-45 -70 -108.5 -107t-106.5 -37q-28 0 -45 25t-17 61l50 25q0 -18 13.5 -31t31.5 -13q36 0 100.5 60.5t113.5 161.5q6 13 14 29.5t12 25t9.5 19.5t9 16.5t8.5 10.5q8 9 19.5 9
t20.5 -11t9 -21.5t-13 -39.5q-42 -95 -48 -158q60 37 127 37zM471 108q6 14 6 26q-3 27 -47 27q-21 0 -78 -18q-8 -30 -8 -53.5t11.5 -37.5t31 -14t46.5 20.5t38 49.5z" />
    <glyph glyph-name="uni045A" unicode="&#x45a;" horiz-adv-x="501" 
d="M334 233q5 0 41.5 7.5t58.5 7.5q70 0 70 -66q0 -61 -54 -118.5t-144 -57.5q-64 0 -64 70q0 36 21 105q-64 0 -140 -13q-17 -37 -21.5 -66.5t-8.5 -56.5t-6 -37l-56 4q0 64 33 152q-22 -4 -69 -18l-10 39q0 6 96 21q96 221 125 250l43 -17q-10 -25 -110 -226q23 1 74.5 8
t67.5 8q33 86 65 146.5t49 77.5l39 -9q-1 -9 -14 -32q-57 -100 -86 -179zM403 79q23 18 32.5 42t9.5 39q0 34 -47 34q-14 0 -43.5 -5t-30.5 -5q-10 -24 -10 -54t11 -49.5t33 -19.5t45 18z" />
    <glyph glyph-name="uni045B" unicode="&#x45b;" horiz-adv-x="493" 
d="M398 586v-47l-146 -21q-83 -186 -133 -360q87 124 141.5 173t98.5 49q29 0 47 -15.5t18 -40t-10.5 -51.5t-55.5 -121q-14 -28 -14 -44t9 -26.5t21.5 -10.5t38.5 20l9 7l23 -19q-47 -78 -116 -78q-28 0 -46 15t-18 37t39 96.5t39 109.5q0 15 -12.5 26t-28.5 11
q-40 0 -105.5 -81t-105.5 -183l-59 21q40 206 149 455l-120 -17l-12 54q55 10 159 23l43 88q34 70 53 96l49 -16q-1 -6 -74 -160q83 9 119 10z" />
    <glyph glyph-name="uni045C" unicode="&#x45c;" horiz-adv-x="454" 
d="M380 111l25 -22q-58 -95 -123 -95q-37 0 -75.5 48t-46.5 93q-6 -11 -34 -58t-40 -77l-60 21q21 123 51.5 232t57.5 153l41 -13q-18 -46 -60 -245q55 113 111 165.5t123 69.5v-66q-72 -3 -139 -97q4 -65 38.5 -108t65.5 -43q15 0 65 42zM393 480l-171 -56l-29 18l132 78z
" />
    <glyph glyph-name="uni045E" unicode="&#x45e;" horiz-adv-x="471" 
d="M431 63l3 -26q-4 -3 -93 -36q-12 -66 -30.5 -130.5t-37 -98t-43.5 -66.5q-50 -66 -135 -66q-42 0 -67 26t-25 71q0 173 290 278l54 190q-86 -129 -155 -159q-34 -16 -71.5 -16t-60 24t-22.5 70t31.5 128.5t70.5 138.5l49 -21q-3 -3 -28 -53q-44 -91 -44 -135t17 -59
t50 -15t74.5 39.5t128.5 156.5l36 -21q-8 -33 -35.5 -119.5t-37.5 -132.5zM287 -15q-63 -29 -111 -66q-90 -68 -90 -132q0 -24 14 -39t35 -15q100 0 152 252zM411 478l30 -16q-20 -31 -51.5 -55t-62.5 -24t-65 23.5t-55 47.5l32 27q52 -51 85 -51q51 0 87 48z" />
    <glyph glyph-name="uni045F" unicode="&#x45f;" horiz-adv-x="397" 
d="M368 353l36 -17q-44 -107 -119 -210q-37 -50 -79.5 -82.5t-80.5 -33.5q-26 -67 -34 -112h-50q15 58 34 109q-29 5 -49.5 36t-20.5 75t31.5 126.5t70.5 138.5l49 -21q-1 -2 -16.5 -31.5t-26.5 -52.5q-32 -65 -32 -112q0 -86 68 -86q74 0 219 273z" />
    <glyph glyph-name="uni0490" unicode="&#x490;" horiz-adv-x="715" 
d="M441 549l-143 3q-219 0 -219 -96q0 -25 18.5 -40.5t55.5 -15.5t97 34l15 -26q-31 -33 -70 -52t-78 -19t-67 26t-28 65q0 79 85.5 138t231.5 59q12 0 110 -5.5t165 -5.5q18 0 33 15t23.5 31t19.5 45l51 1q-17 -70 -40 -100q-45 -58 -136 -58h-63q-66 -64 -115.5 -223.5
t-118 -243t-162.5 -83.5q-37 0 -70 24l23 38q12 -6 27 -11l14 -2q5 -1 15 -1q50 0 89.5 48t83 181.5t68 177t85.5 96.5z" />
    <glyph glyph-name="uni0491" unicode="&#x491;" horiz-adv-x="467" 
d="M416 380h55q-54 -178 -125 -178q-30 0 -36 42q-3 16 -15 29.5t-35 13.5t-47.5 -30t-41.5 -67t-43 -95t-43 -90l-54 25q3 7 15.5 42.5t19 53.5t17.5 54.5t17 63.5q16 72 16 131l53 6q0 -71 -36 -207q53 102 83.5 142.5t58.5 40.5t42.5 -13t18.5 -28q9 -41 21 -41
q22 0 39 35.5t20 69.5z" />
    <glyph glyph-name="Wgrave" unicode="&#x1e80;" horiz-adv-x="779" 
d="M714 620l74 10q6 -27 6 -59q0 -80 -37.5 -182t-90.5 -185.5t-113 -141t-101 -57.5q-88 0 -88 138q0 66 47 274q-116 -164 -214 -287.5t-118.5 -123.5t-37 16t-16.5 33t6 34q43 129 56.5 242t13.5 202.5t-1 110.5h78q6 -32 6 -99.5t-16.5 -188t-40.5 -223.5q75 96 310 422
q27 39 43.5 51.5t40 12.5t23.5 -23q0 -9 -25 -86t-48 -191t-23 -173t30 -59q21 0 52 30q77 74 131 203.5t54 266.5q0 22 -1 33zM584 680l-171 56l68 40l132 -78z" />
    <glyph glyph-name="wgrave" unicode="&#x1e81;" horiz-adv-x="587" 
d="M573 389l28 -26l-60 -73q-106 -131 -157 -260q-14 -27 -27 -27t-21.5 3.5t-19 25.5t-14.5 53t-7 53t-4 32.5t-2.5 22t-2.5 17.5l-2 12t-3 11.5t-3 10t-4.5 15.5t-5.5 19q-52 -56 -89 -132q-14 -29 -55 -116q-9 -19 -24.5 -19t-25 3.5t-19.5 23.5t-15 60q-24 201 -46 274
q29 8 58 8q5 -9 13 -55q17 -89 43 -209q49 94 108.5 173.5t78.5 79.5q22 0 30.5 -30.5t15 -102t17.5 -119.5q94 161 215 272zM364 394l-171 56l68 40l132 -78z" />
    <glyph glyph-name="Wacute" unicode="&#x1e82;" horiz-adv-x="779" 
d="M714 620l74 10q6 -27 6 -59q0 -80 -37.5 -182t-90.5 -185.5t-113 -141t-101 -57.5q-88 0 -88 138q0 66 47 274q-116 -164 -214 -287.5t-118.5 -123.5t-37 16t-16.5 33t6 34q43 129 56.5 242t13.5 202.5t-1 110.5h78q6 -32 6 -99.5t-16.5 -188t-40.5 -223.5q75 96 310 422
q27 39 43.5 51.5t40 12.5t23.5 -23q0 -9 -25 -86t-48 -191t-23 -173t30 -59q21 0 52 30q77 74 131 203.5t54 266.5q0 22 -1 33zM594 733l-171 -56l-29 18l132 78z" />
    <glyph glyph-name="wacute" unicode="&#x1e83;" horiz-adv-x="587" 
d="M573 389l28 -26l-60 -73q-106 -131 -157 -260q-14 -27 -27 -27t-21.5 3.5t-19 25.5t-14.5 53t-7 53t-4 32.5t-2.5 22t-2.5 17.5l-2 12t-3 11.5t-3 10t-4.5 15.5t-5.5 19q-52 -56 -89 -132q-14 -29 -55 -116q-9 -19 -24.5 -19t-25 3.5t-19.5 23.5t-15 60q-24 201 -46 274
q29 8 58 8q5 -9 13 -55q17 -89 43 -209q49 94 108.5 173.5t78.5 79.5q22 0 30.5 -30.5t15 -102t17.5 -119.5q94 161 215 272zM393 450l-171 -56l-29 18l132 78z" />
    <glyph glyph-name="Wdieresis" unicode="&#x1e84;" horiz-adv-x="779" 
d="M714 620l74 10q6 -27 6 -59q0 -80 -37.5 -182t-90.5 -185.5t-113 -141t-101 -57.5q-88 0 -88 138q0 66 47 274q-116 -164 -214 -287.5t-118.5 -123.5t-37 16t-16.5 33t6 34q43 129 56.5 242t13.5 202.5t-1 110.5h78q6 -32 6 -99.5t-16.5 -188t-40.5 -223.5q75 96 310 422
q27 39 43.5 51.5t40 12.5t23.5 -23q0 -9 -25 -86t-48 -191t-23 -173t30 -59q21 0 52 30q77 74 131 203.5t54 266.5q0 22 -1 33zM407 735q0 17 11.5 28.5t27.5 11.5t28 -11.5t12 -28t-11.5 -28t-28 -11.5t-28 11t-11.5 28zM534 735q0 17 11.5 28.5t28 11.5t28 -11.5t11.5 -28
t-11.5 -28t-28.5 -11.5t-28 11t-11 28z" />
    <glyph glyph-name="wdieresis" unicode="&#x1e85;" horiz-adv-x="587" 
d="M573 389l28 -26l-60 -73q-106 -131 -157 -260q-14 -27 -27 -27t-21.5 3.5t-19 25.5t-14.5 53t-7 53t-4 32.5t-2.5 22t-2.5 17.5l-2 12t-3 11.5t-3 10t-4.5 15.5t-5.5 19q-52 -56 -89 -132q-14 -29 -55 -116q-9 -19 -24.5 -19t-25 3.5t-19.5 23.5t-15 60q-24 201 -46 274
q29 8 58 8q5 -9 13 -55q17 -89 43 -209q49 94 108.5 173.5t78.5 79.5q22 0 30.5 -30.5t15 -102t17.5 -119.5q94 161 215 272zM190 443q0 17 11.5 28.5t28 11.5t28 -11.5t11.5 -28t-11.5 -28t-28.5 -11.5t-28 11t-11 28zM317 443q0 17 11.5 28.5t27.5 11.5t28 -11.5t12 -28
t-11.5 -28t-28 -11.5t-28 11t-11.5 28z" />
    <glyph glyph-name="Ygrave" unicode="&#x1ef2;" horiz-adv-x="650" 
d="M315 9l30 -1q6 21 27.5 80t30.5 78q-104 -98 -161 -118q-31 -11 -63 -11q-53 0 -82 35t-29 98q0 90 83 240.5t189 235.5l40 -37q-222 -239 -222 -399q0 -93 73 -93t142 80t143 248q30 69 46 91t31 22t23.5 -9t8.5 -24q0 -64 -92 -190q-64 -132 -129 -328q47 -3 100 -23
l-10 -34l-106 15q-59 -144 -142.5 -215.5t-199.5 -71.5q-60 0 -100.5 32.5t-40.5 81.5q0 90 121 153.5t289 63.5zM91 -253q81 0 143.5 65.5t92.5 153.5q-134 0 -225 -45.5t-91 -110.5q0 -28 22.5 -45.5t57.5 -17.5zM563 683l-171 56l68 40l132 -78z" />
    <glyph glyph-name="ygrave" unicode="&#x1ef3;" horiz-adv-x="441" 
d="M416 63l3 -26q-4 -3 -93 -36q-12 -66 -30.5 -130.5t-37 -98t-42.5 -66.5q-51 -66 -136 -66q-42 0 -67 26t-25 71q0 173 290 278l54 190q-86 -129 -154 -159q-35 -16 -72.5 -16t-60 24t-22.5 70t31.5 128.5t70.5 138.5l49 -21q-3 -3 -28 -53q-44 -91 -44 -135t17 -59
t50 -15t74.5 39.5t128.5 156.5l36 -21q-8 -33 -35.5 -119.5t-37.5 -132.5zM272 -15q-63 -29 -111 -66q-90 -68 -90 -132q0 -24 14 -39t35 -15q100 0 152 252zM390 404l-171 56l68 40l132 -78z" />
    <glyph glyph-name="endash" unicode="&#x2013;" horiz-adv-x="387" 
d="M361 296v-47l-324 -32l-12 54q50 10 154.5 17t181.5 8z" />
    <glyph glyph-name="emdash" unicode="&#x2014;" horiz-adv-x="499" 
d="M502 302v-47l-492 -45l-12 54q51 10 240 23.5t264 14.5z" />
    <glyph glyph-name="quoteleft" unicode="&#x2018;" horiz-adv-x="69" 
d="M95.5 538.5q-13.5 -12.5 -33 -12.5t-30.5 11.5t-11 30.5q0 45 76 99l22 -32q-40 -32 -41 -34q31 -10 31 -32q0 -18 -13.5 -30.5z" />
    <glyph glyph-name="quoteright" unicode="&#x2019;" horiz-adv-x="43" 
d="M-12.5 652.5q13.5 12.5 33 12.5t30.5 -11.5t11 -30.5q0 -44 -76 -99l-22 32q4 3 15 11.5t17.5 13.5t8.5 9q-31 10 -31 32q0 18 13.5 30.5z" />
    <glyph glyph-name="quotesinglbase" unicode="&#x201a;" horiz-adv-x="154" 
d="M21.5 63.5q13.5 12.5 33 12.5t30.5 -11.5t11 -30.5q0 -44 -76 -99l-22 32q40 32 41 34q-31 10 -31 32q0 18 13.5 30.5z" />
    <glyph glyph-name="quotedblleft" unicode="&#x201c;" horiz-adv-x="191" 
d="M95.5 538.5q-13.5 -12.5 -33 -12.5t-30.5 11.5t-11 30.5q0 45 76 99l22 -32q-40 -32 -41 -34q31 -10 31 -32q0 -18 -13.5 -30.5zM216.5 536.5q-13.5 -12.5 -33 -12.5t-30.5 11.5t-11 30.5q0 45 76 99l22 -32q-4 -3 -15 -11.5t-17.5 -13.5t-8.5 -9q31 -10 31 -32
q0 -18 -13.5 -30.5z" />
    <glyph glyph-name="quotedblright" unicode="&#x201d;" horiz-adv-x="164" 
d="M109 653q14 13 33 12.5t30 -12t11 -30.5q0 -44 -76 -99l-22 32q40 32 41 34q-31 10 -31 32q0 18 14 31zM-12.5 654.5q13.5 12.5 33 12.5t30.5 -11.5t11 -30.5q0 -44 -76 -99l-22 32q4 3 15 11.5t17.5 13.5t8.5 9q-31 10 -31 32q0 18 13.5 30.5z" />
    <glyph glyph-name="quotedblbase" unicode="&#x201e;" horiz-adv-x="288" 
d="M21.5 63.5q13.5 12.5 33 12.5t30.5 -11.5t11 -30.5q0 -44 -76 -99l-22 32q40 32 41 34q-31 10 -31 32q0 18 13.5 30.5zM153.5 63.5q13.5 12.5 33 12.5t30.5 -11.5t11 -30.5q0 -44 -76 -99l-22 32q40 32 41 34q-31 10 -31 32q0 18 13.5 30.5z" />
    <glyph glyph-name="dagger" unicode="&#x2020;" horiz-adv-x="284" 
d="M276 478v-47l-116 -18q-51 -255 -51 -435l-34 -10q14 277 45 438l-100 -15l-12 54q59 10 125 19q17 78 48 178l39 -9q-27 -72 -47 -164q74 8 103 9z" />
    <glyph glyph-name="daggerdbl" unicode="&#x2021;" horiz-adv-x="284" 
d="M244 305l4 -46q-55 -12 -121 -19q-22 -167 -22 -262l-34 -10q9 173 19 268q-29 -2 -82 -2l-3 55l92 6q11 72 20 114l-96 -12l-3 54q65 11 111 16q22 93 48 175l39 -9q-27 -70 -47 -162q52 5 91 5l4 -47l-107 -14q-11 -55 -21 -118z" />
    <glyph glyph-name="bullet" unicode="&#x2022;" horiz-adv-x="151" 
d="M27 252q0 23 16.5 39.5t39.5 16.5t39.5 -16.5t16.5 -39.5t-16.5 -39.5t-39.5 -16.5t-39.5 16.5t-16.5 39.5z" />
    <glyph glyph-name="ellipsis" unicode="&#x2026;" horiz-adv-x="460" 
d="M28 35q0 17 12 29t29 12t29 -12t12 -29t-12 -29t-29 -12t-29 12t-12 29zM190 35q0 17 12 29t29 12t29 -12t12 -29t-12 -29t-29 -12t-29 12t-12 29zM351 35q0 17 12 29t29 12t29 -12t12 -29t-12 -29t-29 -12t-29 12t-12 29z" />
    <glyph glyph-name="perthousand" unicode="&#x2030;" horiz-adv-x="611" 
d="M240.5 151.5q36.5 32.5 78 32.5t62 -17.5t20.5 -52t-37.5 -68t-86.5 -33.5q-73 0 -73 62q0 44 36.5 76.5zM254 83q0 -42 40 -42q20 0 38.5 22.5t18.5 47.5q0 49 -36 49q-24 0 -42.5 -24t-18.5 -53zM273 372q-39 -34 -79 -34q-77 0 -77 60q0 43 37 76t78 33t60.5 -16
t19.5 -42q0 -43 -39 -77zM266 444q0 42 -41 42q-21 0 -39.5 -24.5t-18.5 -60.5t36 -36q25 0 44 24.5t19 54.5zM539 507l27 -21l-18 -14q-340 -265 -516 -469l-37 32q22 33 123.5 134t229 207.5t191.5 130.5zM444.5 151.5q36.5 32.5 78 32.5t62 -17.5t20.5 -52t-37.5 -68
t-86.5 -33.5q-73 0 -73 62q0 44 36.5 76.5zM458 83q0 -42 40 -42q20 0 38.5 22.5t18.5 47.5q0 49 -36 49q-24 0 -42.5 -24t-18.5 -53z" />
    <glyph glyph-name="guilsinglleft" unicode="&#x2039;" horiz-adv-x="227" 
d="M197 397q-99 -94 -110 -110q23 -38 83 -97l20 -19l-14 -50q-16 6 -130 127l-38 41q147 129 165 138z" />
    <glyph glyph-name="guilsinglright" unicode="&#x203a;" horiz-adv-x="223" 
d="M195 289l-131 -167l-26 35q6 22 69 101l21 26q-15 24 -37.5 51t-31.5 43l33 53q55 -70 103 -142z" />
    <glyph glyph-name="fraction" unicode="&#x2044;" horiz-adv-x="554" 
d="M533 510l32 -34q-274 -185 -530 -461l-37 29q198 230 535 466z" />
    <glyph glyph-name="Euro" unicode="&#x20ac;" horiz-adv-x="600" 
d="M358 216l-197 2q0 -139 153 -139q60 0 94.5 17.5t34.5 65.5q0 11 -1 18l45 6q8 -29 8 -50q0 -64 -55.5 -100t-151 -36t-151.5 43t-56 122q0 25 6 55q-54 0 -88 -1l4 34q33 2 93 2q10 30 31 71l-115 -5l4 31q55 9 131 9q42 77 111.5 137.5t135.5 89.5t108 29t62 -19.5
t20 -59.5t-35 -72q-60 -56 -152 -56l-5 33q3 1 21.5 2.5t29 4.5t25.5 10q30 12 30 51q0 18 -13.5 29.5t-33.5 11.5q-51 0 -103.5 -35t-85 -74.5t-56.5 -81.5q140 0 191 -7l-5 -36q-65 8 -205 8q-16 -34 -23 -70q172 -2 199 -5z" />
    <glyph glyph-name="uni2116" unicode="&#x2116;" horiz-adv-x="897" 
d="M686 611l58 -7q-18 -78 -48.5 -182.5t-55.5 -169t-54.5 -128t-62.5 -100t-64 -36.5t-45.5 23t-14.5 81.5t17 246t17.5 204t-8.5 16.5q-11 0 -26 -30.5t-23 -46.5q-21 -47 -27 -66q-56 -126 -100 -208t-101 -152q-20 -24 -57 -49t-69 -38l-22 59q83 35 150 121.5
t138.5 241.5t102.5 209q35 57 71 57q23 0 36 -16t13 -41.5t-17.5 -210.5t-17.5 -237t4.5 -67.5t15.5 -15.5q14 0 30 30q55 107 160 512zM858 245q-39 -34 -79 -34q-77 0 -77 60q0 43 37 76t78 33t60.5 -16t19.5 -42q0 -43 -39 -77zM851 317q0 42 -41 42q-21 0 -39.5 -24.5
t-18.5 -60.5t36 -36q25 0 44 24.5t19 54.5zM897 142v-47l-260 -29l-12 54q104 20 272 22z" />
    <glyph glyph-name="approxequal" unicode="&#x2248;" horiz-adv-x="450" 
d="M386 188l28 -36q-74 -103 -112 -103q-21 0 -43.5 18t-38.5 39q-45 57 -81 57q-18 0 -47 -26l-19.5 -19.5t-22.5 -21.5l-34 38q72 64 84 72t22 14q16 9 35 9t42.5 -16.5t39.5 -36.5q43 -52 71 -52q13 0 24 10.5t17 16.5t17.5 18.5t17.5 18.5zM394 333l28 -39
q-26 -39 -56 -65.5t-53.5 -26.5t-53 26.5t-58.5 53t-54 26.5q-20 0 -58 -32q-13 -11 -40 -36l-30 38q110 96 153 96q23 0 45 -16.5t35 -35.5q37 -53 66 -53q13 0 26 13t27 27.5t23 23.5z" />
    <glyph glyph-name="lessequal" unicode="&#x2264;" horiz-adv-x="227" 
d="M200 469q-99 -94 -110 -110q23 -38 84 -97l19 -19l-14 -50q-16 6 -130 127l-38 41q147 129 165 138zM222 157v-47l-202 -31l-12 54q100 20 214 24z" />
    <glyph glyph-name="greaterequal" unicode="&#x2265;" horiz-adv-x="223" 
d="M196 351l-131 -167l-26 35q6 22 69 101l21 26q-15 24 -37.5 51t-31.5 43l33 53q55 -70 103 -142zM222 157v-47l-202 -31l-12 54q100 20 214 24z" />
    </font>
</defs>
</svg>
